<svg width="76" height="76" viewBox="0 0 76 76" fill="none" xmlns="http://www.w3.org/2000/svg">
<path d="M38.0809 0C30.5812 0 23.25 2.22866 17.0143 6.40415C10.7786 10.5796 5.9185 16.5144 3.04852 23.458C0.178539 30.4016 -0.572379 38.0421 0.890724 45.4134C2.35383 52.7847 5.96524 59.5557 11.2683 64.87C16.5713 70.1844 23.3278 73.8036 30.6833 75.2698C38.0388 76.7361 45.663 75.9835 52.5917 73.1074C59.5205 70.2313 65.4426 65.3607 69.6091 59.1117C73.7757 52.8626 75.9996 45.5157 75.9996 38C75.9996 27.9218 72.0046 18.2563 64.8935 11.1299C57.7823 4.00356 48.1375 0 38.0809 0Z" fill="#DDE4E3"/>
<path d="M44.8789 16.3232V21.057C44.8789 21.057 50.1659 21.2415 50.1659 21.057V16.3232H44.8789Z" fill="#2167AE"/>
<path d="M59.472 32.2067C58.7353 30.2524 55.4147 21.7133 55.4147 21.7133C55.4147 21.7133 55.1113 19.9707 52.7062 19.9707H23.4546C21.0386 19.9707 20.7461 21.7133 20.7461 21.7133C20.7461 21.7133 17.4201 30.2687 16.6834 32.223C15.9467 34.1773 18.3085 33.8516 18.3085 33.8516H57.7982C57.7982 33.8516 60.2141 34.161 59.472 32.2067Z" fill="#23366F"/>
<path d="M20.2969 33.8574V56.2014H56.0976V33.8737L20.2969 33.8574Z" fill="#2167AE"/>
<path d="M50.7565 14.9224H44.3645C44.1281 14.9224 43.9365 15.1144 43.9365 15.3512V15.8941C43.9365 16.1309 44.1281 16.3229 44.3645 16.3229H50.7565C50.9928 16.3229 51.1844 16.1309 51.1844 15.8941V15.3512C51.1844 15.1144 50.9928 14.9224 50.7565 14.9224Z" fill="#23366F"/>
<path d="M38.0819 39.3346C38.0819 39.3346 31.1211 39.1555 31.1211 46.2724V61.0761H45.0427V46.2724C45.0427 39.1555 38.0819 39.3346 38.0819 39.3346Z" fill="#5495CF"/>
<path fill-rule="evenodd" clip-rule="evenodd" d="M63.4489 47.0441C62.8718 46.0775 61.9466 45.3698 60.8641 45.0668C59.7817 44.7638 58.6244 44.8886 57.6311 45.4155L37.2579 56.2292C36.8956 56.4199 36.4981 56.5341 36.0901 56.565C35.682 56.5958 35.272 56.5425 34.8852 56.4083L24.9397 52.9178L31.6459 52.5758C32.8435 52.5158 33.9722 51.9965 34.7981 51.1253C35.624 50.2542 36.0839 49.098 36.0824 47.8963C36.0824 46.6933 35.6206 45.5363 34.7927 44.6652C33.9647 43.794 32.8341 43.2755 31.6351 43.2169L0 41.9846C0.0701838 47.434 1.31373 52.804 3.64562 57.7275L27.9461 66.2503C30.0389 67.0204 32.2745 67.3222 34.496 67.1347C36.7176 66.9471 38.8712 66.2747 40.806 65.1646L57.7015 55.4909C57.2508 54.6912 57.108 53.7536 57.3003 52.8556C57.4925 51.9575 58.0064 51.1612 58.7448 50.6171C59.4832 50.073 60.3949 49.8188 61.3076 49.9026C62.2203 49.9865 63.0707 50.4025 63.6981 51.072C63.9813 50.4297 64.1066 49.7286 64.0632 49.0276C64.0198 48.3267 63.8092 47.6464 63.4489 47.0441Z" fill="#91BFE3"/>
<path d="M59.0505 50.4205C59.7855 49.9857 60.6465 49.8149 61.4914 49.9363C62.3363 50.0577 63.1147 50.464 63.6983 51.0882C63.3195 51.9463 62.6758 52.6599 61.8619 53.1239L57.7017 55.507C57.2168 54.6511 57.0864 53.6387 57.3386 52.6875C57.5909 51.7362 58.2056 50.9222 59.0505 50.4205Z" fill="#5495CF"/>
<path d="M28.6719 47.8903C28.6719 47.303 28.8457 46.7289 29.1712 46.2406C29.4968 45.7523 29.9596 45.3717 30.501 45.1469C31.0425 44.9222 31.6382 44.8634 32.213 44.978C32.7878 45.0925 33.3158 45.3753 33.7302 45.7906C34.1446 46.2059 34.4268 46.735 34.5411 47.311C34.6554 47.887 34.5967 48.4841 34.3725 49.0267C34.1482 49.5693 33.7684 50.033 33.2812 50.3593C32.7939 50.6856 32.221 50.8598 31.635 50.8598C30.8491 50.8598 30.0954 50.5469 29.5397 49.99C28.9841 49.4332 28.6719 48.6779 28.6719 47.8903Z" fill="#5495CF"/>
</svg>
