<svg viewBox="0 0 16 17" fill="none" xmlns="http://www.w3.org/2000/svg">
<path fill-rule="evenodd" clip-rule="evenodd" d="M8.08 2.51828C8.436 1.83328 8.409 1.34328 8.001 0.651282L8.002 0.652282C7.842 0.380282 7.492 0.290282 7.22 0.450282C7.2104 0.456187 7.20081 0.462093 7.19161 0.468401C6.93472 0.633784 6.85924 0.972545 7.015 1.23928C7.219 1.57728 7.248 1.65528 7.064 2.00228L7.014 2.09128C6.69 2.65528 6.648 3.19728 6.803 3.66428C6.874 3.88828 6.982 4.06528 7.083 4.17928H7.075C7.182 4.30828 7.334 4.36928 7.494 4.36928H7.503C7.639 4.37128 7.776 4.32428 7.886 4.22728C8.123 4.01928 8.146 3.65828 7.938 3.42128L7.914 3.37428C7.827 3.19028 7.827 2.96628 8.004 2.65828L8.08 2.51828ZM6.298 1.22328C6.161 0.988282 5.89 0.888282 5.643 0.964282L5.587 0.983282L5.517 1.01728C5.244 1.17528 5.151 1.52428 5.309 1.79728L5.31413 1.80628C5.32391 1.82346 5.33246 1.83848 5.341 1.85128C5.361 1.92228 5.351 2.00128 5.309 2.08928L5.256 2.18428L5.25 2.19528L5.285 2.13528L5.27311 2.15628C5.25005 2.19693 5.22452 2.24194 5.199 2.29128C5.084 2.51428 5.019 2.70928 5.001 2.94528L4.996 3.08628C4.996 3.13228 4.998 3.17728 5.001 3.22028C5.003 3.24328 5.005 3.26628 5.008 3.29028C5.011 3.31427 5.014 3.3383 5.018 3.36228L5.01908 3.36913C5.02173 3.38604 5.02448 3.40355 5.028 3.42028C5.033 3.44828 5.039 3.47628 5.045 3.50228C5.04747 3.51465 5.05063 3.52635 5.0539 3.53848L5.056 3.54628C5.066 3.58628 5.077 3.62428 5.089 3.66128C5.09489 3.67927 5.10088 3.69704 5.10705 3.71467L5.105 3.70928C5.115 3.73828 5.125 3.76628 5.136 3.79328L5.148 3.82228C5.166 3.86628 5.184 3.90728 5.202 3.94528C5.20717 3.95678 5.21267 3.96761 5.21794 3.97797C5.22183 3.98564 5.2256 3.99305 5.229 4.00028C5.243 4.02728 5.256 4.05128 5.27 4.07528C5.27911 4.09148 5.2872 4.10511 5.29361 4.11593C5.29987 4.12648 5.30453 4.13434 5.307 4.13928C5.414 4.30728 5.596 4.39828 5.785 4.39828C5.891 4.39928 6 4.36928 6.096 4.30728C6.362 4.13728 6.438 3.78328 6.267 3.51828L6.243 3.47328L6.206 3.39028C6.163 3.28428 6.138 3.17928 6.138 3.08828C6.138 3.05775 6.13976 3.02986 6.14446 3.00227L6.154 2.96028C6.17 2.90128 6.201 2.83628 6.253 2.74228L6.343 2.58028C6.523 2.23728 6.57 1.91128 6.447 1.54928C6.413 1.44728 6.365 1.33828 6.298 1.22328ZM6.1448 3.00028L6.144 3.00428L6.14446 3.00227L6.1448 3.00028ZM6.732 16.3703C6.65 16.3703 6.571 16.3663 6.494 16.3593C6.488 16.3588 6.482 16.358 6.476 16.3573C6.47 16.3565 6.464 16.3558 6.458 16.3553C6.392 16.3483 6.328 16.3383 6.266 16.3263C5.858 16.2443 5.54 16.0503 5.305 15.7543L5.29776 15.745L5.28999 15.7353C5.285 15.729 5.28 15.7228 5.275 15.7163C5.26931 15.7093 5.26402 15.702 5.25863 15.6945L5.249 15.6813C5.047 15.4013 4.906 15.0373 4.828 14.5893C4.6 13.2413 4.325 10.8573 4.188 9.50228C3.6 9.41328 3 8.77828 3 8.09328C3 8.01628 3.008 7.94028 3.022 7.86528C3.026 7.83928 3.032 7.81328 3.038 7.78828C3.042 7.77828 3.045 7.76728 3.048 7.75628C3.135 7.43628 3.34 7.15528 3.588 6.95928C3.5965 6.95328 3.60475 6.94703 3.613 6.94078C3.62125 6.93453 3.6295 6.92828 3.638 6.92228C3.803 6.80128 3.983 6.71828 4.159 6.68428C4.167 6.62028 4.177 6.55228 4.191 6.48328C4.195 6.45929 4.2 6.43529 4.205 6.4113C4.21 6.3943 4.214 6.37728 4.218 6.36028C4.244 6.25128 4.28 6.13628 4.326 6.02128C4.399 5.83828 4.492 5.67328 4.607 5.52928C4.615 5.52028 4.623 5.51028 4.631 5.50028L4.639 5.49128L4.654 5.47328C4.872 5.21928 5.173 5.02428 5.583 4.96428H9.551C10.429 5.08928 10.809 5.81128 10.935 6.40728C10.955 6.49928 10.969 6.58828 10.978 6.67128C11.548 6.74128 12.14 7.44028 12.14 8.08628H12.139L12.14 8.09428C12.14 8.71428 11.559 9.44128 10.976 9.51228L10.943 9.51428L10.851 10.5543C10.816 10.9273 10.78 11.2973 10.743 11.6583L10.687 12.1913L10.655 12.4833C10.602 12.9603 10.551 13.3913 10.501 13.7693L10.442 14.1953L10.381 14.5873C10.187 15.7283 9.586 16.3723 8.47 16.3723H6.734L6.732 16.3703ZM9.785 9.51628H5.348L5.369 9.72428C5.492 10.9353 5.68 12.5083 5.845 13.6403L5.925 14.1653L5.963 14.3933C6.01 14.6683 6.069 14.8603 6.16 14.9913C6.164 14.9973 6.168 15.0033 6.172 15.0083C6.187 15.0283 6.204 15.0473 6.22 15.0633L6.20353 15.0448C6.21405 15.0563 6.2247 15.0668 6.236 15.0773C6.25126 15.0916 6.26743 15.1041 6.28364 15.1165L6.28151 15.115L6.286 15.1183C6.30098 15.1293 6.31695 15.1383 6.33293 15.1472L6.324 15.1413C6.434 15.2023 6.568 15.2203 6.733 15.2203H8.469C8.903 15.2203 9.132 15.0983 9.253 14.3903H9.245C9.458 13.1263 9.687 10.6583 9.786 9.50928L9.785 9.51628ZM6.286 15.1183L6.2886 15.1199L6.28364 15.1165L6.286 15.1183ZM6.236 15.0773L6.22101 15.0623C6.22818 15.0695 6.23555 15.0764 6.24303 15.0831L6.236 15.0773ZM6.172 15.0083L6.16884 15.0038L6.17334 15.0099L6.172 15.0083ZM4.333 7.81028H10.832L10.831 7.80828L10.838 7.81428C10.824 7.82286 10.8385 7.83936 10.8617 7.86566C10.8683 7.87308 10.8755 7.88127 10.883 7.89028C10.9477 7.96697 10.9867 8.04762 10.9949 8.08088C10.983 8.15434 10.8776 8.29979 10.806 8.35728V8.36528H4.394C4.325 8.34328 4.15 8.19828 4.15 8.07628L4.157 8.03328C4.201 7.93228 4.328 7.81028 4.333 7.81028ZM10.996 8.06828L10.9952 8.07915C10.9957 8.07531 10.996 8.07168 10.996 8.06828ZM9.41 6.10428H5.722L5.683 6.11428C5.573 6.14928 5.491 6.22828 5.425 6.35828L5.387 6.44328C5.367 6.49428 5.35 6.54628 5.336 6.59728L5.323 6.65328H9.816C9.8155 6.64978 9.81475 6.64603 9.814 6.64228C9.81325 6.63853 9.8125 6.63478 9.812 6.63128C9.797 6.56428 9.776 6.49528 9.747 6.42728C9.676 6.25628 9.585 6.15628 9.451 6.11428L9.41 6.10428ZM9.474 1.51228C9.786 1.53528 10.022 1.80928 9.999 2.12128C9.99725 2.144 9.99474 2.16901 9.99213 2.19498L9.991 2.20628L9.99138 2.20093C9.96539 2.47125 9.87803 2.77816 9.725 3.09228C9.701 3.14028 9.687 3.19128 9.68 3.24228C9.678 3.26228 9.676 3.28228 9.676 3.30328C9.677 3.34428 9.681 3.38228 9.688 3.41528L9.71 3.50128L9.721 3.53328C9.866 3.81328 9.756 4.15828 9.475 4.30228C9.41 4.33528 9.342 4.35528 9.274 4.36328L9.25605 4.36464L9.267 4.36428L9.26443 4.3645C9.25342 4.36542 9.24313 4.36628 9.232 4.36628H9.206C9.002 4.36328 8.806 4.25128 8.706 4.05728C8.678 4.00228 8.644 3.92328 8.614 3.82328C8.507 3.47428 8.495 3.09628 8.639 2.72428L8.644 2.71328C8.661 2.66828 8.681 2.62228 8.704 2.57728L8.71384 2.5563L8.72766 2.52675L8.701 2.58628C8.782 2.42028 8.829 2.26728 8.848 2.14428L8.857 2.05828C8.867 1.81728 9.025 1.61828 9.24 1.54328C9.2455 1.54128 9.25125 1.53953 9.257 1.53778C9.26275 1.53603 9.2685 1.53428 9.274 1.53228C9.28133 1.52961 9.28955 1.52784 9.29778 1.52606L9.31 1.52328C9.363 1.51128 9.418 1.50728 9.474 1.51128V1.51228ZM8.744 2.49028L8.72766 2.52675C8.73337 2.51441 8.73887 2.50226 8.744 2.49028Z" fill="currentColor"/>
</svg>
