<svg viewBox="0 0 16 17" fill="none" xmlns="http://www.w3.org/2000/svg">
<path fill-rule="evenodd" clip-rule="evenodd" d="M8.008 0.441406C12.422 0.441406 16 4.01841 16 8.43341C16 12.8484 12.414 16.4334 8 16.4334C3.586 16.4334 0 12.8474 0 8.43341C0 7.61241 0.123 6.80841 0.369 6.03741L0.339741 6.00268C0.266333 5.91584 0.191105 5.82685 0.147 5.72541C-0.001 5.39741 -0.009 5.02841 0.122 4.68341L0.393 3.98641C0.45 3.83041 0.565 3.70741 0.713 3.64141C0.795 3.60841 0.885 3.59241 0.967 3.59241L1.205 2.96841C1.287 2.75541 1.533 2.64841 1.738 2.73041C1.951 2.81241 2.058 3.05041 1.976 3.26341L1.754 3.84641L2.131 3.99441L2.344 3.43641C2.426 3.22341 2.672 3.11641 2.877 3.19841C3.09 3.28041 3.197 3.51841 3.115 3.73141L2.861 4.38741C2.984 4.55141 3.033 4.76441 2.951 4.97041L2.68 5.66741C2.483 6.17641 2.024 6.48841 1.515 6.52941C1.334 7.14441 1.236 7.78441 1.236 8.44141C1.236 12.1744 4.272 15.2024 8.005 15.2024C11.738 15.2024 14.774 12.1664 14.774 8.43341C14.774 4.70041 11.738 1.66441 8.005 1.66441C7.34 1.66441 6.692 1.75441 6.069 1.94341C5.741 2.04141 5.404 1.86141 5.306 1.53341C5.208 1.21341 5.388 0.868406 5.716 0.770406C6.463 0.557406 7.226 0.442406 8.005 0.442406L8.008 0.441406ZM10.494 4.75741C11.036 4.75741 11.429 5.18441 11.429 5.74241C11.429 6.02941 11.306 6.30041 11.076 6.50541C10.895 6.66941 10.616 6.65341 10.461 6.47241C10.297 6.29141 10.313 6.01241 10.494 5.85741C10.56 5.80041 10.56 5.75941 10.56 5.74241C10.56 5.67641 10.519 5.62741 10.519 5.62741H9.953L10.248 6.31641C10.251 6.31941 10.253 6.32241 10.254 6.32641L10.256 6.34141L10.732 7.44041C10.904 7.39941 11.077 7.37441 11.257 7.37441L11.397 7.37941C12.644 7.45941 13.629 8.50441 13.629 9.77041C13.629 10.4024 13.383 11.0014 12.932 11.4524C12.489 11.9034 11.89 12.1494 11.258 12.1494L11.118 12.1444C9.871 12.0644 8.886 11.0194 8.886 9.75341C8.894 8.92441 9.313 8.20241 9.944 7.77641L9.813 7.46441L8.377 9.96741C8.37437 9.97004 8.37076 9.97267 8.36711 9.97533C8.35966 9.98078 8.352 9.98637 8.352 9.99241C8.348 10.0004 8.34175 10.0067 8.3365 10.0119C8.33125 10.0172 8.327 10.0214 8.327 10.0254L8.302 10.0584L8.29799 10.0604C8.28324 10.0677 8.26833 10.0752 8.261 10.0834C8.253 10.0924 8.245 10.0994 8.236 10.0994C8.22 10.1154 8.203 10.1244 8.187 10.1324C8.17763 10.1324 8.17066 10.1379 8.16488 10.1424C8.1608 10.1457 8.15731 10.1484 8.154 10.1484L8.111 10.1624C8.081 10.1694 8.048 10.1734 8.015 10.1734H7.08C6.998 10.6494 6.768 11.0924 6.424 11.4374C5.973 11.8884 5.374 12.1344 4.742 12.1344V12.1424C3.429 12.1424 2.363 11.0674 2.363 9.74641C2.371 9.10641 2.617 8.50741 3.069 8.05641C3.521 7.60541 4.119 7.35941 4.751 7.35941L4.926 7.36641C5.157 7.38441 5.376 7.43641 5.58 7.51541L6.327 6.26841L6.36 6.22741L6.393 6.17841C6.401 6.17041 6.418 6.16241 6.418 6.16241L6.484 6.12141C6.49041 6.1182 6.49698 6.11227 6.50358 6.10631C6.51346 6.09739 6.52341 6.08841 6.533 6.08841H6.566C6.591 6.07241 6.615 6.07241 6.64 6.07241C6.665 6.07241 6.697 6.06441 6.697 6.06441H9.208L8.904 5.36741C8.847 5.23641 8.855 5.08041 8.937 4.95741C9.019 4.83441 9.15 4.76041 9.298 4.76041H10.496L10.494 4.75741ZM5.284 8.06341C5.423 7.85841 5.694 7.81741 5.883 7.96541L5.885 7.96441C6.073 8.11241 6.114 8.39941 5.975 8.60441L5.532 9.25241H6.435C6.673 9.25241 6.862 9.46641 6.862 9.71241C6.862 9.96641 6.673 10.1634 6.435 10.1634H4.687C4.604 10.1634 4.531 10.1224 4.465 10.0814C4.456 10.0814 4.448 10.0814 4.44 10.0734C4.43396 10.0734 4.42837 10.0657 4.42293 10.0583C4.42026 10.0546 4.41763 10.051 4.415 10.0484C4.391 10.0314 4.374 10.0074 4.358 9.98241L4.35428 9.97661C4.33956 9.95368 4.3253 9.93147 4.317 9.90841C4.308 9.88341 4.3 9.85941 4.292 9.82641L4.276 9.73641V9.70341C4.276 9.68741 4.276 9.67041 4.284 9.65441L4.276 9.64641C4.276 9.64641 4.276 9.59741 4.292 9.57241C4.29916 9.54377 4.31353 9.51433 4.32793 9.48481L4.333 9.47441C4.333 9.46641 4.341 9.44941 4.349 9.43341L5.284 8.06341ZM10.946 7.92441C10.839 7.69441 10.585 7.59641 10.372 7.71141C10.159 7.82641 10.068 8.11341 10.175 8.34341L10.872 9.89441C10.946 10.0584 11.102 10.1574 11.258 10.1574C11.324 10.1574 11.389 10.1414 11.447 10.1084C11.66 9.99341 11.751 9.70641 11.644 9.47641L10.947 7.92541L10.946 7.92441ZM6.614 7.45641H6.622L7.36 9.30341H7.081C6.983 8.76941 6.704 8.30241 6.31 7.95741L6.614 7.45641ZM9.123 6.91541H7.343L8.073 8.74541L9.123 6.91541ZM7.803 5.36441C7.803 5.13541 7.623 4.95441 7.393 4.95441H6.162C5.933 4.95441 5.752 5.13541 5.752 5.36441C5.752 5.59341 5.932 5.77441 6.162 5.77441H7.393C7.622 5.77441 7.803 5.59341 7.803 5.36441Z" fill="currentColor"/>
</svg>
