<svg viewBox="0 0 16 17" fill="none" xmlns="http://www.w3.org/2000/svg">
<path fill-rule="evenodd" clip-rule="evenodd" d="M8.007 1.70898C10.496 1.70898 12.473 3.25098 13.114 5.67098L13.106 5.67898C14.747 6.37398 15.999 8.17498 15.999 9.92299C15.999 12.343 14.075 14.312 11.709 14.312H8.549L8.55389 14.344C8.56728 14.431 8.58 14.5137 8.58 14.602C8.58 15.701 7.679 16.602 6.58 16.602C5.481 16.602 4.58 15.709 4.58 14.602C4.58 14.503 4.595 14.404 4.611 14.312H3.672C1.649 14.312 0 12.625 0 10.556C0 8.92999 1.046 7.45698 2.496 6.93798C2.717 4.01398 5.107 1.70898 8.007 1.70898ZM6.587 13.74C6.114 13.74 5.732 14.122 5.732 14.595C5.732 15.068 6.114 15.45 6.587 15.45C7.06 15.45 7.442 15.068 7.442 14.595C7.442 14.122 7.06 13.74 6.587 13.74ZM3.64 7.30499C3.671 4.83898 5.625 2.84698 8.022 2.84698L8.021 2.84798C10.082 2.84798 11.639 4.13798 12.082 6.21398C12.128 6.41198 12.273 6.57198 12.464 6.64099C13.792 7.07598 14.876 8.54998 14.876 9.91599C14.876 11.702 13.464 13.16 11.731 13.16H7.983C7.8 12.984 7.594 12.839 7.357 12.74C7.342 12.74 7.319 12.733 7.304 12.725C7.205 12.687 7.098 12.649 6.991 12.626C6.861 12.603 6.731 12.588 6.594 12.588C6.457 12.588 6.327 12.603 6.197 12.626C6.09 12.649 5.991 12.68 5.884 12.718C5.86469 12.718 5.85101 12.7229 5.83351 12.7292L5.823 12.733C5.634 12.812 5.459 12.921 5.307 13.051L5.197 13.153H3.678C2.288 13.153 1.151 11.985 1.151 10.542C1.151 9.31299 1.983 8.21399 3.105 7.93899C3.25 7.92399 3.387 7.85499 3.487 7.74799C3.587 7.64099 3.64 7.49598 3.64 7.34298V7.30499ZM11.961 8.86999C12.144 8.86999 12.305 8.90099 12.45 8.96899C12.587 9.03799 12.702 9.13699 12.778 9.25899C12.854 9.38099 12.892 9.51899 12.892 9.67899C12.892 9.83199 12.869 9.96099 12.816 10.068C12.77 10.175 12.709 10.266 12.633 10.343C12.564 10.419 12.465 10.503 12.343 10.603L12.335 10.611L11.854 11H12.9V11.466H11.037V11L12.006 10.214C12.09 10.145 12.151 10.092 12.197 10.046C12.243 9.99998 12.281 9.95399 12.311 9.89299C12.342 9.83199 12.357 9.76299 12.357 9.69498C12.357 9.58799 12.319 9.50398 12.25 9.43499C12.174 9.36598 12.082 9.33599 11.96 9.33599C11.815 9.33599 11.716 9.37399 11.647 9.46599C11.586 9.55799 11.548 9.67199 11.548 9.80198H11.006C11.006 9.64198 11.037 9.48899 11.105 9.34399C11.166 9.20698 11.273 9.09199 11.418 8.99999C11.563 8.91599 11.746 8.86999 11.96 8.86999H11.961ZM9.923 7.67099C9.686 7.53299 9.404 7.45698 9.091 7.45698C8.778 7.45698 8.496 7.52599 8.259 7.67099C8.015 7.81599 7.831 8.00699 7.702 8.25899C7.573 8.51099 7.504 8.80099 7.504 9.12899C7.504 9.45799 7.572 9.73999 7.702 9.99199C7.832 10.244 8.022 10.435 8.259 10.572C8.503 10.709 8.778 10.778 9.091 10.778C9.404 10.778 9.686 10.709 9.923 10.572C10.16 10.435 10.343 10.244 10.473 9.99199C10.603 9.73999 10.664 9.45699 10.664 9.12899C10.664 8.80099 10.603 8.51899 10.473 8.25899C10.343 7.99899 10.16 7.80899 9.923 7.67099ZM5.778 7.45698C6.16 7.45698 6.473 7.56398 6.717 7.77799C6.961 7.99199 7.122 8.27399 7.183 8.64099H6.519C6.458 8.44999 6.374 8.30499 6.252 8.20599C6.138 8.10699 5.97 8.05299 5.779 8.05299C5.588 8.05299 5.428 8.10599 5.29 8.19799L5.282 8.18299C5.145 8.27499 5.038 8.40399 4.969 8.56499C4.9 8.72599 4.862 8.90099 4.862 9.09899C4.862 9.42699 4.938 9.68699 5.099 9.87799C5.26 10.069 5.481 10.168 5.771 10.168C5.969 10.168 6.13 10.115 6.252 10.008C6.374 9.90899 6.466 9.75599 6.512 9.56499H7.153C7.122 9.80899 7.046 10.015 6.932 10.199C6.818 10.383 6.665 10.52 6.466 10.619C6.268 10.718 6.046 10.772 5.794 10.772C5.466 10.772 5.183 10.703 4.939 10.558C4.695 10.421 4.512 10.222 4.382 9.96999C4.252 9.71799 4.191 9.43599 4.191 9.11499C4.191 8.79399 4.252 8.51199 4.382 8.25999C4.512 8.01599 4.695 7.81699 4.932 7.67199C5.176 7.52699 5.451 7.45798 5.779 7.45798L5.778 7.45698ZM8.602 8.18999C8.739 8.09899 8.9 8.05299 9.083 8.05299C9.266 8.05299 9.418 8.09799 9.556 8.18999C9.694 8.28199 9.801 8.40399 9.877 8.57199C9.953 8.73998 9.991 8.92299 9.991 9.12899C9.991 9.33499 9.953 9.52599 9.877 9.68599C9.8 9.84599 9.693 9.96799 9.556 10.052C9.419 10.136 9.259 10.182 9.083 10.182C8.907 10.182 8.74 10.136 8.602 10.052C8.464 9.96799 8.357 9.83899 8.281 9.68599C8.205 9.52599 8.167 9.34199 8.167 9.12899C8.167 8.91599 8.205 8.73199 8.281 8.57199C8.358 8.41098 8.465 8.28099 8.602 8.18999Z" fill="currentColor"/>
</svg>
