<svg viewBox="0 0 16 17" fill="none" xmlns="http://www.w3.org/2000/svg">
<path fill-rule="evenodd" clip-rule="evenodd" d="M8.004 0.0410156C11.875 0.0410156 15.028 3.19402 15.028 7.06502C15.028 7.95502 14.802 8.87602 14.521 9.63202C14.583 9.61602 14.646 9.60902 14.716 9.60902C15.403 9.60902 16.004 10.163 16.004 10.787C16.004 13.565 15.255 15.071 11.322 15.071C10.105 15.071 9.363 14.603 9.02 14.002C8.684 14.049 8.341 14.08 8.006 14.08C7.671 14.08 7.327 14.049 6.992 14.002C6.641 14.595 5.907 15.063 4.69 15.063H4.682C0.749 15.063 0 13.557 0 10.779C0 10.155 0.601 9.60102 1.288 9.60102C1.35 9.60102 1.413 9.60902 1.467 9.61702C1.147 8.80502 0.983 7.93102 0.983 7.05002C0.983 3.17902 4.136 0.0420156 8.007 0.0420156L8.004 0.0410156ZM12.983 10.373C12.741 10.373 12.491 10.584 12.491 10.787C12.491 10.7985 12.487 10.8083 12.483 10.818C12.479 10.8278 12.475 10.8375 12.475 10.849C12.483 10.872 12.491 10.919 12.491 10.919V11.411C12.491 11.63 12.319 11.801 12.101 11.801L12.03 11.795C11.846 11.762 11.711 11.605 11.711 11.411V10.919L11.727 10.857C11.719 10.834 11.711 10.81 11.711 10.787C11.711 10.576 11.477 10.373 11.227 10.373C10.977 10.373 10.735 10.56 10.735 10.755V11.738C10.735 11.847 10.688 11.957 10.61 12.027C10.532 12.105 10.415 12.128 10.313 12.128H10.297C10.242 12.128 10.008 12.144 9.829 12.308C9.65 12.472 9.564 12.753 9.564 13.151C9.564 13.697 10.024 14.283 11.32 14.283C14.84 14.283 15.222 13.159 15.222 10.779C15.222 10.584 14.964 10.381 14.715 10.381C14.489 10.381 14.247 10.615 14.247 10.834V11.38C14.247 11.599 14.075 11.77 13.857 11.77C13.639 11.77 13.467 11.598 13.467 11.38V10.834C13.467 10.615 13.209 10.374 12.983 10.374V10.373ZM4.297 10.787C4.297 10.576 4.539 10.373 4.781 10.373C5.023 10.373 5.273 10.56 5.273 10.755V11.738C5.273 11.847 5.32 11.949 5.398 12.019C5.476 12.089 5.594 12.136 5.695 12.12C5.695 12.12 5.976 12.104 6.179 12.299C6.358 12.463 6.444 12.752 6.444 13.142C6.444 13.689 5.983 14.274 4.688 14.274C1.168 14.274 0.786 13.15 0.786 10.77C0.786 10.575 1.043 10.372 1.293 10.372V10.38C1.519 10.38 1.761 10.614 1.761 10.833V11.379C1.761 11.597 1.933 11.769 2.151 11.769C2.369 11.769 2.541 11.598 2.541 11.379V10.833C2.541 10.615 2.791 10.373 3.025 10.373C3.267 10.373 3.517 10.584 3.517 10.787C3.517 10.8055 3.52217 10.8195 3.52834 10.8362L3.533 10.849L3.517 10.919V11.411C3.517 11.605 3.652 11.762 3.836 11.795L3.907 11.801C4.101 11.801 4.258 11.666 4.291 11.482L4.297 11.411V10.919C4.297 10.9005 4.29184 10.8866 4.28566 10.8699L4.281 10.857L4.297 10.787ZM8.012 1.18802C4.781 1.18802 2.159 3.81002 2.159 7.04102C2.159 7.95402 2.378 8.85202 2.783 9.66302C3.181 9.58502 3.618 9.67102 3.907 9.93602C4.141 9.71702 4.453 9.58502 4.781 9.58502C5.468 9.58502 6.053 10.116 6.053 10.748V11.38C6.256 11.427 6.49 11.52 6.701 11.716C6.982 11.981 7.146 12.356 7.2 12.832C7.731 12.91 8.277 12.902 8.808 12.832C8.855 12.356 9.019 11.981 9.307 11.716C9.526 11.521 9.76 11.427 9.955 11.38V10.748C9.955 10.116 10.54 9.58502 11.227 9.58502C11.555 9.58502 11.867 9.72502 12.101 9.93602C12.39 9.66302 12.827 9.58502 13.225 9.66302C13.607 8.82802 13.857 7.82902 13.857 7.04902C13.857 3.81802 11.235 1.19602 8.004 1.19602L8.012 1.18802ZM9.759 9.39702C9.759 9.07702 9.494 8.81202 9.174 8.81202H6.817C6.497 8.81202 6.232 9.07702 6.232 9.39702C6.232 9.71702 6.497 9.98202 6.817 9.98202H9.174C9.494 9.98202 9.759 9.71702 9.759 9.39702ZM8.847 5.40202C9.12 5.22302 9.479 5.30102 9.659 5.56602C9.799 5.78502 10.119 5.98002 10.486 6.07302C10.978 6.19802 11.54 6.14302 11.719 6.01102C11.984 5.81602 12.351 5.87802 12.538 6.13602C12.733 6.40102 12.671 6.76802 12.413 6.95502C12.062 7.21302 11.562 7.31402 11.071 7.31402C10.759 7.31402 10.454 7.27502 10.197 7.20502V7.21302C9.541 7.04102 8.987 6.68202 8.683 6.21402C8.504 5.94102 8.574 5.58202 8.847 5.40202ZM7.161 5.36302C6.887 5.18402 6.528 5.25402 6.349 5.52702L6.348 5.52802C6.2 5.75402 5.872 5.95002 5.49 6.05102C4.991 6.18302 4.413 6.12902 4.226 5.99602C3.961 5.80902 3.602 5.86402 3.407 6.12902C3.22 6.39402 3.275 6.75302 3.54 6.94802C3.892 7.19802 4.383 7.29902 4.867 7.29902L4.875 7.29102C5.195 7.29102 5.507 7.25202 5.788 7.17402C6.451 7.00202 7.013 6.63502 7.325 6.17502C7.504 5.90902 7.435 5.54202 7.161 5.36302Z" fill="currentColor"/>
</svg>
