<svg viewBox="0 0 16 17" fill="none" xmlns="http://www.w3.org/2000/svg">
<path fill-rule="evenodd" clip-rule="evenodd" d="M9.136 0.396078C8.365 0.183078 7.603 0.183078 6.84 0.396078C6.586 0.470078 6.396 0.699078 6.388 0.970078L6.331 2.65108C6.184 2.74908 5.995 2.87208 5.823 2.93808C5.642 3.00308 5.38 3.04408 5.183 3.06908L3.928 1.91308C3.731 1.73308 3.436 1.70008 3.206 1.83108C2.862 2.02808 2.55 2.26508 2.288 2.53608C2.026 2.80708 1.788 3.11908 1.591 3.46308C1.46 3.70108 1.492 3.98808 1.681 4.18508L2.845 5.42308C2.821 5.62808 2.772 5.89108 2.706 6.07108C2.64 6.24308 2.517 6.43108 2.419 6.57908L0.738 6.63608C0.467 6.64408 0.238 6.82508 0.164 7.08708C0.057 7.47208 0 7.85808 0 8.23508C0 8.61208 0.057 8.99808 0.164 9.38308C0.238 9.63708 0.467 9.82608 0.738 9.83408L2.419 9.89108C2.517 10.0301 2.64 10.2271 2.706 10.3991C2.779 10.5881 2.82 10.8501 2.845 11.0471L1.681 12.2851C1.501 12.4821 1.46 12.7691 1.591 13.0071C1.788 13.3601 2.017 13.6721 2.288 13.9341C2.551 14.2041 2.862 14.4421 3.215 14.6391C3.445 14.7701 3.74 14.7371 3.937 14.5571L5.192 13.4011C5.389 13.4171 5.652 13.4581 5.832 13.5321C6.004 13.5981 6.192 13.7211 6.34 13.8191L6.397 15.5001C6.405 15.7711 6.586 16.0001 6.848 16.0741C7.233 16.1811 7.619 16.2381 7.996 16.2381C8.373 16.2381 8.759 16.1811 9.144 16.0741C9.398 16.0001 9.587 15.7711 9.595 15.5001L9.652 13.8191C9.799 13.7211 9.988 13.5981 10.16 13.5321C10.341 13.4671 10.603 13.4261 10.8 13.4011L12.055 14.5571C12.252 14.7371 12.547 14.7701 12.777 14.6391C13.121 14.4421 13.432 14.2051 13.695 13.9341C13.958 13.6631 14.195 13.3511 14.384 13.0071C14.515 12.7691 14.483 12.4821 14.294 12.2851L13.13 11.0471C13.154 10.8421 13.203 10.5791 13.269 10.3991C13.335 10.2271 13.458 10.0391 13.556 9.89108L15.237 9.83408C15.508 9.82608 15.737 9.64508 15.811 9.38308C15.918 8.99808 15.975 8.61208 15.975 8.23508C15.975 7.85808 15.918 7.47208 15.811 7.08708C15.737 6.83308 15.508 6.64408 15.237 6.63608L13.556 6.57908C13.458 6.43208 13.335 6.24308 13.269 6.07108C13.196 5.88208 13.155 5.62008 13.13 5.42308L14.294 4.18508C14.474 3.98808 14.515 3.70108 14.384 3.46308C14.187 3.11008 13.957 2.79808 13.695 2.53608C13.433 2.27408 13.121 2.03608 12.777 1.83108C12.547 1.70008 12.252 1.73308 12.055 1.91308L10.792 3.06908C10.595 3.05308 10.332 3.01208 10.152 2.93808C9.98 2.87208 9.792 2.74908 9.644 2.65108L9.587 0.970078C9.579 0.699078 9.398 0.470078 9.136 0.396078ZM7.594 1.51108C7.857 1.47808 8.103 1.47808 8.365 1.51108L8.414 3.00308C8.414 3.17508 8.496 3.33908 8.627 3.44608C8.676 3.49508 9.16 3.89708 9.701 4.10208C10.225 4.30708 10.914 4.32308 10.988 4.32308C11.144 4.32308 11.3 4.26608 11.423 4.15908L12.522 3.15008C12.629 3.23208 12.727 3.31408 12.809 3.40408C12.899 3.49408 12.981 3.59208 13.063 3.69908L12.038 4.79008C11.923 4.91308 11.866 5.07708 11.874 5.24908C11.874 5.32308 11.923 6.00308 12.12 6.52008C12.325 7.06108 12.727 7.53708 12.776 7.59408C12.891 7.72508 13.047 7.79908 13.219 7.80708L14.711 7.85608C14.728 7.98708 14.736 8.11808 14.736 8.24108C14.736 8.36408 14.727 8.49508 14.711 8.62608L13.219 8.67508C13.047 8.67508 12.883 8.75708 12.776 8.88808C12.727 8.94508 12.325 9.42108 12.12 9.96208C11.923 10.4791 11.874 11.1591 11.874 11.2331C11.866 11.4051 11.923 11.5691 12.038 11.6921L13.063 12.7831C12.981 12.8891 12.899 12.9881 12.809 13.0781C12.7236 13.1635 12.6301 13.2417 12.5371 13.3195L12.522 13.3321L11.423 12.3231C11.308 12.2161 11.152 12.1671 10.988 12.1591C10.915 12.1591 10.226 12.1831 9.701 12.3801C9.16 12.5851 8.684 12.9871 8.627 13.0361C8.496 13.1511 8.422 13.3071 8.414 13.4791L8.365 14.9711C8.102 15.0041 7.856 15.0041 7.594 14.9711L7.545 13.4791C7.545 13.3071 7.463 13.1431 7.332 13.0361C7.283 12.9871 6.799 12.5851 6.258 12.3801C5.734 12.1751 5.045 12.1591 4.971 12.1591C4.823 12.1591 4.659 12.2161 4.536 12.3231L3.437 13.3321C3.33 13.2501 3.232 13.1681 3.15 13.0781C3.06 12.9881 2.978 12.8901 2.896 12.7831L3.921 11.6921C4.036 11.5691 4.093 11.4051 4.085 11.2331C4.085 11.1591 4.036 10.4791 3.839 9.96208C3.634 9.42108 3.232 8.94508 3.183 8.88808C3.068 8.75708 2.912 8.68308 2.74 8.67508L1.248 8.62608C1.231 8.49508 1.223 8.36408 1.223 8.24108C1.223 8.11808 1.232 7.98708 1.248 7.85608L2.74 7.80708C2.912 7.80708 3.076 7.72508 3.183 7.59408C3.232 7.53708 3.634 7.06108 3.839 6.52008C4.036 6.00308 4.085 5.32308 4.085 5.24908C4.093 5.07708 4.036 4.91308 3.921 4.79008L2.896 3.69908C2.978 3.59308 3.06 3.49408 3.15 3.40408C3.2354 3.31868 3.32891 3.24048 3.42197 3.16265L3.437 3.15008L4.536 4.15908C4.651 4.26608 4.815 4.32308 4.971 4.32308C5.044 4.32308 5.733 4.29908 6.258 4.10208C6.799 3.89708 7.275 3.49508 7.332 3.44608C7.463 3.33108 7.537 3.17508 7.545 3.00308L7.594 1.51108ZM7.98 5.16008C9.677 5.16008 11.055 6.53808 11.055 8.23508C11.055 9.93208 9.677 11.3101 7.98 11.3101C6.283 11.3101 4.905 9.93208 4.905 8.23508C4.905 6.53808 6.283 5.16008 7.98 5.16008ZM6.135 8.23508C6.135 7.21808 6.963 6.39008 7.98 6.39008C8.997 6.39008 9.825 7.21808 9.825 8.23508C9.825 9.25208 8.997 10.0801 7.98 10.0801C6.963 10.0801 6.135 9.25208 6.135 8.23508Z" fill="currentColor"/>
</svg>
