<svg viewBox="0 0 16 17" fill="none" xmlns="http://www.w3.org/2000/svg">
<path fill-rule="evenodd" clip-rule="evenodd" d="M11.382 0.921438C11.793 0.807438 12.189 0.807438 12.6 0.921438C12.836 0.989438 13.011 1.20344 13.019 1.45444L13.042 2.08644C13.065 2.10144 13.088 2.11644 13.103 2.11644L13.1104 2.11904C13.1336 2.1273 13.1678 2.13944 13.202 2.13944L13.689 1.69044C13.872 1.51544 14.146 1.49244 14.359 1.61444C14.542 1.72144 14.709 1.84244 14.846 1.98744C14.983 2.13244 15.112 2.29944 15.211 2.48244C15.333 2.70344 15.295 2.96944 15.127 3.15244L14.686 3.62444C14.6904 3.64518 14.6968 3.66592 14.7029 3.68552C14.708 3.70181 14.7128 3.71737 14.716 3.73144C14.724 3.75444 14.746 3.79244 14.746 3.79244L15.378 3.81544C15.629 3.82344 15.842 3.99844 15.911 4.23444C15.964 4.44044 15.995 4.64544 15.995 4.84344C15.995 5.04144 15.965 5.24644 15.911 5.45244C15.842 5.69644 15.629 5.86344 15.378 5.87144L14.746 5.89444C14.731 5.91744 14.716 5.94044 14.716 5.95544C14.7016 5.97751 14.6937 6.02078 14.6868 6.05783L14.686 6.06244L15.127 6.53444C15.302 6.71744 15.333 6.98344 15.211 7.20444C15.112 7.38744 14.99 7.55444 14.846 7.69944C14.709 7.84444 14.542 7.96544 14.359 8.07244C14.146 8.19444 13.872 8.16344 13.689 7.99644L13.202 7.54744L13.1797 7.55206C13.1496 7.55823 13.1215 7.56401 13.103 7.57044C13.08 7.57844 13.042 7.60044 13.042 7.60044L13.019 8.23244C13.011 8.48344 12.844 8.69644 12.6 8.76544C12.394 8.81844 12.189 8.84944 11.991 8.84944C11.793 8.84944 11.588 8.81944 11.382 8.76544C11.146 8.69644 10.971 8.48344 10.963 8.23244L10.94 7.60044C10.917 7.58544 10.894 7.57044 10.879 7.57044L10.8716 7.56784C10.8484 7.55958 10.8142 7.54744 10.78 7.54744L10.293 7.99644C10.11 8.17144 9.836 8.19444 9.623 8.07244C9.44 7.96544 9.273 7.84444 9.136 7.69944C8.999 7.55444 8.87 7.38744 8.771 7.20444C8.649 6.98344 8.687 6.71744 8.855 6.53444L9.296 6.06244C9.29163 6.04169 9.28518 6.02095 9.27908 6.00134C9.27401 5.98503 9.26918 5.96951 9.266 5.95544C9.258 5.93244 9.236 5.89444 9.236 5.89444L8.604 5.87144C8.353 5.86344 8.14 5.68844 8.071 5.45244C8.018 5.25444 7.987 5.04144 7.987 4.84344C7.987 4.64544 8.017 4.44044 8.071 4.23444C8.14 3.99044 8.353 3.82344 8.604 3.81544L9.236 3.79244C9.251 3.76944 9.266 3.74644 9.266 3.73144C9.281 3.70144 9.289 3.66344 9.296 3.62444L8.855 3.15244C8.68 2.96944 8.649 2.70344 8.771 2.48244C8.87 2.29944 8.992 2.13244 9.136 1.98744C9.273 1.84244 9.44 1.72144 9.623 1.61444C9.836 1.49244 10.11 1.52344 10.293 1.69044L10.78 2.13944L10.8023 2.13481C10.8324 2.12864 10.8605 2.12286 10.879 2.11644C10.902 2.10844 10.94 2.08644 10.94 2.08644L10.963 1.45444C10.971 1.20344 11.138 0.990438 11.382 0.921438ZM5.908 6.65344C5.398 6.50844 4.896 6.50844 4.386 6.65344C4.142 6.72244 3.975 6.93544 3.967 7.18644L3.937 8.13044C3.876 8.16844 3.808 8.20744 3.739 8.23744C3.671 8.26044 3.572 8.28344 3.473 8.29844L2.757 7.63644C2.574 7.46944 2.3 7.43844 2.087 7.56044C1.858 7.68944 1.653 7.84944 1.47 8.02444C1.295 8.19944 1.142 8.41344 1.013 8.64144C0.891 8.86244 0.922 9.12844 1.097 9.31144L1.752 10.0114C1.737 10.1104 1.714 10.2094 1.691 10.2854C1.668 10.3464 1.63 10.4224 1.584 10.4834L0.64 10.5134C0.389 10.5214 0.176 10.6884 0.107 10.9324C0.038 11.1834 0 11.4424 0 11.6934C0 11.9444 0.038 12.2034 0.107 12.4544C0.176 12.6904 0.389 12.8654 0.64 12.8734L1.584 12.9034C1.622 12.9644 1.66 13.0334 1.691 13.1014C1.72038 13.1659 1.73539 13.2654 1.74965 13.3599L1.752 13.3754L1.097 14.0754C0.929 14.2584 0.891 14.5244 1.013 14.7454C1.143 14.9744 1.295 15.1874 1.47 15.3624C1.645 15.5444 1.851 15.6974 2.087 15.8264C2.3 15.9484 2.574 15.9174 2.757 15.7504L3.473 15.0884C3.572 15.1034 3.671 15.1194 3.732 15.1494C3.793 15.1724 3.869 15.2104 3.93 15.2564L3.96 16.2004C3.968 16.4514 4.135 16.6644 4.379 16.7334C4.63 16.8024 4.889 16.8404 5.14 16.8404C5.391 16.8404 5.65 16.8024 5.901 16.7334C6.145 16.6644 6.312 16.4514 6.32 16.2004L6.35 15.2564C6.411 15.2184 6.479 15.1794 6.548 15.1494C6.616 15.1264 6.715 15.1034 6.814 15.0884L7.53 15.7504C7.713 15.9174 7.979 15.9484 8.2 15.8264C8.429 15.6974 8.634 15.5374 8.817 15.3624C8.992 15.1864 9.145 14.9734 9.274 14.7454C9.396 14.5244 9.365 14.2584 9.19 14.0754L8.535 13.3754C8.55 13.2764 8.573 13.1774 8.596 13.1014C8.619 13.0404 8.657 12.9644 8.703 12.9034L9.647 12.8734C9.898 12.8654 10.111 12.6984 10.18 12.4544C10.249 12.2034 10.287 11.9444 10.287 11.6934C10.287 11.4424 10.249 11.1834 10.18 10.9324C10.111 10.6964 9.898 10.5214 9.647 10.5134L8.703 10.4834C8.665 10.4224 8.627 10.3534 8.596 10.2854C8.56662 10.221 8.55162 10.1215 8.53736 10.0271L8.535 10.0114L9.19 9.31144C9.358 9.12844 9.396 8.86244 9.274 8.64144C9.144 8.41244 8.992 8.19944 8.817 8.02444C8.641 7.84244 8.436 7.68944 8.2 7.56044C7.987 7.43844 7.713 7.46944 7.53 7.63644L6.814 8.29844C6.715 8.28344 6.616 8.26744 6.555 8.23744C6.494 8.21444 6.418 8.17644 6.357 8.13044L6.327 7.18644C6.319 6.93544 6.152 6.72244 5.908 6.65344ZM3.427 11.6934C3.427 10.7494 4.196 9.98044 5.14 9.98044C6.084 9.98044 6.853 10.7494 6.853 11.6934C6.853 12.6374 6.084 13.4064 5.14 13.4064C4.196 13.4064 3.427 12.6374 3.427 11.6934ZM10.856 4.84244C10.856 4.21044 11.366 3.70044 11.998 3.70044C12.63 3.70044 13.14 4.21044 13.14 4.84244C13.14 5.47444 12.63 5.98444 11.998 5.98444C11.366 5.98444 10.856 5.47444 10.856 4.84244Z" fill="currentColor"/>
</svg>
