<svg viewBox="0 0 16 16" fill="none" xmlns="http://www.w3.org/2000/svg">
<path d="M5.86367 16C5.12117 16 4.48266 15.7429 3.94813 15.2286C3.41362 14.7143 3.11955 14.0907 3.06591 13.3578C2.21376 13.2279 1.50464 12.8381 0.938537 12.1886C0.372434 11.5391 0.0893821 10.7775 0.0893821 9.90393C0.0893821 9.59889 0.129007 9.29749 0.208256 8.99974C0.287521 8.70197 0.406403 8.42236 0.564902 8.1609C0.376609 7.88799 0.235385 7.59274 0.141231 7.27517C0.047077 6.95761 0 6.62418 0 6.27486C0 5.38307 0.293479 4.61189 0.880436 3.96133C1.46741 3.31076 2.19411 2.93244 3.06054 2.82637C3.05459 2.80254 3.05162 2.7787 3.05162 2.75486V2.6744C3.08022 1.92596 3.36654 1.29311 3.9106 0.775855C4.45466 0.258619 5.10568 0 5.86367 0C6.29035 0 6.67053 0.083426 7.00423 0.250276C7.33793 0.417126 7.65495 0.653107 7.9553 0.958222C8.25206 0.653107 8.56669 0.417126 8.8992 0.250276C9.23172 0.083426 9.6143 0 10.0469 0C10.7965 0 11.4415 0.257728 11.982 0.773183C12.5226 1.28864 12.8071 1.91761 12.8357 2.66011V2.74057C12.8357 2.7644 12.8328 2.78823 12.8268 2.81208C13.6932 2.91815 14.4238 3.29744 15.0185 3.94995C15.6132 4.60246 15.9106 5.37743 15.9106 6.27486C15.9106 6.62418 15.862 6.95761 15.7649 7.27517C15.6678 7.59274 15.5251 7.88799 15.3367 8.1609C15.4953 8.42191 15.6156 8.70137 15.6979 8.99928C15.7801 9.29719 15.8212 9.59874 15.8212 9.90393C15.8212 10.793 15.5358 11.5599 14.9649 12.2047C14.394 12.8495 13.6795 13.2338 12.8214 13.3578C12.7678 14.0907 12.4776 14.7143 11.9508 15.2286C11.4241 15.7429 10.7894 16 10.0469 16C9.61786 16 9.23619 15.919 8.9019 15.7569C8.56759 15.5948 8.25206 15.3582 7.9553 15.0471C7.649 15.3582 7.3296 15.5948 6.99708 15.7569C6.66457 15.919 6.28677 16 5.86367 16ZM8.65248 2.78881V13.2112C8.65248 13.6016 8.78765 13.9316 9.05798 14.2012C9.32831 14.4708 9.65924 14.6056 10.0508 14.6056C10.4236 14.6056 10.7433 14.4668 11.0096 14.1891C11.276 13.9114 11.4199 13.5878 11.4414 13.2183C11.0504 13.1361 10.6896 12.9874 10.3589 12.7723C10.0282 12.5572 9.74241 12.2816 9.50166 11.9455C9.38248 11.7822 9.33756 11.6084 9.36689 11.4241C9.3962 11.2397 9.49297 11.09 9.65718 10.9748C9.82047 10.8556 9.99541 10.8107 10.182 10.84C10.3686 10.8693 10.5202 10.9661 10.6368 11.1303C10.8291 11.41 11.0738 11.6241 11.371 11.7727C11.6682 11.9213 11.9896 11.9956 12.3352 11.9956C12.918 11.9956 13.4123 11.7927 13.8181 11.3868C14.2239 10.981 14.4268 10.4867 14.4268 9.90393C14.4268 9.78672 14.4155 9.66952 14.3929 9.55233C14.3702 9.43513 14.3344 9.31992 14.2856 9.2067C14.0222 9.38546 13.7317 9.52252 13.4141 9.61786C13.0965 9.71321 12.7666 9.76088 12.4246 9.76088C12.227 9.76088 12.0614 9.69405 11.9278 9.56037C11.7942 9.42667 11.7274 9.26102 11.7274 9.0634C11.7274 8.86576 11.7942 8.7002 11.9278 8.56673C12.0614 8.43325 12.227 8.36651 12.4246 8.36651C13.0074 8.36651 13.5017 8.1636 13.9075 7.75778C14.3133 7.35197 14.5162 6.85767 14.5162 6.27486C14.5162 5.70134 14.3163 5.21471 13.9164 4.815C13.5166 4.41526 13.0312 4.20467 12.4603 4.18321C12.3018 4.46806 12.093 4.71655 11.8337 4.92869C11.5745 5.14084 11.2852 5.30889 10.9658 5.43284C10.7835 5.50196 10.6055 5.49619 10.4318 5.41555C10.2581 5.33491 10.1424 5.20242 10.0845 5.01809C10.0249 4.83575 10.032 4.65668 10.1059 4.48089C10.1798 4.3051 10.3109 4.18742 10.4992 4.12783C10.7793 4.03248 11.0063 3.86325 11.1804 3.62012C11.3544 3.37698 11.4414 3.09839 11.4414 2.78435C11.4414 2.39641 11.3065 2.06776 11.0368 1.7984C10.7671 1.52905 10.437 1.39437 10.0464 1.39437C9.65584 1.39437 9.32587 1.52917 9.05651 1.79875C8.78716 2.06836 8.65248 2.39838 8.65248 2.78881ZM7.25811 13.2112V2.78881C7.25811 2.39838 7.12326 2.06836 6.85357 1.79875C6.58389 1.52917 6.25375 1.39437 5.86316 1.39437C5.47258 1.39437 5.14262 1.52917 4.87326 1.79875C4.6039 2.06836 4.46923 2.39838 4.46923 2.78881C4.46923 3.09035 4.55385 3.36507 4.72308 3.61296C4.89233 3.86086 5.117 4.03248 5.39707 4.12783C5.57942 4.18742 5.71289 4.30362 5.7975 4.47643C5.88213 4.64923 5.89515 4.82745 5.83657 5.0111C5.76629 5.19473 5.6433 5.32672 5.46758 5.40707C5.29186 5.4874 5.10985 5.49301 4.92155 5.42389C4.60214 5.29994 4.31283 5.13339 4.05362 4.92423C3.7944 4.71506 3.58553 4.46806 3.42702 4.18321C2.87163 4.20467 2.39402 4.4183 1.99416 4.82411C1.5943 5.22993 1.39437 5.71447 1.39437 6.27774C1.39437 6.85863 1.59728 7.35197 2.00311 7.75778C2.40891 8.1636 2.90322 8.36651 3.48602 8.36651C3.68357 8.36651 3.84914 8.43335 3.98276 8.56703C4.11639 8.70072 4.18321 8.86638 4.18321 9.064C4.18321 9.26164 4.11639 9.42719 3.98276 9.56067C3.84914 9.69415 3.68357 9.76088 3.48602 9.76088C3.14397 9.76088 2.81414 9.71321 2.49652 9.61786C2.1789 9.52252 1.8884 9.38546 1.62501 9.2067C1.57614 9.31992 1.54038 9.43513 1.51773 9.55233C1.4951 9.66952 1.48378 9.78672 1.48378 9.90393C1.48378 10.4867 1.68668 10.981 2.09249 11.3868C2.49831 11.7927 2.99262 11.9956 3.57541 11.9956C3.9228 11.9956 4.24414 11.9208 4.53944 11.7712C4.83471 11.6216 5.07949 11.408 5.27376 11.1303C5.39038 10.9661 5.54199 10.8693 5.7286 10.84C5.91518 10.8107 6.09012 10.8541 6.25341 10.9703C6.41668 11.0865 6.51321 11.2373 6.54301 11.4226C6.5728 11.6079 6.52811 11.7822 6.40893 11.9455C6.16223 12.2816 5.87112 12.5596 5.53561 12.7795C5.20011 12.9993 4.8369 13.1504 4.44599 13.2326C4.46745 13.6021 4.61523 13.9233 4.88934 14.1962C5.16347 14.4691 5.48697 14.6056 5.85983 14.6056C6.25136 14.6056 6.58228 14.4708 6.85261 14.2012C7.12295 13.9316 7.25811 13.6016 7.25811 13.2112Z" fill="currentColor"/>
</svg>
