<?xml version="1.0" standalone="no"?>
<!DOCTYPE svg PUBLIC "-//W3C//DTD SVG 1.1//EN" "http://www.w3.org/Graphics/SVG/1.1/DTD/svg11.dtd">
<svg xmlns="http://www.w3.org/2000/svg">
<metadata>Copyright (C) 2024 by original authors @ fontello.com</metadata>
<defs>
<font id="iconfontzurich" horiz-adv-x="1000" >
<font-face font-family="iconfontzurich" font-weight="400" font-stretch="normal" units-per-em="1000" ascent="850" descent="-150" />
<missing-glyph horiz-adv-x="1000" />
<glyph glyph-name="neurology" unicode="&#xe800;" d="M392-119q-65 0-112 45t-52 110q-75 12-124 69t-50 133q0 27 7 53 7 27 21 50-17 24-25 52-8 27-8 58 0 79 51 136 52 57 128 66-1 2-1 4v5q3 66 51 111 48 46 114 46 38 0 67-15t56-41q26 26 55 41t67 15q66 0 114-46t50-110v-5q0-2-1-4 76-9 129-67t52-136q0-31-9-58t-25-52q14-23 21-49t8-54q0-78-51-134t-125-68q-5-64-51-110-46-45-112-45-37 0-67 14t-55 42q-27-27-56-42t-67-14z m164 774v-610q0-35 23-58t58-24q33 0 57 24 23 25 25 57-34 8-63 26-30 19-51 49-10 14-8 30t17 27q15 10 31 8 17-3 27-17 17-25 43-38t56-13q52 0 87 36 36 35 36 86 0 11-2 21-2 10-6 20-24-15-51-24t-58-8q-18 0-30 12t-11 29 11 29q12 12 30 12 51 0 86 35 36 36 36 87 0 51-35 86-35 35-85 37-14-25-37-44-23-19-51-30-16-6-31 1t-21 24q-5 16 2 31t23 21q24 8 40 30t15 49q0 34-24 57t-58 24-58-24q-23-23-23-58z m-82-610v610q0 35-24 58-24 24-58 24t-58-24q-24-23-24-58 0-26 15-48 15-22 40-30 16-5 23-20 8-16 3-32-7-16-22-23-16-7-32-1-28 11-51 29t-37 44q-48-2-84-38-35-36-35-85 0-51 36-87 36-35 87-35 17 0 29-12t12-29-12-29q-12-12-29-12-30 0-58 8t-51 24q-5-10-6-20-2-10-2-21 0-51 35-86 36-36 87-36 31 0 57 13t43 38q10 14 26 17t31-8 17-26-8-31q-22-30-51-49t-64-27q2-32 26-56 24-24 57-24 34 0 58 24t24 58z" horiz-adv-x="1000" />

<glyph glyph-name="robot2" unicode="&#xe801;" d="M86-119v250q0 41 30 70t70 29h628q41 0 70-29t30-70v-250h-828z m257 426q-107 0-182 74-75 75-75 182 0 106 75 181 75 75 182 75h315q106 0 181-75 75-75 75-181t-75-182q-75-74-181-74h-315z m-174-343h662v167q0 7-5 12t-12 4h-628q-7 0-12-4t-5-12v-167z m174 425h315q72 0 123 51t50 123-50 123q-51 50-123 50h-315q-73 0-123-50-51-51-51-123 0-73 51-123 50-51 123-51z m0 126q20 0 34 14t13 34q0 20-13 34t-34 13q-21 0-34-13t-14-34 14-34 34-14z m315 0q20 0 34 14t13 34q0 20-13 34t-34 13-34-13-14-34 14-34q13-14 34-14z" horiz-adv-x="1000" />

<glyph glyph-name="menu-unfold" unicode="&#xe802;" d="M76 33c-21 0-39-18-39-40s18-38 39-38h850c21 0 38 17 38 38s-17 40-38 40h-850z m0 348c-21 0-39-17-39-39s18-38 39-38h502c22 0 39 17 39 38s-17 39-39 39h-502z m698 364h-5c-13-1-24-10-29-22-4-13-1-27 7-35l138-163-137-161c-8-8-11-20-9-31l1-5c5-12 16-21 29-22 13-2 25 4 32 13l155 185c6 6 8 13 8 21s-2 16-8 22l-154 183c-5 8-14 13-22 15h-6z m-698-17c-21 0-39-17-39-39s18-38 39-38h502c22 0 39 17 39 38s-17 39-39 39h-502z" horiz-adv-x="1000" />

<glyph glyph-name="users-change-solid" unicode="&#xe900;" d="M757 760c71 0 129-58 129-130 0-37-16-70-40-93 54-31 92-90 92-158v-71h-358v71c0 67 36 125 90 157-25 23-41 57-41 94 0 72 57 130 128 130z m-217-95c4-4 6-9 7-14l0-2c0 0 0-1 0-1v0c0-8-3-15-9-19l-72-73c-5-5-12-7-18-7-6 0-12 2-17 7-10 10-10 26 0 35l31 32-212 0c-68 0-124-53-124-118v-22c0 0 0-19-25-19-23 0-24 19-24 19v22c0 92 78 167 173 167l213 0-32 32c-10 10-10 25 0 35s25 9 35 0l74-74z m-80-685c-4 4-6 9-7 14l0 2c0 0 0 1 0 1v0c0 8 4 15 9 20l73 72c4 5 11 7 17 7 6 0 13-2 18-7 9-10 9-25 0-35l-32-32 212 0c68 0 124 53 124 118v22c0 0 0 19 25 19 23 0 24-19 24-19v-22c0-92-77-167-173-167l-213 0 33-32c9-10 9-25 0-35-10-9-26-9-35 0l-75 74z m-220 357c71 0 128-59 128-130 0-37-15-70-40-94 55-31 92-90 92-158v-70h-357v70c0 67 36 126 90 157-26 24-42 58-42 95 0 71 58 130 129 130z" horiz-adv-x="1000" />

<glyph glyph-name="users-change" unicode="&#xe901;" d="M776 791c-76 0-138-62-138-139 0-40 17-76 44-101-57-34-96-96-96-168v-76h383v76c0 73-40 136-99 169 27 25 43 61 43 100 0 77-61 139-137 139z m-76-139c0 43 34 77 76 77 41 0 75-34 75-77 0-42-34-76-75-76-42 0-76 34-76 76z m-52-269c0 72 58 131 129 131 71 0 130-59 130-131v-13h-259v13z m-105 307c4-4 6-10 7-15l0-2c0-1 0-1 0-2v0c0-8-3-16-9-21l-78-77c-5-5-12-8-19-8-6 0-13 3-18 8-11 10-11 27 0 37l34 34-228 0c-73 0-133-56-133-125v-24c0 0 0-21-26-21-25 0-27 21-27 21v24c0 98 84 178 186 178l228 0-34 34c-11 10-11 27 0 38s27 10 37 0l80-79z m-86-735c-4 4-6 10-7 15l0 2c0 1 0 1 0 2v0c0 8 3 16 9 21l78 77c5 5 12 8 19 8 6 0 13-3 19-8 10-10 10-27 0-37l-35-34 228 0c73 0 133 56 133 126v23c0 0 0 21 26 21 25 0 27-21 27-21v-23c0-99-84-179-186-179l-228 0 35-34c10-10 10-27 0-38-11-10-28-10-38 0l-80 79z m-236 383c-76 0-138-63-138-139 0-40 18-77 45-102-58-33-97-96-97-168v-75h383v75c0 73-39 136-98 169 26 25 43 61 43 101 0 76-62 139-138 139z m-75-139c0 42 34 76 75 76 42 0 76-34 76-76 0-42-34-76-76-76-41 0-75 34-75 76z m-52-270c0 72 58 131 129 131 71 0 129-59 129-131v-13h-258v13z" horiz-adv-x="1000" />

<glyph glyph-name="trash" unicode="&#xe902;" d="M644 683v14c0 7 0 16-1 22-2 0-4 0-8 0h-270c-6 0-8-1-8-1 0-1-1-8-1-13l0-22h288z m176-72h-639c8-60 21-159 35-263l6-44c18-126 35-250 43-306 11-64 45-72 73-72h325c28 0 62 8 72 72 18 113 68 488 85 613z m113 72c19 0 36-16 36-36s-17-36-36-36l-41 0c-8-54-23-172-40-293l-4-31c-17-122-34-243-43-300-13-85-66-133-143-133h-324c-79 0-131 48-144 133-18 112-68 491-86 624l-41 0c-19 0-36 16-36 36s17 36 36 36h217v14c0 78 44 94 81 94h271c81 0 81-63 81-94v-14h216z" horiz-adv-x="1000" />

<glyph glyph-name="success" unicode="&#xe903;" d="M500 791c258 0 469-210 469-468s-211-469-469-469c-258 0-469 210-469 469s211 468 469 468z m0-78c-216 0-391-175-391-390s175-391 391-391c216 0 391 175 391 391s-175 390-391 390z m251-193c13 14 35 15 50 2s15-35 2-49l-347-382c-6-7-15-11-24-11l-2 0c-9 0-17 3-24 9l-208 191c-14 13-15 34-2 49s35 15 49 2l185-166z" horiz-adv-x="1000" />

<glyph glyph-name="bar-chart" unicode="&#xe904;" d="M268-74h-198c-18 0-33 15-33 33v364c0 18 15 33 33 33h198c18 0 33-15 33-33v-364c0-18-15-33-33-33z m-165 66h132v298h-132v-298z m496-66h-198c-18 0-33 15-33 33v530c0 18 15 33 33 33h198c18 0 33-15 33-33v-530c0-18-15-33-33-33z m-165 66h132v463h-132v-463z m496-66h-198c-18 0-33 15-33 33v727c0 18 15 33 33 33h198c19 0 34-15 34-33v-727c0-18-15-33-34-33z m-165 66h132v661h-132v-661z" horiz-adv-x="1000" />

<glyph glyph-name="pie-chart" unicode="&#xe905;" d="M428 286c20 0 36-16 36-36v-360c0-10-4-19-10-26s-16-10-26-10h0c-219 2-396 180-397 396 0 10 4 19 11 26s16 10 26 10h360z m-36-72h-287c17-148 137-268 287-286v286z m180 577c219 0 397-178 397-396s-178-397-397-397c-20 0-36 16-36 36v325h-325c-19 0-36 16-36 36 0 218 178 396 397 396z m0-72c-167 0-304-126-323-288h323c20 0 36-17 36-36v-323c162 18 289 156 289 323 0 179-146 324-325 324z" horiz-adv-x="1000" />

<glyph glyph-name="pie-chart-solid" unicode="&#xe906;" d="M427 286c20 0 37-16 37-36v-360c0-10-4-19-11-26s-16-10-26-10l-12 0c-212 8-384 184-384 396 0 10 4 19 11 26s16 10 25 10h360z m145 505c219 0 397-178 397-396s-178-397-397-397c-20 0-36 16-36 36v325h-324c-20 0-36 16-36 36 0 218 177 396 396 396z" horiz-adv-x="1000" />

<glyph glyph-name="overlapping-solid" unicode="&#xe907;" d="M968 538c0-140-113-253-254-253-54 0-106 17-149 49 43 59 68 129 68 203s-26 148-68 205c43 32 95 49 150 49 140 0 254-113 254-253h-1z m-683 252c140 0 254-113 254-253 0-55-18-106-50-149-59 43-129 67-203 67s-147-25-205-67c-32 43-49 94-49 149 0 140 113 253 254 253h-1z m-254-682c0 139 114 253 254 253 55 0 106-18 149-50-43-59-67-128-67-202s25-147 67-205c-43-32-94-50-149-50-140 0-254 113-254 253v1z m683-253c-139 0-253 114-253 254 0 54 18 105 49 149 59-43 131-67 204-67s147 25 204 67c32-43 50-94 50-149 0-139-114-253-254-253l0-1z" horiz-adv-x="1000" />

<glyph glyph-name="bar-chart-solid" unicode="&#xe908;" d="M70 356h198c19 0 33-15 33-33v-364c0-19-14-33-33-33h-198c-19 0-33 14-33 33v364c0 18 14 33 33 33z m331 166h198c19 0 33-15 33-33v-530c0-19-14-33-33-33h-198c-19 0-33 14-33 33v530c0 18 14 33 33 33z m331 197h198c19 0 34-14 34-33v-727c0-19-15-33-34-33h-198c-18 0-33 14-33 33v727c0 19 15 33 33 33z" horiz-adv-x="1000" />

<glyph glyph-name="line-chart" unicode="&#xe909;" d="M80 637c19 0 35-15 35-35v-524h805c19 0 35-16 35-35s-16-35-35-35h-840c-19 0-35 16-35 35v559c20 20 16 35 35 35z m830-45c8-8 11-20 9-32l-35-174c-2-13-11-23-24-27s-25 0-35 9l-10 10-185-183c-14-13-36-13-50 0l-115 114-150-151c-5-5-12-8-19-9l-6-1v0c-9 0-18 3-25 10l-70 70c-13 13-13 36 0 49l245 245c14 14 36 14 50 0l115-115 91 90-11 11c-9 9-12 22-9 35 4 12 14 21 27 24l175 35c12 2 23-1 32-10z m-70-69l-63-12c5-13 2-28-8-38l-140-140c-13-13-36-13-49 0l-115 116-196-196 21-21 150 151c14 14 36 14 50 0l115-114 185 183c10 11 25 13 38 8l12 63z" horiz-adv-x="1000" />

<glyph glyph-name="line-chart-solid" unicode="&#xe90a;" d="M80 637c19 0 35-15 35-35v-524h805c19 0 35-16 35-35s-16-35-35-35h-840c-19 0-35 16-35 35v559c0 20 16 35 35 35z m791-70c4 1 8 0 11-3h-1c3-2 4-6 3-10l-33-165c-1-4-4-7-8-8-4-1-8 0-11 3l-26 25-195-188c-4-4-12-4-16 0l-127 123-161-158c-2-2-5-3-8-3s-8 3-8 3l-68 66c-4 4-4 11 0 15l237 231c4 4 12 4 16 0l127-124 120 116-26 26c-3 2-4 7-3 10 1 4 4 7 9 8l168 33z" horiz-adv-x="1000" />

<glyph glyph-name="overlapping" unicode="&#xe90b;" d="M969 502c0 159-130 289-290 289-66 0-128-23-179-64-49 40-111 63-179 63-160 0-290-130-290-289 0-66 23-128 63-178-39-50-63-112-63-180 0-159 131-289 290-289 66 0 128 23 179 64 50-40 112-63 179-63 160 0 290 130 290 289 0 66-23 127-63 178 39 50 63 112 63 180z m-78 0c0-117-95-211-212-211-46 0-88 15-124 41 36 49 56 107 56 169s-21 123-56 191c36 6 79 21 125 21 116 0 211-95 211-211h0z m-570 210c117 0 211-95 211-211 0-45-15-89-41-125-50 36-108 57-170 57s-122-21-170-56c-27 36-42 79-42 124 0 117 95 211 212 211v0z m-212-569c0 117 95 211 212 211 45 0 88-15 124-41-36-49-56-107-56-169s21-123 56-171c-36-27-79-42-124-42-117 0-212 95-212 211v1z m570-210c-116 0-211 95-211 211 0 45 15 88 41 124 49-36 109-56 170-56s123 21 171 56c26-36 41-79 41-125 0-117-95-211-212-211v1z" horiz-adv-x="1000" />

<glyph glyph-name="car-fleet" unicode="&#xe90c;" d="M806 554c-33 27-150 112-292 112-67 0-128-20-186-40-77-31-139-73-141-75-9-6-14-16-14-27v-73c-30-17-50-30-51-31-9-6-14-17-14-27v-82c-29-15-49-27-51-28-9-6-15-17-15-28v-128c0-56 50-83 84-83h20c14-38 50-65 92-65s79 27 92 65h241c14-38 50-65 92-65s79 27 92 65h72c18 0 33 15 33 33v82c0 5-1 10-3 16h3c18 0 33 15 33 33v86c0 3 0 7-1 12h34c18 0 32 15 32 33v86c1 28-9 117-151 129h-1z m-633-179c21 14 64 39 113 59 53 18 106 35 162 35 140 0 257-101 258-102 6-5 13-8 20-8 46-3 102-16 101-66v-53h-16c-25 22-67 44-133 49-30 30-129 115-276 115-92 0-148-25-203-49 0 0 0 0-1 0-9-4-17-7-25-11v31z m181-85h-44c-26 0-42 11-51 20 41 17 82 29 143 29v-49c-18 0-34 0-48 0v0z m113 41c41-9 76-25 103-41-37 0-71 0-103 0v41z m-229-287c-18 0-33 15-33 33s15 33 33 33c18 0 32-15 32-33s-14-33-32-33z m425 0c-18 0-33 15-33 33s15 33 33 33c18 0 33-15 33-33s-15-33-33-33z m131 66h-39c-13 38-50 65-92 65s-79-27-92-65h-241c-14 38-50 65-92 65s-79-27-92-65h-20c-3 0-19 2-19 17v109c19 11 52 30 90 47 14-21 47-58 113-58h44c62-1 171-1 297 0 119 0 142-66 143-66v-49z m98 262h-28c-21 24-58 46-124 52-33 26-149 111-292 111-67 0-128-19-186-40-8-3-17-7-25-10v22c22 13 65 39 114 58 53 19 105 36 162 36 140 0 256-102 258-102 5-5 12-8 19-9 47-2 102-15 102-65v-53l0 0z" horiz-adv-x="1000" />

<glyph glyph-name="ship" unicode="&#xe90d;" d="M875-71c-16 0-32 3-47 8 78 109 122 239 122 373 0 17-12 32-28 37l-85 22v96c0 99-58 164-150 175v114c0 20-17 37-37 37h-300c-20 0-37-17-37-37v-115c-91-12-150-79-150-176v-95l-85-22c-16-4-28-19-28-36 0-134 43-265 122-373-15-5-30-8-47-8-20 0-37-17-37-38s17-37 37-37c60 0 117 23 159 66 11 10 20 22 29 34 40-60 109-100 187-100 60 0 117 23 159 66 10 10 20 22 28 34 41-60 110-100 188-100 20 0 37 17 37 37s-17 38-37 38v0z m-262 787v-75h-225v75h225z m-375-253c0 66 37 103 103 103h322c65 0 99-35 99-101v-77l-252 65c0 0-3 0-4 0-2 0-4 1-6 1s-4-1-6-1c-1 0-2 0-3 0l-253-65v75z m112-384c0 21-17 38-37 38s-38-17-38-38c0-1 0-3 0-4-1-37-16-71-40-97-65 89-103 195-109 304l337 87v-434c-25 6-49 19-68 38-29 29-44 66-44 106h-1z m375 0c0 21-17 38-38 38s-37-17-37-38c0-1 0-3 0-4-2-68-49-124-112-140v433l336-87c-5-109-44-215-109-303-25 27-40 63-40 101h0z" horiz-adv-x="1000" />

<glyph glyph-name="danger" unicode="&#xe90e;" d="M896 323c0 218-177 395-396 395s-396-177-396-395 177-396 396-396c219 0 396 177 396 396z m73 0c0-259-210-469-469-469-259 0-469 210-469 469 0 258 210 468 469 468 259 0 469-210 469-468z m-781 13c0-22 17-39 39-39h546c22 0 40 17 40 39s-18 39-40 39h-546c-22 0-39-18-39-39z" horiz-adv-x="1000" />

<glyph glyph-name="taxi" unicode="&#xe90f;" d="M633 756c19 0 34-16 34-34v-66h33c92 0 166-69 166-153v-81h67c18 0 33-15 33-33s-15-33-33-33h-34c21-28 34-62 34-100v-167c0-18-15-33-33-33v-68c0-54-43-99-99-99s-101 45-101 99v68h-400v-68c0-54-42-99-99-99s-101 45-101 99v68c-18 0-33 15-33 33v167c0 38 13 72 34 100h-34c-18 0-33 15-33 33s15 33 33 33h67v81c0 84 74 153 166 153h33v66c0 18 16 34 34 34h266z m-399-700h-67v-68c0-17 15-32 32-32 20 0 35 15 35 32v68z m599 0h-66v-68c0-17 14-32 32-32 19 0 34 15 34 32v68z m-66 300h-533c-56 0-100-45-100-100v-133h732v133c0 55-44 100-99 100z m-533-33c36 0 66-30 66-67s-30-67-66-67c-37 0-67 30-67 67s30 67 67 67z m533 0c36 0 66-30 66-67s-30-67-66-67c-37 0-67 30-67 67s30 67 67 67z m-67 266h-400c-55 0-100-39-100-86v-84c11 2 22 3 34 3h533c11 0 22-1 33-3v84c0 48-45 86-100 86z m-100 100h-200v-33h200v33z" horiz-adv-x="1000" />

<glyph glyph-name="taxi-solid" unicode="&#xe910;" d="M701-12c0-55 44-99 100-99s98 44 98 99v0h-198v0z m-600 0c0-55 44-99 100-99s98 44 98 99v0h-198v0z m832 434h-67v80c0 84-74 153-166 153h-400c-92 0-166-69-166-153v-80h-67c-18 0-33-16-33-34s15-33 33-33h34c-21-28-34-62-34-100v-167c0-18 15-33 33-33h800c18 0 33 15 33 33v167c0 38-13 72-34 100h34c18 0 33 15 33 33s-15 34-33 34z m-733 81c0 47 45 86 100 86h400c55 0 100-39 100-86v-85c-11 3-22 4-33 4h-533c-12 0-23-1-34-4v85z m34-314c-37 0-67 30-67 66s30 67 67 67c36 0 66-30 66-67s-30-66-66-66z m533 0c-37 0-67 30-67 66s30 67 67 67c36 0 66-30 66-67s-30-66-66-66z m-100 533c0 18-16 34-34 34h-266c-18 0-33-16-33-34v-34h333v34z" horiz-adv-x="1000" />

<glyph glyph-name="station-eletric-solid" unicode="&#xe911;" d="M922 456l-144 144c-14 14-37 14-51 0s-14-37 0-50l84-85c-33-6-59-35-59-70 0-40 33-72 73-72 13 0 25 3 35 9v-330c0-22-18-40-41-40h-61c-24 0-42 18-42 40v172c0 62-51 112-114 112h-31v400c0 58-49 105-110 105h-283c-61 0-111-47-111-105v-796c0-20 16-36 36-36h433c9 0 19 3 25 10s11 16 11 26v324h30c23 0 42-18 42-40v-172c0-62 51-112 114-112h61c63 0 114 50 114 112v429c0 9-4 18-11 25h0z m-496-113l-121-195c-2-3-6-5-10-5-1 0-2 0-3 0-5 1-8 5-8 10v134h-61c-4 0-8 2-10 5s-2 7 0 11l122 231c2 4 7 6 12 5 5-1 9-5 9-11v-169h61c4 0 8-2 10-5s2-7 0-11l-1 0z" horiz-adv-x="1000" />

<glyph glyph-name="rocket" unicode="&#xe912;" d="M510 791l9-4c28-15 268-157 230-517-2-15-4-29-6-42l5-4c14-10 39-34 54-55l0 1c52-76 69-159 52-267-2-20-15-36-33-45-8-3-16-4-22-4-13 0-22 4-28 6l-5 3-135 84c-16-24-28-39-32-43l-10-12-18-2h-158l-11 13c-4 4-16 20-33 44l-140-86c-5-3-15-7-28-7-6 0-14 2-22 5-17 8-30 25-33 45-17 107-1 190 52 265 16 21 41 45 54 55l6 4c-2 13-5 27-6 41-38 361 203 503 230 518l8 4h20z m215-643c-16-54-37-101-57-140l119-73c10 98-15 150-44 192-5 7-12 15-18 21z m-449 1c-6-7-13-15-19-22-29-42-53-93-43-192l0 1 118 73c-17 33-35 74-50 120l-6 20z m225 564c-55-37-205-163-177-437 19-166 96-279 123-315h107c29 38 105 150 124 316 28 274-123 400-177 436z m-1-210c60 0 108-49 108-108s-48-109-108-109c-60 0-108 49-108 109s48 108 108 108z m0-72c-20 0-36-17-36-36s16-36 36-36c20 0 36 16 36 36s-16 36-36 36z" horiz-adv-x="1000" />

<glyph glyph-name="plane" unicode="&#xe913;" d="M500 724c59 0 66-87 67-123 0-36 0-79 0-111l318-166c9-4 17-13 17-26v-33c0-7-4-10-10-10-2 0-5 0-7 1l-318 66c0 0-9-180-18-248 0-1 0-2 2-2l82-41c32-16 34-36 34-47v-21c0-6-4-10-9-10-1 0-2 0-3 0 0 0-84 25-121 34 0 0-11-68-34-68s-34 68-34 68c-36-9-121-34-121-34-1 0-1 0-2 0-6 0-10 4-10 10v21c0 11 2 31 35 47l81 41c0 0 2 1 2 2-9 67-17 248-18 248l-317-67c-3 0-5-1-7-1-7 0-10 3-10 11v33c0 12 7 21 17 25l318 167c0 32 0 75 0 111 0 36 8 123 66 123z m0 67h0c0 0-2 0-4 0-62-2-128-52-130-190 0-17 0-36 0-54 0-6 0-11 0-17l-281-147c-33-16-54-49-54-86v-33c0-44 33-77 77-77 7 0 15 1 23 2l240 51c2-40 5-89 8-128l-42-21c-46-22-72-60-72-107v-21c0-43 34-76 77-76 6 0 12 1 18 2 1 0 3 0 4 1 0 0 28 8 58 17 23-45 56-53 78-53h0c22 0 55 8 78 53 30-8 58-16 58-17 2 0 3 0 4-1 6-1 12-2 18-2 43 0 77 34 77 76v21c0 48-26 86-73 108l-41 20c3 40 6 89 8 129l242-50c6-2 14-2 21-2 44 0 77 33 77 77v33c0 36-21 69-54 86l-282 146c0 7 0 14 0 21 0 17 0 34 0 50-1 139-69 189-133 189l0 0z" horiz-adv-x="1000" />

<glyph glyph-name="plane-solid" unicode="&#xe914;" d="M929 358l-321 167c0 14 0 29 0 45 0 18 0 36 0 53-1 90-36 168-108 168s-107-78-108-168c0-19 0-39 0-59 0-14 0-27 0-39l-323-169c-23-11-38-34-38-60v-35c0-28 20-48 47-48 5 0 10 1 16 2l301 64c0-3 0-5 0-8 2-55 7-141 13-196l-67-33c-38-18-58-47-58-84v-22c0-26 21-46 47-46 3 0 7 0 11 1 2 1 54 16 95 28 10-32 26-60 54-64l2-1h6c0 0 0 0 1 0h8l1 1c28 4 45 32 55 64 41-12 93-27 94-27 5-2 9-2 13-2 26 0 46 20 46 46v22c0 37-19 66-58 84l-66 33c5 55 10 142 13 196 0 3 0 5 0 8l302-63c5-1 10-2 15-2 27 0 47 20 47 47v36c0 26-15 49-39 61h-1z" horiz-adv-x="1000" />

<glyph glyph-name="rocket-solid" unicode="&#xe915;" d="M782 150c5-5 9-11 13-16l0-1c45-64 69-138 50-259-1-9-6-15-14-18-7-4-13-2-22 2l-131 81c34 49 76 121 104 211z m-564 0c29-90 70-161 105-210l-132-82c-8-4-14-5-22-2s-13 10-14 18c-19 121 5 195 50 260 4 5 8 11 13 16l0 0z m282 641c63-34 267-213 230-517-24-180-123-303-157-342h-146c-33 37-132 160-157 342-37 302 164 481 230 517z m0-312c-44 0-78-35-78-78s34-78 78-78c43 0 78 35 78 78s-35 78-78 78z" horiz-adv-x="1000" />

<glyph glyph-name="car-fleet-solid" unicode="&#xe916;" d="M686 113c37 0 68-31 68-69s-31-68-68-68c-38 0-69 30-69 68s31 69 69 69z m-484 0c38 0 69-31 69-69s-31-68-69-68c-37 0-68 30-68 68s31 69 68 69z m-41 199c9-18 42-74 124-74h49c36 0 84 0 142-1h54c44 1 92 1 142 1h3c147 0 172-94 172-94v-75h-46v1c-12 53-59 93-115 93s-104-40-115-93h-254c-11 53-58 93-115 93s-103-40-115-93l-12 0c-4 0-34 4-34 36v141c21 13 68 41 120 65z m281 209c163 0 299-119 301-120 4-3 9-6 14-6 59-3 128-21 127-87l0-1v-72h-36c-3 0-5 0-8-1-27 22-72 46-138 51-1 1-2 3-4 5l-7 6c-35 35-144 125-303 125-101 0-161-26-225-54-1 0-1-1-1-1-16-7-31-14-46-21v63c23 14 76 47 138 71 60 22 121 42 188 42z m-54-149l13 0v-85h-67v0h-49c-52 0-73 33-79 45 52 23 104 40 182 40z m63-6c79-13 139-51 176-79h-176v79z m65 303c164 0 299-118 301-119 4-4 9-6 15-6 58-4 128-21 126-87l1-1v-72h-49c-23 28-64 53-141 59-31 25-164 126-327 126-75 0-142-22-206-45-16-5-31-12-45-19v51c22 15 75 47 137 72 61 21 122 41 188 41z" horiz-adv-x="1000" />

<glyph glyph-name="ship-solid" unicode="&#xe917;" d="M687 754c0 20-17 37-37 37h-300c-20 0-37-17-37-37v-39h374v39z m-192-265c0 0 3 1 5 1s4-1 6-1c1 0 2 0 3 0l328-82v58c0 98-58 165-150 176h-374c-90-12-150-82-150-178v-56l328 83c0 0 3 0 4 0v-1z m379-560c-9 0-18 1-27 3 0 0 0 0 0-1-25 5-49 17-68 34 79 99 126 220 132 345l-374 95v-401c0-21-16-38-37-38s-37 17-37 38v401l-374-95c6-125 53-246 133-345-20-17-43-29-69-34 0 0 0 0 0 1-9-2-18-4-27-4-21 0-38-16-38-37s17-37 38-37c60 0 116 23 158 65 11 11 20 23 29 35 40-60 109-100 187-100 60 0 116 23 159 65 10 11 20 23 28 35 41-60 109-100 187-100 21 0 38 17 38 37s-17 37-38 37v1z" horiz-adv-x="1000" />

<glyph glyph-name="steering-wheel" unicode="&#xe918;" d="M500 791c259 0 469-210 469-468s-210-469-469-469c-259 0-469 210-469 469s210 468 469 468z m0-72c-219 0-397-178-397-396s178-397 397-397c219 0 397 178 397 397s-178 396-397 396z m0-35c200 0 362-162 362-361s-162-362-362-362c-154 0-286 97-338 234-3 4-5 10-6 16-11 35-17 73-17 112 0 199 162 361 361 361z m63-278c-34 33-91 33-124 0-31-30-72-47-113-47h-113c-1-12-2-24-2-36 0-25 3-49 9-73h100c39 0 78-15 103-40 26-25 41-64 41-104v-70c12-2 24-3 36-3s24 1 36 3v70c0 39 16 79 42 105 26 25 63 39 102 39h100c6 24 9 48 9 73 0 12 0 24-2 36h-111c-42 0-83 17-113 47z m-243-228h-70c32-55 82-99 142-124v52c0 20-8 41-20 53s-32 19-52 19z m431 0h-71c-20 0-39-6-51-18-13-13-21-35-21-54v-52c60 25 110 69 143 124z m-251 217c50 0 90-41 90-91 0-50-40-90-90-90s-90 40-90 90c0 50 40 91 90 91z m1-72c-11 0-19-9-19-19s8-18 19-18c10 0 18 8 18 18s-8 19-18 19z m-1 289h0c-122 0-226-75-269-181h95c23 0 45 9 62 26 60 60 165 60 226 0 16-17 39-26 62-26h92c-42 106-147 181-268 181z" horiz-adv-x="1000" />

<glyph glyph-name="intersection" unicode="&#xe919;" d="M801 457c-1 165-135 299-301 299s-298-134-300-298c-98-50-166-151-166-269 0-165 134-300 299-300 62 0 120 19 167 51 48-32 105-51 167-51 165 0 299 135 299 300 0 118-67 219-165 268z m-176-198c-12 50-37 96-71 133 34 19 72 31 113 31 22 0 43-4 63-10-12-65-51-120-105-154v0z m-125-232c-35 36-57 83-63 135 20-4 42-7 64-7s43 3 63 7c-6-52-28-99-64-135z m-229 386c20 6 41 9 63 9 41 0 79-11 112-30-34-37-59-83-71-133-53 34-92 89-104 154v0z m229-191c-21 0-42 4-62 10 8 47 31 88 62 120 32-32 54-74 62-120-20-6-40-10-62-10h0z m0 467c120 0 218-91 231-207-20 5-42 8-64 8-62 0-119-19-167-51-47 32-105 51-166 51-22 0-44-3-64-8 13 116 111 207 230 207z m-400-500c0 83 44 155 109 197 21-87 79-160 158-199 0-77 30-147 79-200-33-19-72-31-112-31-129 0-234 105-234 233z m567-233c-42 0-80 12-113 31 48 53 78 122 79 200 79 39 138 111 159 199 65-42 108-114 108-196 0-129-105-234-233-234l0 0z" horiz-adv-x="1000" />

<glyph glyph-name="intersection-solid" unicode="&#xe91a;" d="M840 396c76-49 126-133 126-229 0-151-122-273-272-273l0-1c-48 0-92 14-132 36 57 62 92 144 93 234 92 46 161 131 185 233z m-679 0c24-102 92-186 184-232 1-91 36-173 93-235-39-22-84-36-132-36-150 0-272 123-272 273l0 1c0 96 51 181 127 229z m413-261c-7-62-33-117-74-159-41 42-68 97-75 159 25-6 49-9 75-9s50 3 74 9z m-74 222c37-39 62-87 72-142-22-6-46-11-72-11s-49 5-73 12c10 54 36 103 73 141z m-194 82c48 0 92-14 131-36-39-43-69-96-82-156-63 40-108 105-122 181 24 7 48 11 73 11z m388 0c26 0 50-4 73-11-13-72-54-133-111-173l-11-7-3 14c-15 53-43 102-80 142 40 22 84 35 132 35z m-194 312c140 0 254-106 269-242-24 5-49 9-75 9-72 0-139-22-194-60-56 38-122 60-194 60-26 0-51-3-75-8 16 136 130 242 269 242v-1z" horiz-adv-x="1000" />

<glyph glyph-name="steering-wheel-solid" unicode="&#xe91b;" d="M500 791c-258 0-469-210-469-468s211-469 469-469c258 0 469 210 469 469s-211 468-469 468z m-78-772c-97 25-176 95-213 186h96c30 0 63-11 84-32s33-55 33-85v-69z m78 225c-32 0-58 26-58 59s26 58 58 58c32 0 58-26 58-58s-26-59-58-59z m78-225v69c0 30 13 64 34 86s53 31 83 31h96c-37-91-116-161-213-186z m112 382c-35 0-70 14-95 39-52 52-137 52-189 0-25-25-60-39-95-39h-115c35 135 158 235 304 235s268-100 303-235h-113z" horiz-adv-x="1000" />

<glyph glyph-name="train" unicode="&#xe91c;" d="M627 791c90 0 162-72 162-160v-437c0-71-47-131-112-152l105-130c12-16 9-38-6-51-7-5-15-7-23-7-10 0-21 4-28 13l-134 167h-182l-134-167c-7-9-17-13-28-13-8 0-16 2-23 7-15 12-18 35-5 51l104 130c-65 21-112 81-112 152v437c0 88 73 160 163 160h253z m90-505h-433v-92c0-48 41-88 90-88h252c50 0 91 39 91 88v92z m-343-36c30 0 54-24 54-54s-24-54-54-54c-30 0-54 25-54 54s24 54 54 54z m252 0c30 0 54-24 54-54s-24-54-54-54c-30 0-54 25-54 54s24 54 54 54z m91 325h-433v-217h433v217z m-90 144h-253c-44 0-81-31-88-72h429c-8 41-44 72-88 72z" horiz-adv-x="1000" />

<glyph glyph-name="train-solid" unicode="&#xe91d;" d="M789 194v437c0 88-73 160-163 160h-252c-90 0-163-72-163-160v-437c0-71 47-131 112-152l-104-130c-13-16-10-39 5-51 7-5 15-7 23-7 11 0 21 4 28 13l134 167h182l134-167c7-9 18-13 28-13 8 0 16 2 23 7 15 13 18 35 6 51l-105 130c65 21 112 81 112 152h0z m-415-52c-30 0-54 24-54 54s24 54 54 54c30 0 54-24 54-54s-24-54-54-54z m253 0c-30 0-54 24-54 54s24 54 54 54c29 0 54-24 54-54s-25-54-54-54z m90 216h-433v217h433v-217h0z" horiz-adv-x="1000" />

<glyph glyph-name="van" unicode="&#xe91e;" d="M744 756c86 0 156-67 156-147v-220h33c18 0 33-15 33-33s-15-33-33-33h-33v-322c0-62-50-112-116-112s-117 51-117 112v22h-333v-22c0-62-50-112-116-112s-118 51-118 112v322h-33c-18 0-33 15-33 33s15 33 33 33h33v220c0 81 70 147 156 147h488z m-477-733h-100v-22c0-25 22-45 49-45 29 0 51 20 51 45v22z m566 0h-100v-22c0-25 22-45 49-45 29 0 51 20 51 45v22z m-89 666h-488c-49 0-89-36-89-80v-520h666v520c0 44-40 80-89 80z m-461-433c28 0 51-22 51-50s-23-50-51-50c-27 0-49 23-49 50s22 50 49 50z m433 0c28 0 51-22 51-50s-23-50-51-50c-27 0-49 23-49 50s22 50 49 50z m-39 392c68 0 122-55 122-122v-103c0-37-30-67-67-67h-465c-37 0-67 30-67 67v103c0 67 55 122 122 122h355z m1-67h-356c-30 0-55-24-55-55v-103l40 0c3 0 5 0 8 0l41 0c4 0 8 0 12 0l37 0c4 0 8 0 13 0l27 0c4 0 9 0 13 0l28 0c5 0 9 0 14 0l42 0c4 0 9 0 14 0l26 0c5 0 9 0 13 0l37 0c4 0 8 0 12 0l41 0c3 0 6 0 8 0l40-1v104c0 31-25 55-55 55z" horiz-adv-x="1000" />

<glyph glyph-name="bus-solid" unicode="&#xe91f;" d="M736-146c64 0 117 47 123 108h-250c7-61 59-108 126-108h1z m-469 0c64 0 117 47 123 108h-249c7-61 59-108 126-108z m666 541h-72v243c0 85-65 153-145 153h-432c-80 0-145-68-145-153v-243h-72c-19 0-36-17-36-36s17-36 36-36h72v-253c0-20 17-36 37-36h649c19 0 36 16 36 36v253h72c19 0 36 16 36 36s-17 36-36 36z m-505 288h144c20 0 36-16 36-36s-16-36-36-36h-144c-20 0-36 16-36 36s16 36 36 36z m-127-541c-29 0-53 24-53 54s24 54 53 54c30 0 55-24 55-54s-24-54-55-54z m19 181c-20 0-36 16-36 36v143c0 20 16 36 36 36h351c25 0 45-20 45-45v-134c0-20-16-36-37-36h-359z m378-181c-30 0-54 24-54 54s24 54 54 54c30 0 54-24 54-54s-24-54-54-54z" horiz-adv-x="1000" />

<glyph glyph-name="tram" unicode="&#xe920;" d="M619 791c19 0 35-15 35-34s-16-35-35-35h-84v-70h86c87 0 157-69 157-154v-420c0-79-61-144-139-153v-37c0-19-16-34-35-34s-34 15-34 34v35h-139v-35c0-19-16-34-35-34s-35 15-35 34v37c-78 8-139 73-139 153v420c0 85 71 154 157 154h87v70h-84c-19 0-35 16-35 35s16 34 35 34h237z m90-625h-417v-88c0-47 40-85 87-85h243c48 0 87 38 87 85v88z m-330-34c29 0 52-24 52-52s-23-52-52-52c-28 0-52 23-52 52s24 52 52 52z m243 0c28 0 52-24 52-52s-24-52-52-52c-29 0-52 23-52 52s23 52 52 52z m87 312h-417v-208h417v208z m-87 139h-243c-42 0-78-30-85-69h413c-7 39-42 69-85 69z" horiz-adv-x="1000" />

<glyph glyph-name="station-eletric" unicode="&#xe921;" d="M461 791c61 0 110-47 110-105v-400h31c63 0 114-50 114-112v-172c0-22 18-40 42-40h61c23 0 41 18 41 40v330c-10-6-22-9-35-9-40 0-73 32-73 72 0 35 26 64 59 70l-84 85c-14 13-14 37 0 50s37 14 51 0l144-144h0c7-7 11-16 11-25v-429c0-62-51-112-114-112h-61c-63 0-114 50-114 112v172c0 22-19 40-42 40h-30v-324c0-10-4-19-11-26s-16-10-25-10h-433c-20 0-36 16-36 36v796c0 58 50 105 111 105h283z m0-72h-283c-22 0-39-15-39-33v-760h361v760c0 18-17 33-39 33z m-99-157c10-2 18-12 18-23v-156h48v-1c8 0 17-5 21-13s4-17-1-24l-144-217c-5-6-13-10-21-10-1 0-4 0-6 1-11 3-18 12-18 23v120h-48c-8 0-16 5-20 12-5 8-5 17 0 24l144 252c5 10 17 15 27 12z m-30-113l-79-138h30c14 0 24-11 24-25v-64l76 113h-27c-14 0-24 10-24 24v90z" horiz-adv-x="1000" />

<glyph glyph-name="boat-solid" unicode="&#xe922;" d="M913 116h-826c-13 0-25-6-32-18-7-11-7-25-1-36 72-145 122-208 296-208h375c135 0 225 90 225 225 0 20-17 37-37 37z m-713 75h318c11 0 20 9 20 20v561c0 19-26 27-36 10l-334-533c-7-12-8-26-1-38s19-20 33-20z m425 0h175c13 0 25 7 32 17s8 24 3 36l-198 466c-6 13-24 9-24-5v-501c0-7 5-13 12-13z" horiz-adv-x="1000" />

<glyph glyph-name="van-solid" unicode="&#xe923;" d="M218-111c60 0 108 44 114 100h-230c6-56 54-100 116-100z m715 500h-33v225c0 78-70 142-156 142h-488c-86 0-156-64-156-142v-225h-33c-18 0-33-15-33-33s15-33 33-33h33v-234c0-18 15-33 34-33h732c19 0 34 15 34 33v234h33c18 0 33 15 33 33s-15 33-33 33z m-650-233c-27 0-49 22-49 50s22 49 49 49c28 0 51-22 51-49s-23-50-51-50z m433 0c-27 0-49 22-49 50s22 49 49 49c28 0 51-22 51-49s-23-50-51-50z m51 267c0-19-16-34-34-34h-466c-18 0-33 15-33 34v103c0 49 40 89 88 89h356c49 0 89-40 89-89v-103z m17-534c60 0 109 44 114 100h-231c7-56 55-100 117-100h0z" horiz-adv-x="1000" />

<glyph glyph-name="e-bike" unicode="&#xe924;" d="M501 791c258 0 468-210 468-468s-210-469-469-469c-259 0-469 210-469 469 0 48 8 95 22 140-5 6-10 12-13 18-9 20-9 41-1 61l15 41c4 9 10 17 19 21 5 1 10 2 15 2l14 37c5 12 19 19 31 14s19-19 14-31l-13-34 22-9 13 33c5 12 19 18 31 14s19-19 14-32l-15-38c7-10 10-22 5-34l-15-41c-12-30-39-48-69-51-10-36-16-73-16-112 0-218 178-396 397-396s396 178 396 397c0 219-178 396-396 396-39 0-77-5-114-16-19-6-39 5-45 24-5 19 5 39 24 45 44 12 89 19 135 19z m146-253c32 0 55-25 55-58 0-16-7-32-21-44-10-10-26-9-36 2s-8 27 2 36c4 3 4 6 4 6 0 4-2 7-2 7h-34l18-40c0 0 0-1 0-1l28-64c10 2 20 3 31 3 77 0 139-63 139-140 0-37-15-72-41-99-26-26-61-41-98-41l-8 1c-73 4-131 66-131 140 0 48 24 91 61 116l-7 18-84-147c-1 0-2-1-2-1l-1-2c-1-1-1-2-1-2-1-1-2-1-3-2-1 0-2-1-2-1 0-1-1-1-2-2-1 0-2-1-2-1l-5-1-4 0h-55c-5-28-18-54-38-74-27-27-62-41-99-41l1-1c-77 0-139 63-139 141 0 37 15 72 41 99s62 41 99 41l10-1c13-1 26-4 38-8l44 73 2 2 2 3c0 0 1 1 1 1l4 2c1 1 2 2 3 2h2c2 1 3 1 5 1 1 0 3 1 3 1h147l-18 41c-3 7-3 16 2 24s12 11 21 11h70z m-337-203l-8 0c-21-2-40-11-55-26l1 0c-17-17-26-39-26-63-1-49 39-90 88-90l8 1c21 2 40 10 55 25 10 11 17 24 22 38h-85c-5 0-9 1-13 3h-1c0 1-1 2-1 2-2 1-4 3-5 5l-2 2c-1 2-2 4-2 6-1 1-1 3-1 5-1 0-1 1-1 2v2c0 2 1 4 1 6l2 4c1 1 1 2 1 2l43 73c-6 2-14 3-21 3z m382 0l1-1-10-1 33-77c6-13 0-28-13-34-3-1-7-2-10-2-10 0-19 6-24 16l-33 77c-20-16-32-40-32-67-1-49 39-89 88-89l8 0c20 2 39 11 54 26 17 17 26 39 26 63 1 49-39 89-88 89z m-317-29c0 0 0 0-1-1l-3-7c-4-5-9-13-12-19l-5-8h40c-4 13-10 25-19 35z m45 74h-1l-18-29c24-21 40-48 46-79h16l-43 108z m146 32h-104l43-107 61 107z m-102 115c14 0 25-11 25-24s-11-24-25-24h-72c-13 0-24 10-24 24s11 24 24 24h72z" horiz-adv-x="1000" />

<glyph glyph-name="e-bike-solid" unicode="&#xe925;" d="M501 791c258 0 468-210 468-468s-210-469-469-469c-259 0-469 210-469 469 0 48 8 95 22 140-5 6-10 12-13 18-9 20-9 41-1 61l15 41c4 9 10 17 19 21 5 1 10 2 15 2l14 37c5 12 19 19 31 14 13-5 19-19 14-31l-13-34 22-9 13 33c5 12 19 18 31 14 13-5 19-19 14-32l-15-38c7-10 10-22 5-34l-15-41c-12-30-39-48-69-51-10-36-16-73-16-112 0-218 178-396 397-396s396 178 396 397c0 219-178 396-396 396-39 0-77-5-114-16-19-6-39 5-45 24-5 19 5 39 24 45 44 12 89 19 135 19z m145-253c32 0 55-25 55-58 0-16-7-32-21-44-10-10-27-9-36 2-9 10-8 27 2 36 4 3 4 6 4 6 0 4-2 7-2 7h-34l18-40c0 0 0-1 0-1l0-1 28-64c10 2 20 4 31 4l8 0c73-5 131-66 131-141 0-37-15-72-41-98-26-27-61-41-98-41l-8 0c-73 5-131 66-131 140 0 49 25 91 62 116l-8 19-84-147c0-1-1-1-1-2-1-1-2-1-2-1l-1-2c-1-1-2-1-3-2s-1-1-1-1c-1-1-2-1-3-2-1 0-1-1-2-1l-2 0c-2-1-4-1-6-1h-55c-5-28-18-54-38-74-27-27-62-41-99-41v-1c-77 0-139 63-139 141 0 37 15 72 41 99s62 41 99 41l10-1c13-1 26-4 38-8l44 73 2 2 2 3c0 0 1 1 1 1l4 2c1 1 2 2 3 2h2c1 1 3 1 4 1s4 1 4 1h147l-18 41c-3 7-3 16 2 24s12 11 21 11h70z m-270-188c-11 9-27 6-35-6l-55-80c0-1-1-2-1-2-1-2-2-4-2-6-1-1-1-4-1-4l0-1c0-1 0-2 0-3v-2l1-5c0-2 1-3 1-5s2-3 3-4c1-2 2-3 3-4 0 0 1-1 1-1 1-1 1-1 2-1 4-2 8-5 13-5h102c14 0 25 12 25 27 0 14-11 27-25 27h-53l26 38c8 12 6 29-5 37z m297 3c-7 13-22 19-34 12s-18-23-12-37l41-91c5-9 14-15 23-15 4 0 8 1 11 3 12 6 18 23 12 37l-41 91z m-254 27h0l-18-29c23-21 39-48 45-79h17l-44 108z m147 32h-104l42-107 62 107z m-102 115c14 0 25-11 25-24s-11-24-25-24h-72c-13 0-24 10-24 24s11 24 24 24h72z" horiz-adv-x="1000" />

<glyph glyph-name="trolley" unicode="&#xe926;" d="M556 791c207 0 375-168 375-375v-112c0-70-36-131-89-163 52-24 89-76 89-137 0-83-67-150-150-150s-150 67-150 150c0 45 21 85 52 112h-253c31-27 52-67 52-112 0-83-68-150-151-150s-150 67-150 150c0 61 37 113 89 137-52 32-89 92-89 163v180c0 50-29 83-75 83-20 0-37 17-37 37s17 38 37 38c86 0 148-65 150-155v-33h263v300c0 20 17 37 37 37z m-225-713c-42 0-75-33-75-75s33-75 75-75c41 0 75 34 75 75s-34 75-75 75z m450 0c-41 0-75-33-75-75s34-75 75-75c42 0 75 34 75 75s-33 75-75 75z m-450-37c20 0 37-17 37-38s-17-37-37-37c-21 0-38 17-38 37s17 38 38 38z m450 0c21 0 38-17 38-38s-17-37-38-37c-20 0-37 17-37 37s17 38 37 38z m75 338h-600v-75c0-63 43-113 97-113h406c53 0 97 50 97 113v75z m-63 221l-146-146h206c-6 54-28 104-60 146z m-199 114v-207l146 146c-42 32-92 54-146 61z" horiz-adv-x="1000" />

<glyph glyph-name="tram-solid" unicode="&#xe927;" d="M778 498c0 85-70 154-156 154h-87v70h84c19 0 35 16 35 35s-16 34-35 34h-238c-19 0-34-15-34-34s15-35 34-35h85v-70h-87c-87 0-157-69-157-154v-420c0-4 1-7 1-11 0-2-1-3-1-5 0-5 1-10 3-14 13-66 68-116 136-123v-37c0-19 16-34 35-34s34 15 34 34v35h139v-35c0-19 16-34 35-34s35 15 35 34v37c68 7 122 58 135 123 2 4 4 9 4 14 0 2-1 4-1 5 0 4 1 7 1 11v420h0z m-399-471c-29 0-52 24-52 52s23 52 52 52c29 0 52-23 52-52s-23-52-52-52z m243 0c-29 0-52 24-52 52s23 52 52 52c29 0 52-23 52-52s-23-52-52-52z m87 209h-417v208h417v-208h0z" horiz-adv-x="1000" />

<glyph glyph-name="station-gas" unicode="&#xe928;" d="M461 791c61 0 110-47 110-105v-400h31c63 0 114-50 114-112v-172c0-22 18-40 42-40h61c23 0 41 18 41 40v330c-10-6-22-9-35-9-40 0-73 32-73 72 0 35 26 64 59 70l-84 85c-14 13-14 37 0 50s37 14 51 0l144-144h0c7-7 11-16 11-25v-429c0-62-51-112-114-112h-61c-63 0-114 50-114 112v172c0 22-19 40-42 40h-30v-324c0-10-4-19-11-26s-16-10-25-10h-433c-20 0-36 16-36 36v796c0 58 50 105 111 105h283z m0-72h-283c-22 0-39-15-39-33v-760h361v760c0 18-17 33-39 33z m-142-252l5-1c11-1 21-8 27-17l66-115c1-1 2-3 2-4 6-14 9-29 9-44 0-59-49-108-109-108s-108 49-108 108c0 13 2 26 7 38 1 4 1 4 70 125 6 11 19 18 31 18z m0-109c-14-26-30-53-34-61-1-3-2-7-2-11 0-19 17-36 36-36v0c20 0 37 16 37 36 0 4-1 9-3 13l-34 59z" horiz-adv-x="1000" />

<glyph glyph-name="station-gas-solid" unicode="&#xe929;" d="M922 456l-144 144c-14 14-37 14-51 0s-14-37 0-50l84-85c-33-6-59-35-59-70 0-40 33-72 73-72 13 0 25 3 35 9v-330c0-22-18-40-41-40h-61c-24 0-42 18-42 40v172c0 62-51 112-114 112h-31v400c0 58-49 105-110 105h-283c-61 0-111-47-111-105v-796c0-20 16-36 36-36h433c9 0 19 3 25 10s11 16 11 26v324h30c23 0 42-18 42-40v-172c0-62 51-112 114-112h61c63 0 114 50 114 112v429c0 9-4 18-11 25h0z m-603-278c-59 0-108 46-108 104 0 12 3 25 8 36 0 2 1 3 82 138 4 7 11 11 18 11s15-4 19-11l79-130c0 0 1-2 1-2 6-13 10-27 10-42 0-57-49-103-109-103v-1z" horiz-adv-x="1000" />

<glyph glyph-name="thumb-down" unicode="&#xe92a;" d="M375 288c19-18 91-100 123-328l1-9c3-13 6-16 6-17 14-1 23-1 27 22 11 33 11 107-6 191-10 46-5 80 13 103 14 18 34 25 47 26h256c5 0 30 1 33 21 1 7-1 14-5 19-4 5-10 8-17 9-17 1-32 12-37 28-5 16 0 34 14 44 5 4 9 10 10 17s-2 13-6 19c-4 5-10 8-16 9-18 0-33 12-38 29-5 17 1 35 15 44 4 3 10 8 12 18 0 7-1 13-6 19-3 4-9 8-15 9-1 0-2 0-3 0-17 2-30 14-34 31-4 16 3 33 17 42 7 5 11 11 12 19 2 17-31 29-31 29-191 57-364 13-366 12-47-12-191-40-256-52v-244c63-8 187-34 250-110z m137-434c-4 0-9 0-13 0-64 7-75 65-79 84l-2 10c-30 217-98 281-99 282-1 1-3 4-5 5-50 64-184 84-231 87-22 1-38 18-38 40v313c0 19 13 36 32 40 3 0 226 42 284 57 8 2 197 50 409-13 25-6 98-42 87-117-1-9-3-18-7-26 5-4 10-9 14-14 18-23 26-50 22-78-1-9-3-17-5-25 6-4 11-10 16-17 18-22 26-49 22-77 0-7-2-15-4-21 6-5 12-11 18-18 17-22 25-50 22-78v0c-7-54-53-92-112-93h-242c0-6 0-16 3-32 19-90 21-179 6-227-10-51-46-82-98-82z" horiz-adv-x="1000" />

<glyph glyph-name="thumb-down-solid" unicode="&#xe92b;" d="M935 359c-7 8-16 16-25 21 4 9 7 19 8 29 3 25-4 50-20 70-6 8-14 15-23 21 4 10 8 20 9 31 3 26-4 50-20 70-6 8-13 14-21 20 6 10 10 21 11 32 10 69-61 101-80 105-215 64-406 16-414 14-59-15-290-59-292-59-14-3-23-14-23-27v-323c0-15 12-27 26-28 2 0 182-10 252-98 1 0 75-67 107-298l1-10c4-19 14-69 69-75 4 0 8 0 12 0 46 0 79 28 88 75 15 47 12 136-6 227-7 35-1 48-4 49h263c54 1 96 35 101 84l0 0c3 25-4 50-19 70z" horiz-adv-x="1000" />

<glyph glyph-name="tractor" unicode="&#xe92c;" d="M542 753c19 0 36-16 36-36s-17-36-36-36h-22l146-322h85v143c0 10 4 19 11 26l71 71c14 14 37 14 51 0s14-36 0-50l-61-62v-136c42-16 71-53 71-98v-94c43-25 72-70 72-123 0-79-64-144-143-144-67 0-122 46-138 108h-222c-41-65-114-108-196-108-128 0-233 105-233 234s105 233 233 233c128 0 233-105 233-233 0-19-2-37-7-54h39c3 15 4 30 4 45 0 153-122 278-272 278-63 0-122-22-171-62-15-12-38-10-50 5s-11 38 4 51c29 23 62 42 97 55l59 237h-52c-20 0-36 16-36 36s16 36 36 36h391z m281-645c-40 0-72-32-72-71s32-72 72-72c39 0 71 32 71 72s-32 71-71 71z m-556 180c-89 0-161-72-161-161s72-162 161-162c89 0 161 72 161 162s-71 161-161 161z m0-36c69 0 125-57 125-126s-56-126-125-126c-69 0-126 57-126 126s56 126 126 126z m556-179c20 0 36-17 36-36s-16-36-36-36c-20 0-36 16-36 36s16 36 36 36z m-556 107c-30 0-54-24-54-54s24-54 54-54c29 0 53 24 53 54s-24 54-53 54z m512 108h-214c27-51 43-108 43-170 0-15-1-31-3-45h80c16 61 72 107 138 107v74c0 21-23 34-44 34z m-338 394h-164l-55-219c10 1 19 3 28 3l14 1 14 0c86-4 165-41 223-98l10-10h77l-147 323z" horiz-adv-x="1000" />

<glyph glyph-name="tractor-solid" unicode="&#xe92d;" d="M895 160v93c0 45-29 82-72 98v137l61 61c14 14 14 37 0 51s-36 13-50 0l-72-72c-7-7-11-16-11-26v-143h-84l-147 322h22c20 0 36 17 36 36s-16 36-36 36h-76c0 0-1 0-2 0h-215c0 0-1 0-1 0h-97c-20 0-36-16-36-36s16-36 36-36h52l-59-237c-35-13-68-32-97-55-15-13-17-36-4-51s35-17 50-5c49 40 108 62 171 62 151 0 273-125 273-278 0-15-2-30-5-45h-38c4 17 6 35 6 53 0 129-104 234-233 234s-233-105-233-234c0-128 105-233 233-233 83 0 155 43 196 108h96c0 0 2 0 2 0s1 0 2 0h121c17-62 72-108 139-108 79 0 143 65 143 144 0 53-29 98-72 123l1 1z m-628-160c-69 0-125 57-125 126s56 126 125 126c69 0 126-57 126-126s-57-126-126-126z m245 359c-63 66-151 108-248 108-14 0-28-2-42-4l55 219h164l147-323h-76z m311-394c-40 0-72 32-72 71s32 72 72 72c40 0 72-32 72-72s-32-71-72-71z" horiz-adv-x="1000" />

<glyph glyph-name="plane-arrival" unicode="&#xe92e;" d="M924 57l-848 1c-18 0-33-14-33-33s15-33 33-33l848-2c18 0 33 15 33 34s-15 33-33 33z m-797 244c321-90 595-132 637-136 5-1 21-3 41-3 49 0 126 11 137 77 14 93-131 122-147 125-27 6-54 11-81 16-20 55-76 205-83 223-7 22-27 39-50 42l-56 9c-14 2-29-2-40-12-10-10-16-24-14-37l10-191c-11 1-23 2-37 3-59 4-138 10-186 12l-17 38c-6 18-23 32-41 35l-21 3c-13 3-26-1-36-10s-15-19-15-32v-37c-31-5-55-26-58-53-4-27 12-60 57-72h0z m34 60c18 0 33 15 33 33v18l11-24c5-13 19-24 33-24 42-2 135-9 202-14 59-4 93-3 100 4 7 7 10 16 10 26l-11 205 30-5c33-86 83-220 88-237 4-13 16-24 29-26 31-5 64-11 97-19 45-8 97-32 95-50-3-17-60-24-106-19 0 0 0 0 0 0-37 4-307 46-617 131h7l-1 1z" horiz-adv-x="1000" />

<glyph glyph-name="thumb-up" unicode="&#xe92f;" d="M125 3c65-12 209-40 256-52 2-1 176-44 366 12 0 0 33 12 31 29-1 8-6 15-12 19-14 9-21 26-17 42 4 17 17 29 34 31 2 0 4 1 6 1 2 0 8 3 12 9 4 5 6 11 6 18-2 10-8 15-12 18-14 10-21 28-16 44 5 17 20 29 37 30 8 0 14 3 18 9 4 5 6 11 5 18 0 7-4 13-9 17-13 10-19 27-14 43s18 27 34 29c2 0 5 0 7 0 3 1 8 4 13 9 4 5 6 12 5 19-3 20-28 22-33 22h-255c-14 0-34 7-48 25-19 23-23 57-13 103 17 84 17 158 7 187-5 27-13 27-26 26-2-1-5-4-8-19l-1-8c-32-227-104-309-123-327-63-76-187-102-250-110v-244z m415-149c-103 0-174 18-179 19-58 15-281 57-284 57-18 4-32 21-32 40v313c0 22 17 39 38 40 47 3 181 23 231 87 2 2 4 4 6 6 0 0 68 64 98 280l2 9c4 21 15 79 79 86 58 6 100-26 112-86 14-44 12-133-7-223-3-16-3-26-3-32h241c60-1 106-39 113-93 3-28-5-56-22-78-6-6-12-12-18-18 2-6 3-13 4-21 4-28-4-55-22-77-5-7-10-12-17-17 3-8 5-16 6-24 4-29-4-56-22-78-4-6-9-11-14-15 4-8 6-17 7-26 11-75-62-110-89-117-82-25-162-32-228-32z" horiz-adv-x="1000" />

<glyph glyph-name="thumb-up-solid" unicode="&#xe930;" d="M954 356l0 0c-5 49-47 83-102 84l-257-1c-3 2-9 15-1 50 18 91 21 180 7 225-11 53-49 82-101 77-55-6-65-56-69-77l-1-9c-32-230-106-297-106-297-2-1-3-3-5-4-66-84-246-94-248-94-14-1-26-13-26-28v-322c0-14 10-25 23-28 2 0 233-43 292-59 5-1 77-19 181-19 67 0 148 7 232 32 19 5 91 38 81 106-2 11-5 23-11 33 8 5 15 11 21 19 16 20 23 45 20 70-1 11-5 22-9 31 8 6 16 13 23 22 16 19 23 44 20 69-1 10-4 20-8 29 9 5 18 13 25 22 15 19 22 44 19 69z" horiz-adv-x="1000" />

<glyph glyph-name="car" unicode="&#xe931;" d="M698 702c91 0 165-68 165-151v-80h66c18 0 33-15 33-33s-15-33-33-33h-34c21-28 34-62 34-99v-165c0-18-15-33-33-33v-67c0-54-42-98-98-98s-100 44-100 98v67h-396v-67c0-54-42-98-98-98s-100 44-100 98v67c-18 0-33 15-33 33v165c0 37 13 71 34 99h-34c-18 0-33 15-33 33s15 33 33 33h66v80c0 83 74 151 165 151h396z m-462-594h-66v-67c0-17 15-32 32-32 20 0 34 15 34 32v67z m594 0h-66v-67c0-17 15-32 32-32 19 0 34 15 34 32v67z m-66 297h-528c-54 0-99-44-99-99v-132h726v132c0 55-44 99-99 99z m-528-33c37 0 66-29 66-66s-29-66-66-66c-36 0-66 30-66 66s30 66 66 66z m528 0c37 0 66-29 66-66s-29-66-66-66c-36 0-66 30-66 66s30 66 66 66z m-66 264h-396c-54 0-99-38-99-85v-83c11 2 22 3 33 3h528c11 0 22-1 33-3v83c0 47-44 85-99 85z" horiz-adv-x="1000" />

<glyph glyph-name="car-solid" unicode="&#xe932;" d="M699 41c0-54 43-98 99-98s97 44 97 98v1h-196v-1z m-594 0c0-54 44-98 99-98s97 44 97 98v1h-196v-1z m824 430h-66v80c0 83-74 151-165 151h-396c-91 0-165-68-165-151v-80h-66c-18 0-33-15-33-33s15-33 33-33h34c-21-28-34-62-34-99v-165c0-18 15-33 33-33h792c18 0 33 15 33 33v165c0 37-13 71-34 99h34c18 0 33 15 33 33s-15 33-33 33z m-726 80c0 46 45 85 99 85h396c55 0 99-38 99-85v-84c-11 2-22 4-33 4h-528c-11 0-22-2-33-4v84z m33-311c-36 0-66 29-66 66s30 66 66 66c37 0 66-30 66-66s-29-66-66-66z m528 0c-37 0-66 29-66 66s29 66 66 66c37 0 66-30 66-66s-29-66-66-66z" horiz-adv-x="1000" />

<glyph glyph-name="elevator" unicode="&#xe933;" d="M795 791c53 0 96-43 96-96v-745c0-53-43-96-96-96h-590c-53 0-96 43-96 96v745c0 53 43 96 96 96h590z m0-78h-590c-10 0-18-8-18-18v-745c0-10 8-18 18-18h590c10 0 18 8 18 18v745c0 10-8 18-18 18z m-322-89c15 15 40 15 55 0l117-118c15-15 15-40 0-55-8-8-18-11-28-11s-20 3-27 11h1l-50 50v-357l50 50c15 15 40 15 55 0s15-40 0-55l-117-118c-7-7-17-11-27-11s-21 4-28 11l-117 118c-15 15-15 40 0 55 15 16 40 15 56 0l49-50v358l-52-51c-15-15-39-15-55 0s-15 40 0 55l118 118z" horiz-adv-x="1000" />

<glyph glyph-name="elevator-solid" unicode="&#xe934;" d="M795 791h-590c-53 0-96-43-96-96v-745c0-53 43-96 96-96h590c53 0 96 43 96 96v745c0 53-43 96-96 96z m-205-597c15 15 40 16 55 0 15-15 15-40 0-55l-117-118c-7-7-17-11-27-11s-21 4-28 11l-117 118c-15 15-15 40 0 55s40 15 55 0l50-50v358l-52-51c-15-15-40-15-55 0s-15 40 0 55l118 118c15 15 40 15 55 0l117-118c15-15 15-40 0-55-8-8-18-11-28-11s-20 3-27 11l-50 50v-357l50 50h1z" horiz-adv-x="1000" />

<glyph glyph-name="instagram" unicode="&#xe935;" d="M811 579c0 31-26 56-57 56s-56-25-56-56c0-31 25-56 56-56s57 25 57 56z m-62-262c0 138-112 250-249 250s-250-112-250-250c0-137 112-249 250-249s249 112 249 249z m220 269v-527c0-113-92-205-205-205h-528c-113 0-205 92-205 205v527c0 113 92 205 205 205h528c113 0 205-92 205-205z m-308-269c0-89-72-161-161-161s-162 72-162 161c0 89 73 162 162 162s161-73 161-162z" horiz-adv-x="1000" />

<glyph glyph-name="pinterest" unicode="&#xe936;" d="M521 791c-249 0-399-174-399-343 0-106 46-187 123-218 13-5 26-5 38 1 11 5 19 16 22 29l11 40c6 24 1 36-13 51-19 23-28 49-28 84 0 107 81 220 232 220 119 0 192-66 192-171 0-138-61-247-140-247-20 0-38 8-49 22-10 12-13 29-9 46 5 23 13 47 20 69 14 44 27 85 27 118 0 61-39 101-96 101-71 0-126-69-126-156 0-39 9-69 15-83-10-42-56-234-65-270-18-73-9-157-2-203 1-13 11-23 23-26 3-1 6-1 9-1 10 0 19 4 26 13 28 35 78 104 98 174 4 14 16 60 25 96 31-23 73-37 115-37h0c178 0 308 157 308 374 0 156-134 317-357 317z" horiz-adv-x="1000" />

<glyph glyph-name="whatsapp" unicode="&#xe937;" d="M749 155c-14-39-71-67-98-71-11-2-22-3-32-3-18 0-35 3-52 8-18 6-40 13-68 25-99 43-171 131-205 179-17 23-53 78-53 137 0 63 31 97 45 111 21 23 43 25 52 25 8 0 16 0 23 0 15 1 36-4 49-36l13-31c10-23 20-48 22-53 9-18 6-34 1-43-5-10-8-17-15-25l-6-7c-3-4-7-8-10-12 10-15 29-43 55-66 33-30 62-42 77-49l6-3c9 12 24 30 30 38 19 29 48 19 57 16 14-5 80-38 81-39l6-3c10-5 20-10 27-20 11-20 2-58-5-78z m84 498c-89 89-208 138-333 138-258 0-469-209-469-466 0-93 25-180 71-251 0-1 1-2 1-2l-44-162c-3-10 0-19 6-26 7-7 17-10 26-7l168 43 2-1c78-43 158-65 239-65 259 0 469 209 469 466 0 127-49 245-136 333z" horiz-adv-x="1000" />

<glyph glyph-name="scooter-solid" unicode="&#xe938;" d="M552-7v-93c0-26-20-46-46-46h-12c-25 0-46 20-46 46v93h104z m-52 798c64 0 119-44 134-104h74c19 0 35-16 35-35s-16-34-35-34h-74c-7-28-23-52-44-70h14c77 0 139-68 139-152v-265c0-73-73-147-139-168v144c0 52-47 94-104 94s-104-43-104-94v-144c-66 21-139 95-139 168v265c0 84 62 152 139 152h14c-21 18-36 42-44 70h-74c-19 0-35 15-35 34s16 35 35 35h74c16 60 70 104 134 104z m6-640c26 0 46-20 46-46v-64h-104v64c0 26 21 46 46 46h12z m-6 571c-38 0-69-31-69-70s31-69 69-69c38 0 70 31 70 69s-32 70-70 70z" horiz-adv-x="1000" />

<glyph glyph-name="facebook" unicode="&#xe939;" d="M721 496c-5 5-12 9-20 9h-111v65c0 16 6 17 12 17h97c14 0 26 12 26 26v152c0 14-12 26-26 26l-133 0c-153 0-208-114-208-211v-75h-59c-15 0-26-12-26-26v-157c0-14 11-26 26-26h59v-416c0-15 12-26 26-26h180c15 0 26 11 26 26v416h96c13 0 24 10 25 24l16 156c1 7-1 15-6 20z" horiz-adv-x="1000" />

<glyph glyph-name="dresser-solid" unicode="&#xe93a;" d="M933 791h-866c-19 0-36-16-36-36v-108c0-20 17-36 36-36h36v-144h794v144h36c19 0 36 16 36 36v108c0 20-17 36-36 36z m-361-252h-144c-20 0-36 16-36 36s16 36 36 36h144c20 0 36-16 36-36s-16-36-36-36z m-469-144v-144h794v144h-794z m469-108h-144c-20 0-36 16-36 36s16 36 36 36h144c20 0 36-16 36-36s-16-36-36-36z m-439-325h734c17 3 30 17 30 34v183h-794v-183c0-17 13-31 30-34z m295 145h144c20 0 36-17 36-36s-16-36-36-36h-144c-20 0-36 16-36 36s16 36 36 36z m180-217c0-20 17-36 36-36h145c19 0 36 16 36 36v36h-217v-36z m-432 0c0-20 16-36 36-36h144c20 0 36 16 36 36v36h-216v-36z" horiz-adv-x="1000" />

<glyph glyph-name="shower" unicode="&#xe93b;" d="M428 648c52 0 72-21 72-73v-3c-114-14-203-104-203-213 0-20 17-36 37-36h399c20 0 36 16 36 36 0 107-85 196-197 213v2c0 93-52 145-144 145h-181v36c0 20-16 36-36 36s-36-16-36-36v-180c0-20 17-36 36-36s36 16 36 36v72h181v1z m264-253h-317c18 62 82 108 158 108s140-46 158-108h1z m-159-361c-20 0-36-17-36-37v-107c0-20 16-36 36-36s36 16 36 36v107c0 20-16 37-36 37z m290-133l-36 109c-7 18-27 28-46 22-19-6-29-27-23-46l36-108c6-15 20-24 35-24 4 0 7 0 11 2 19 6 30 26 23 45z m-492 131c-19 6-39-4-46-22l-36-109c-6-19 4-39 23-45 4-2 8-2 11-2 15 0 30 9 35 24l36 108c6 19-4 40-23 46z m206 219c-19 0-37-16-37-35l-3-108c0-20 16-37 35-37h1c20 0 36 15 36 35l3 108c1 19-15 36-35 37z m214-133l-36 108c-7 19-27 29-46 23s-29-27-23-46l36-108c6-15 20-24 34-24 4 0 8 0 12 2 19 6 29 27 23 45z m-349 131c-19 6-39-5-45-24l-32-109c-6-19 5-39 24-44 4-1 7-2 11-2 15 0 29 10 34 26l32 108c6 20-5 39-24 45z" horiz-adv-x="1000" />

<glyph glyph-name="shower-solid" unicode="&#xe93c;" d="M247 647h181c51 0 71-20 71-71-116-15-206-106-206-217 0-22 18-40 40-40h398c22 0 40 18 40 40 0 109-87 199-199 216 0 92-53 144-144 144h-181v36c0 20-16 36-36 36s-36-16-36-36v-180c0-19 17-36 36-36s36 17 36 36v72h0z m285-611c-20 0-37-17-37-37v-108c0-21 17-37 37-37s38 16 38 37v108c0 20-17 37-38 37z m291-133l-36 108c-7 20-28 30-48 24s-30-28-23-48l36-108c5-16 19-25 35-25 4 0 8 0 12 2 20 6 30 27 24 47z m-492 132c-19 6-41-4-48-24l-36-108c-6-20 4-41 24-47 4-2 8-2 12-2 16 0 30 10 36 25l36 108c6 20-4 41-24 48z m205 218h-1c-20 0-37-16-37-37l-3-107c-1-21 16-38 36-39h1c20 0 37 16 38 37l2 107c1 21-15 38-36 39z m191-180c20 6 30 28 24 47l-36 108c-7 19-28 30-48 23s-30-28-23-47l36-108c5-16 19-25 35-25 4 0 8 0 12 2z m-325 178c-21 6-41-5-47-25l-32-108c-6-19 5-41 25-46 3-1 7-2 10-2 17 0 32 11 36 27l33 108c5 20-6 41-25 47v-1z" horiz-adv-x="1000" />

<glyph glyph-name="trolley-solid" unicode="&#xe93d;" d="M338 142c79 0 144-65 144-144s-65-144-144-144c-80 0-145 65-145 144s65 144 145 144z m432 0c80 0 145-65 145-144s-65-144-145-144c-79 0-144 65-144 144s65 144 144 144z m-432-72c-40 0-73-32-73-72s33-72 73-72c39 0 72 32 72 72s-33 72-72 72z m432 0c-40 0-72-32-72-72s32-72 72-72c40 0 72 32 72 72s-32 72-72 72z m145 325v-72c0-100-75-181-166-181h-390c-91 0-166 81-166 181v72h722z m-361 396c86 0 166-30 228-81l-243-243h-21v288c0 20 16 36 36 36z m279-132c44-54 72-120 80-192h-272l192 192z m-640-192h72v31c0 0 0 1 0 1-1 86-61 149-143 149-20 0-36-17-36-36s16-37 36-37c43 0 72-31 72-79v-29l-1 0z" horiz-adv-x="1000" />

<glyph glyph-name="bus" unicode="&#xe93e;" d="M716 791c80 0 145-71 145-159v-237h72c19 0 36-17 36-36s-17-36-36-36h-72v-349c0-66-54-120-125-120s-128 54-128 120v24h-216v-24c0-66-54-120-125-120s-128 54-128 120v349h-72c-19 0-36 16-36 36s17 36 36 36h72v237c0 88 65 159 145 159h432z m-396-793h-108v-24c0-27 23-48 52-48 32 0 56 21 56 48v24z m469 0h-109v-24c0-27 24-48 53-48 32 0 56 21 56 48v24z m-73 721h-432c-40 0-72-39-72-87v-562h577v562c0 48-33 87-73 87z m-415-469c31 0 55-24 55-53s-25-54-55-54c-29 0-53 24-53 54s24 53 53 53z m397 0c30 0 54-24 54-53s-24-54-54-54c-30 0-54 24-54 54s24 53 54 53z m-27 325c45 0 81-37 81-81v-134c0-40-32-73-72-73h-359c-40 0-73 33-73 73v142c0 40 33 73 73 73h350z m0-72h-351c0 0 0 0 0-1l0-11c0-27 0-94 0-121l0-11h360v135c0 5-4 9-9 9z m-99 180c20 0 36-16 36-36s-16-36-36-36h-144c-20 0-36 16-36 36s16 36 36 36h144z" horiz-adv-x="1000" />

<glyph glyph-name="plane-arrival-solid" unicode="&#xe93f;" d="M130 317c320-89 593-131 634-135 5-1 21-3 41-3 46 0 116 10 125 68 12 82-123 109-138 112-29 6-58 11-87 17-17 51-82 222-85 229-6 18-21 32-41 35l-55 8c-12 2-23-1-31-9-8-7-12-18-11-28l11-204c-13 1-30 3-49 4-63 4-146 11-192 13l-21 45c-5 14-18 25-32 27l-21 4c-10 1-20-2-27-8-7-6-11-15-11-24v-46c-32-2-55-19-59-45-3-21 8-49 50-60h-1z m793-255l-846 2c-18 0-33-15-33-33s14-33 33-33l846-2c18 0 33 15 33 33s-14 33-33 33z" horiz-adv-x="1000" />

<glyph glyph-name="plane-departure" unicode="&#xe940;" d="M141 187c0 0 3 0 5 0 333 13 607 57 648 65 18 4 161 33 148 126-16 92-162 76-179 73-28-3-55-6-82-10-36 48-136 172-148 187-13 20-37 30-60 26l-56-9c-15-2-27-11-34-24s-8-27-3-40l69-179c-11-2-23-5-36-8-58-14-135-33-181-45l-29 30c-11 15-31 24-49 21l-21-3c-14-2-25-10-32-21-6-10-8-24-4-36l12-34c-28-15-44-42-40-69 4-26 28-51 72-51v1z m19 68c17 6 27 25 21 42l-5 16 18-19c8-11 25-17 38-14 41 12 131 34 197 49 58 14 89 26 94 36 4 8 5 18 1 26l-73 192 30 5c57-72 146-184 157-200 7-10 22-17 34-15 32 4 65 9 99 12 45 6 102-1 105-19 3-17-50-41-94-50h-1c-36-7-306-50-627-64l6 3v0z m764-198l-848 2c-18 0-33-15-33-34s15-33 33-33l848-1c18 0 33 14 33 33s-15 33-33 33z" horiz-adv-x="1000" />

<glyph glyph-name="dumbbell-solid" unicode="&#xe941;" d="M341 386h318v-127h-318v127z m429 191c-35 0-64-24-64-54v-400c0-31 29-55 64-55s63 24 63 55v400c0 30-28 54-63 54z m-542 0c-35 0-63-24-63-54v-400c0-31 28-55 63-55s64 24 64 55v400c0 30-29 54-64 54z m-141-127c-13 0-31-14-32-22v-216c1-4 17-16 32-16s30 13 31 18v215c-1 7-19 21-31 21z m827 0c-13 0-31-14-32-22v-216c1-4 17-16 32-16s30 13 31 18v215c-1 7-19 21-31 21z" horiz-adv-x="1000" />

<glyph glyph-name="bed-front" unicode="&#xe942;" d="M829 323v218c0 79-62 143-137 143h-384c-76 0-137-64-137-143v-218c-78-43-131-127-131-222v-9c0-18 15-32 33-32h33v-66c0-18 14-33 32-33h99c18 0 33 15 33 33v66h460v-66c0-18 15-33 33-33h99c18 0 33 15 33 33v66h32c18 0 33 14 33 32v9c0 95-53 179-131 222z m-592 218c0 43 32 77 71 77h384c39 0 71-34 71-77v-193c-10 3-21 5-33 6v18c0 81-56 148-125 148h-210c-69 0-125-66-125-148v-18c-11-1-22-3-33-6v193z m99-186v17c0 45 27 82 59 82h210c32 0 59-37 59-82v-17h-328z m-42-65h412c96 0 175-72 187-165h-786c13 93 92 165 187 165z m-90-263h-33v33h33v-33z m625 0h-33v33h33v-33z" horiz-adv-x="1000" />

<glyph glyph-name="desk" unicode="&#xe943;" d="M891 440h-664v49c0 113 102 207 234 222v-3c-67-18-117-79-117-151 0-21 18-39 39-39h235c21 0 39 18 39 39 0 73-50 133-118 151v45c0 21-18 38-39 38-194 0-352-135-352-302v-49h-39c-21 0-39-18-39-39v-508c0-22 18-39 39-39s39 17 39 39v469h469v-312c0-22 18-39 39-39h196v-118c0-21 17-39 39-39s39 18 39 39v508c0 22-18 39-39 39z m-323 157h-136c14 23 39 39 68 39s54-16 68-39z m284-352h-157v78h157v-78z m-157-156v78h157v-78h-157z" horiz-adv-x="1000" />

<glyph glyph-name="desk-solid" unicode="&#xe944;" d="M500 791c21 0 39-17 39-38v-45c68-18 118-78 118-151 0-21-18-39-39-39h-235c-21 0-39 18-39 39 0 72 50 133 117 151v3c-132-15-234-109-234-222v-49h664c21 0 39-17 39-39v-156h-313v117h-469v-469c0-22-17-39-39-39s-39 17-39 39v508c0 21 18 39 39 39h39v49c0 167 158 302 352 302z m430-624v-274c0-21-18-39-39-39s-39 18-39 39v118h-196c-21 0-39 17-39 39v117h313z" horiz-adv-x="1000" />

<glyph glyph-name="bathroom" unicode="&#xe945;" d="M500 756c-20 0-36-17-36-36v-795c0-19 16-36 36-36s36 17 36 36v795c0 19-17 36-36 36z m381-251c29 26 48 64 48 107 0 79-64 143-142 143s-143-64-143-143c0-43 19-81 48-107-50-37-84-104-84-179v-396c0-19 16-35 36-35h287c19 0 35 16 35 35v396c0 75-34 142-84 179h-1z m-94 178c39 0 70-32 70-71s-32-72-70-72c-39 0-71 32-71 72s32 71 71 71z m107-717h-215v360c0 77 48 140 108 140s107-63 107-140v-360z m-539 643c0 79-64 144-142 144s-137-59-142-135c0-2-1-5-1-9v-153c-23-34-36-75-36-120v-408c0-20 16-36 36-36h286c20 0 36 16 36 36v408c0 46-14 87-37 121v152z m-71 0c0-39-32-71-71-71s-71 32-71 71h142z m37-645h-216v372c0 72 49 130 108 130s108-58 108-130v-372z" horiz-adv-x="1000" />

<glyph glyph-name="paint-brush-solid" unicode="&#xe946;" d="M355 252c67-5 145-72 145-166 0-83-70-155-159-155h-268c-19 0-35 15-36 34s13 35 32 37c11 1 111 13 111 106l0 1c1 85 72 143 166 143h9z m103 106c52 0 142-84 148-137l-51-49c-29 68-85 118-145 139l48 47z m332 327c40 39 104 39 143 0 20-19 30-44 30-71s-10-52-30-71l-271-267c-27 58-86 115-146 140l274 269z" horiz-adv-x="1000" />

<glyph glyph-name="person-running" unicode="&#xe947;" d="M960 640c0 83-68 151-151 151s-151-68-151-151c0-7 1-15 2-22-27 6-51 6-62 6h-141c-42 0-64-13-84-29-2 53-46 96-100 96h-67c-56 0-101-45-101-100 0-13 3-26 7-37-43-12-74-51-74-97 0-55 45-100 101-100h67c19 0 36 5 52 14 18-28 51-47 88-48-7-13-11-27-12-42l-17-17-17 20-3 3c0 0-1 2-2 2-21 21-49 33-79 33-61 0-111-50-111-112 0-24 8-48 23-68 1-1 3-3 4-4l5-5 93-103 7-8c0 0 4-3 5-5 21-17 46-27 73-27 24 0 47 8 66 22 1 1 2 2 3 2l2 2c0 0 3 2 3 3l72 67 6-6 23-122c4-59 50-104 109-104s110 50 110 111c0 4 0 8 0 12-10 54-26 144-28 161-1 7-2 15-3 24 12-4 25-6 39-6 0 0 2 0 2 0 3 0 8 0 15 0 34 0 99-1 99-1 62 0 112 50 112 112s-49 108-112 108h-22c0 15 0 31 0 44v10c0 20 0 40-5 62 1 0 3 0 5 0 83 0 151 68 151 151l-2-2z m-151 84c47 0 84-37 84-84s-37-84-84-84c-46 0-84 38-84 84s38 84 84 84z m-603-100h67c18 0 33-15 33-34s-15-33-33-33h-65c0 0-1 0-2 0h-1c-18 0-33 15-33 33s15 34 34 34z m0-201h-67c-19 0-34 15-34 33s15 34 34 34h65c0 0 1 0 2 0h1c18-1 32-15 32-34s-15-33-33-33z m625-117c25 0 45-16 45-41s-20-44-44-44c0 0-66 1-99 1-7 0-12 0-16 0 0 0-1 0-1 0-30 0-59 17-59 54 0 41 0 97 0 97l-114-135c0 0 39-46 50-58s18-26 21-51c2-25 28-165 28-165 0-25-18-45-43-45s-42 20-42 45l-28 147-66 67-120-112-3-2c-7-5-16-8-26-8-10 0-21 4-28 10l-7 7-98 108c-6 8-9 17-9 28 0 24 19 44 44 44 12 0 22-5 30-13l3-2 65-74 87 89 1-1c-2 4-3 9-3 14 0 17 7 33 19 43l152 164h-98l-90-70-3-3c-7-5-21-12-30-12-24 0-44 17-44 42 0 12 5 24 14 32l2 2c0 0 68 56 78 64 24 19 26 27 57 27h141c21 0 75 0 112-37s33-60 33-102c0-41 0-111 0-111h89l0 1z" horiz-adv-x="1000" />

<glyph glyph-name="person-running-solid" unicode="&#xe948;" d="M644 628c25 0 89 0 132-45s48-69 48-118v-124h91c29 0 52-27 52-57l0 1c0-29-24-52-53-52l-10 0c-21 0-68 1-97 1l-22 0c-35-1-71 19-71 64v115l-137-162c0 0 46-55 60-69s25-30 25-59c0-30 17-196 17-196 0-29-22-53-51-53s-50 24-50 53l-16 173-78 80-142-132-3-2c-9-6-19-10-31-10-13 0-24 5-33 12l-8 8-110 121-6 7c-7 9-11 20-11 32 0 30 23 53 52 53 14 0 27-6 37-15l2-4 77-86 103 106 2-1c-2 5-3 11-3 16 0 21 8 39 22 51l176 185h-117l-85-60-4-4c-9-5-19-9-30-9-28 0-52 24-52 53 0 15 6 28 16 38l2 2c0 0 60 44 72 54 28 23 31 33 67 33h167z m-468-109c20 0 36-16 36-36s-16-36-36-36h-107c-20 0-36 17-36 36s16 36 36 36h107z m665 252c50 0 91-40 91-90s-41-90-91-90c-49 0-90 40-90 90s41 90 90 90z m-593-108c20 0 36-16 36-36s-16-36-36-36h-108c-19 0-35 16-35 36s16 36 35 36h108z" horiz-adv-x="1000" />

<glyph glyph-name="running-shoe" unicode="&#xe949;" d="M429 2c19 0 35-17 35-36s-16-36-35-36h-356c-20 0-36 16-36 36s16 36 36 36h356z m-158 706c51 20 67-6 96-56l18-29c39-64 101-127 242-55 10 6 22 6 32 0s17-14 19-26c5-26 7-53 11-78 3-1 7-3 10-5 16-11 20-33 9-49-3-5-6-9-11-13 2-13 4-26 6-39 5-1 10-3 15-7 16-11 19-34 6-49-2-4-5-6-7-9 11-41 28-75 56-95 15-11 43-23 71-35l1 0c63-26 117-48 117-95l1-29c0-53-48-108-185-108-83 0-154 14-215 43l-6 3c-26 14-50 29-73 48-32 27-112 100-193 175l-22 21c-99 92-195 181-202 188-17 16-27 39-28 64-1 26 8 51 24 69l58 57 1 1c15 14 93 84 149 108z m21-69c-27-14-65-43-93-66 76-70 134-170 190-267 63-110 124-214 204-268 51-25 111-36 184-36l1-1c85 0 113 24 113 35l0 24c-12 10-50 26-74 36-33 14-64 27-86 43-38 28-61 67-76 113h-2c-3-1-7-1-10-1-15 0-30 10-34 25-6 19 4 38 23 45 1 0 3 1 5 2-3 13-5 26-7 39-8-2-13-3-16-3-3-1-5-1-7-1-17 0-32 12-35 29-3 20 9 38 28 42 7 1 14 3 20 6 0 1 0 2 0 3-2 16-4 31-6 47-121-46-221-12-289 100l-18 30c-6 9-11 18-15 24z m-6-530c20 0 36-16 36-35s-16-36-36-36h-213c-20 0-36 16-36 36s16 35 36 35h213z m-108 107c19 0 36-16 36-35s-17-36-36-36h-105c-20 0-36 16-36 36s16 35 36 35h105z m-31 308l-34-33c-2-2-4-9-4-16 0-6 2-11 5-14l1-1c2-2 113-106 222-207l-10 17c-55 94-111 191-180 254z" horiz-adv-x="1000" />

<glyph glyph-name="running-shoe-solid" unicode="&#xe94a;" d="M429 2c20 0 36-16 36-36s-16-35-36-35h-355c-20 0-36 16-36 35s16 36 36 36h355z m-160 705c51 21 67-6 97-55l18-30c38-63 100-126 241-54 10 5 22 5 32 0s17-15 19-26c5-26 7-52 11-77-10-1-19-6-25-14-6-8-36-18-62-21-19-3-32-21-29-41 2-17 17-30 35-30h5c15 2 56 10 86 29 2-11 3-22 5-33-5-2-9-5-12-9-7-9-35-19-55-23-19-4-32-22-28-42 3-17 18-29 35-29l6 1c9 1 43 9 72 26 12-34 27-63 52-81 15-11 43-22 71-34 33-14 64-27 85-43h-1c47-36 35-64 34-65 0-7 0-14-1-21-2-51-51-104-185-104-121 0-217 31-293 94-32 27-112 100-193 175l-22 20c-99 92-195 182-202 189-17 15-27 38-28 63-1 26 8 51 24 69l33 33c1-1 1-2 2-3 68-58 137-148 204-235 85-110 173-224 267-286 8-5 16-10 25-14-90 45-154 238-235 343-68 89-138 180-211 243 31 27 83 69 123 85z m18-597c19 0 36-17 36-36s-17-36-36-36h-213c-20 0-36 17-36 36s16 36 36 36h213z m-108 106c19 0 35-16 35-35s-16-36-35-36h-105c-20 0-36 16-36 36s16 35 36 35h105z" horiz-adv-x="1000" />

<glyph glyph-name="chess-solid" unicode="&#xe94b;" d="M500 557c65 0 117 53 117 117s-52 117-117 117c-65 0-117-52-117-117s52-117 117-117z m-120-117c0 0 0 0 0 0h240c0 0 0 0 0 0 21 2 37 18 37 39s-18 39-39 39h-235c-21 0-39-18-39-39s17-37 37-39h-1z m310-312c-28 90-45 171-56 234h-268c-11-63-28-144-55-234h379z m31-80c0 0 0 1 0 1h-442c0 0 0-1 0-1-52-7-91-48-91-96 0-54 48-98 107-98h410c60 0 107 43 107 98 0 48-39 89-91 96z" horiz-adv-x="1000" />

<glyph glyph-name="tennis-solid" unicode="&#xe94c;" d="M783 696c55-42 99-95 130-153-85-29-135-77-167-113-125-142-123-372-56-535-60-27-126-41-191-41-99 0-199 31-283 95-68 52-117 119-148 192l-6 16 11 5c153 71 302 232 309 405l0 14c0 43-10 116-39 184 30 10 61 18 93 22 124 17 248-16 347-91z m161-225c9-27 16-56 20-85 17-124-15-247-91-347-33-43-71-78-113-106-53 137-56 331 45 445h-1c29 33 70 71 140 93z m-672 262c22-53 33-114 33-152 0-144-133-288-264-348-25 127 2 263 86 374 40 52 89 94 145 126z" horiz-adv-x="1000" />

<glyph glyph-name="person-dancing" unicode="&#xe94d;" d="M917 423c16 24 22 52 17 80-10 50-54 87-105 87-7 0-13 0-20-2 0 0-41-6-89-13 9 20 15 42 15 65 0 84-67 151-151 151s-151-67-151-151c0-11 2-22 4-33l-90 41c0 0-4 2-6 3-11 4-23 6-35 6-46 0-86-29-101-71-8-24-8-48 0-70-12 5-25 7-38 7-21 0-42-7-61-19-42-29-55-93-26-138l91-142c10-16 43-69 108-69 7 0 15 1 22 2l77 16-12-209c0 0 0-2 0-4 0-59 48-106 107-106s105 46 107 103l20 247 70 144 177 30c29 6 53 21 69 45h1z m-332 301c46 0 84-38 84-84 0-39-27-71-63-81-10-1-18-2-25-2-45 2-79 38-79 83s37 84 84 84l-1 0z m251-280l-210-37-91-185-20-262c0-22-19-40-41-40s-40 18-40 40l17 295-160-32c-4-1-7-1-10-1-22 0-36 13-52 38l-91 142c-8 13-5 38 8 47 7 5 15 7 23 7 11 0 21-4 28-12l89-122 150 27 33 74-175 90c-20 7-31 30-24 50 6 17 21 27 38 27 4 0 9-1 13-2l186-86c27-9 43-12 61-12 4 0 9 0 13 0 1 0 3 0 5 0 12 0 23 1 34 4 76 9 203 29 203 29 3 0 5 0 8 0 18 0 35-13 39-32 4-22-10-43-32-47l-2 0z m-558 1l82-42-45-8-37 50z" horiz-adv-x="1000" />

<glyph glyph-name="dumbbell" unicode="&#xe94e;" d="M871 484c-6 0-12-1-17-2v18c0 62-51 113-112 113s-113-51-113-113v-81h-258v81c0 62-51 113-112 113s-113-51-113-113v-18c-5 1-11 2-16 2-45 0-81-44-81-80v-165c0-36 35-78 81-78 5 0 10 1 16 2v-18c0-62 51-113 113-113s112 51 112 113v81h258v-81c0-62 51-113 113-113s112 51 112 113v18c5-1 11-2 17-2 45 0 80 42 80 78v165c0 36-36 80-80 80z m-742-258c-8 0-16 10-17 13v164c1 6 10 17 17 17s15-11 16-16v-165c-1-4-9-13-16-13v0z m177-81c0-27-21-48-48-48s-48 21-48 48v355c0 27 21 48 48 48s48-21 48-48v-355z m322 146h-257v64h257v-64z m162-146c0-27-22-48-48-48s-49 21-49 48v355c0 27 22 48 49 48s48-21 48-48v-355z m81 81c-8 0-16 10-17 13v164c1 6 10 17 17 17s15-11 16-16v-164c-1-4-9-14-16-14z" horiz-adv-x="1000" />

<glyph glyph-name="strength-solid" unicode="&#xe94f;" d="M772 354h-17c-60 0-114-30-155-86-22 11-54 22-84 22-45 0-103-11-157-39 3 43 10 94 25 121 4 5 29 15 82 16 21 0 41 8 56 24l51 51c9 10 20 24 25 43-27-18-49-21-53-21h0c-37 0-69 14-88 37-15 20-21 44-16 69 3 18 21 29 39 25 18-3 29-21 25-39-1-5 0-9 3-14 6-7 20-13 34-13-2 0 22 5 43 34 1 1 2 2 3 4 3 3 10 13 12 27-7 59-54 102-115 102-114 0-203-94-206-97-261-260-242-490-242-496 0-56 19-102 55-136 58-55 144-60 171-60 4 0 7 0 7 0h464c4 0 106 0 173 66 37 37 56 86 56 147 0 120-84 214-192 214l1-1z" horiz-adv-x="1000" />

<glyph glyph-name="music-clef" unicode="&#xe950;" d="M669 668c0 81-50 123-100 123-57 0-96-52-96-128v-141c-3-2-5-4-8-5-85-49-191-109-191-255 0-107 91-206 199-225v-82c0-14-15-29-35-29-29 0-37 23-37 36 0 19-16 36-36 36s-36-17-36-36c0-53 41-108 109-108 58 0 107 46 107 101v82c104 15 181 94 181 193 0 104-62 179-151 182-10 0-20 0-30-1v70c65 40 124 92 124 187h0z m-124-5c0 31 11 56 24 56 16 0 28-21 28-51 0-44-19-73-52-100v95z m-72-274c-10-6-19-13-27-21-29-28-44-69-44-116 0-20 16-36 36-36 18 0 32 13 35 29v-134c-68 18-126 83-126 151 0 93 56 136 126 177v-50h0z m100-49c59-2 81-60 81-110 0-60-45-107-109-120v228c9 2 18 2 28 2z" horiz-adv-x="1000" />

<glyph glyph-name="music-clef-solid" unicode="&#xe951;" d="M500 791c259 0 469-210 469-468s-210-469-469-469c-259 0-469 210-469 469s210 468 469 468z m57-77c-48 0-88-48-88-107v-122c-70-41-158-91-158-213 0-93 70-173 158-187v-69c0-4-1-24-21-24-24 0-31 19-31 30 0 16-13 29-29 29s-30-13-30-29c0-45 33-90 90-90 47 0 82 36 82 84v68l-1 1c90 12 159 76 159 161s-50 140-126 142c-11 0-23 0-33-1v63c57 35 111 78 111 161 0 67-41 103-83 103z m4-387c58-1 67-52 67-82 0-49-42-90-98-100v180c10 2 21 2 31 2z m-91 88v-48c-7-5-13-9-19-15-22-22-33-52-33-89 0-16 13-30 30-30 8 0 16 4 22 10v-97c-55 15-98 67-98 126 0 74 42 110 98 143z m88 238c14 0 23-17 23-42 0-40-18-65-51-89v84c0 27 15 47 28 47z" horiz-adv-x="1000" />

<glyph glyph-name="person-dancing-solid" unicode="&#xe952;" d="M179 650c9 25 37 39 63 30l240-91c44-14 64-17 98-14 77 6 295 35 295 35 27 5 53-12 58-39s-13-53-40-58l0 0-261-56-116-207-23-347c0-27-22-49-50-49s-50 22-50 49l13 365-192-17c-33-6-66 14-76 47l-68 143c-11 25 9 53 35 60s45-4 60-35l61-109 167 22 50 108-234 101c-25 9-39 37-30 62z m376 141c50 0 91-40 91-90s-41-90-91-90c-50 0-90 40-90 90s40 90 90 90z" horiz-adv-x="1000" />

<glyph glyph-name="tennis" unicode="&#xe953;" d="M437 787c-124-17-235-81-310-181-157-206-117-501 89-657 85-64 185-95 283-95 142 0 282 63 374 185 76 99 108 223 91 347s-81 234-180 310c-100 75-223 108-347 91z m-248-228c30 39 66 72 107 97 6-25 9-50 9-75 0-134-75-256-190-319-16 101 7 209 74 297z m622-473c-27-36-60-65-95-89-43 133-11 281 88 380 19 19 46 34 73 47 4-16 8-32 11-49 14-103-13-206-76-289h-1z m-75 548c49-37 87-84 113-136-35-17-73-37-101-66-122-122-160-307-102-471-123-50-269-36-382 50-61 46-105 107-130 174 150 73 249 227 249 395 0 38-5 74-14 110 25 9 51 15 78 19 18 2 36 3 54 3 85 0 166-27 235-79v1z" horiz-adv-x="1000" />

<glyph glyph-name="strength" unicode="&#xe954;" d="M772 354h-17c-60 0-114-30-155-86-22 10-54 21-84 21-45 0-103-11-157-39 3 44 10 95 25 122 4 5 29 15 82 15 21 0 41 9 56 24l51 52c36 36 33 67 28 88 4 14 5 31 5 47 0 65-55 119-121 119-114 0-203-94-206-97-261-260-242-490-242-496 0-57 19-103 55-137 58-54 144-59 171-59 4 0 7 0 7 0h464c5 0 106 0 173 66 37 37 56 86 56 147 0 119-84 213-192 213l1 0z m90-313c-47-47-125-47-127-47h-466c0 0-85-4-132 41-23 22-34 51-34 92 0 2-17 208 223 448 1 1 73 76 159 76 30 0 54-24 54-53 0-22-1-28-3-30-1-4-2-8-3-12-1-1-2-3-3-5-10-23-23-25-29-25-5 0-10 1-14 5-1 2-4 5-2 14 4 18-7 35-25 39-18 4-35-8-39-25-5-26 0-51 15-69 12-14 28-24 44-28l-5-5c-3-3-6-5-10-5-75 0-122-17-139-49-37-67-35-203-34-218 0-13 8-25 20-30s26-2 35 6c49 45 119 62 169 62 24 0 57-14 79-27 7-4 16-6 25-4 8 3 16 8 20 16 17 30 54 80 115 80h17c82 0 126-77 126-148 0-43-12-75-36-100v1z" horiz-adv-x="1000" />

<glyph glyph-name="basketball" unicode="&#xe955;" d="M321 755c-116-48-206-138-254-254s-48-243 0-358c48-116 138-206 254-254 58-24 119-35 178-35 184 0 359 108 434 289 99 239-15 514-253 612-116 48-244 48-359 0v0z m29-72c36 14 73 24 111 28v-351h-119c-8 92-43 180-101 254 32 28 68 52 109 69v0z m-163-128c43-58 69-125 77-195h-153c4 38 13 75 28 111 13 30 29 58 48 84z m-76-273h152c-7-70-33-137-76-194-19 26-35 54-48 84-14 35-24 72-27 109l-1 1z m130-252c58 73 93 160 101 252h119v-349c-37 4-75 13-111 28-40 17-77 40-109 69z m417 252c7-92 42-179 101-252-62-55-139-89-220-97v348h119l0 1z m154 272c42-56 69-124 76-194h-152c7 70 34 137 77 194h-1z m0-466c-42 57-68 124-76 193h152c-3-37-12-73-27-109-13-31-29-58-49-84z m-53 525c-59-74-94-162-101-254h-120v352c38-4 75-13 111-28 41-18 78-42 110-70v0z" horiz-adv-x="1000" />

<glyph glyph-name="basketball-solid" unicode="&#xe956;" d="M861 624c62-75 99-167 107-263h-229c13 86 68 194 122 263z m-322 167c48-4 95-15 141-34 47-19 89-46 126-77-67-81-132-211-146-319h-121v430z m121-508v-1c14-108 79-236 145-317-75-63-168-102-266-110v428h121z m309 0c-4-47-15-94-34-140l-9-19c-17-38-40-72-65-103v0c-55 69-108 176-122 262h230z m-508 508v-430h-121c-13 108-79 238-146 319 37 32 80 58 126 77 46 19 93 30 141 34z m-322-167c55-69 109-177 123-263h-230c4 48 15 96 34 142 18 44 43 85 73 121z m322-341v-429h-1c-47 4-94 15-140 34s-88 45-125 77c66 81 131 210 145 318h121z m-200-1c-14-86-67-193-122-262-30 37-55 78-74 123v-1c-19 45-29 93-34 140h230z" horiz-adv-x="1000" />

<glyph glyph-name="person-swimming" unicode="&#xe957;" d="M216 75c19 0 35-17 35-37l1-2c9-10 52-34 106-34 57 0 102 27 107 38 0 20 16 35 36 35l4-1c17-2 30-17 31-34v-2c4-10 50-36 107-36l10 0c52 3 92 27 96 37 0 20 17 35 36 35 18 0 31-14 34-30 1-3 2-5 2-6 4-10 49-36 106-36h0c20 0 36-16 36-36l-1 2c0-20-17-34-36-36-53 0-108 17-142 44-8-7-17-13-28-18-34-17-75-26-114-26l-12 0c-48 2-98 18-130 44-34-27-90-44-143-44s-107 16-142 44c-34-27-89-44-142-44-21-2-36 15-36 35s16 36 36 36h0c57 0 102 26 107 37 0 20 16 35 36 35z m299 627c57 23 128 14 154-47 24-56 0-108-64-139-11-5-21-9-30-13-40-18-53-25-59-40-4-12 4-35 14-52l42-66c3 86 71 154 159 154s160-72 160-160c0-43-16-83-46-113l0 1c-30-30-70-47-113-47-23 0-44 5-64 14l41-66c11-17 5-39-11-49-6-3-13-5-19-5-12 0-24 5-31 16l-178 285c0 0 0 0 0 0-12 19-36 67-20 113 16 44 51 60 96 80 8 4 18 9 28 13 41 20 34 37 30 46-9 22-46 15-62 9-106-42-158-82-175-133-22-71 9-132 13-139 1-1 2-5 2-5l25-71c5-14 0-29-11-39l-158-132c-15-13-37-11-50 4s-11 38 4 50l139 117-16 45c-10 21-45 99-16 191 29 93 126 142 216 178z m217-274c-49 0-89-40-89-89s40-89 89-89c49 0 89 40 89 89s-40 89-89 89z" horiz-adv-x="1000" />

<glyph glyph-name="toaster" unicode="&#xe958;" d="M500 753c164 0 288-63 288-148 0-30-5-60-37-86v-17h63c84 0 152-69 152-153v-421c0-20-16-36-36-36h-860c-20 0-36 16-36 36v422c0 84 68 152 153 152h62v17c-32 26-37 58-37 86 0 84 124 148 288 148z m394-682h-788v-108h788v108z m-80 359h-628c-44 0-81-36-81-81v-206h789v206c0 45-36 81-80 81z m-45-72c29 0 53-24 53-53s-24-54-53-54c-30 0-54 24-54 54s24 53 54 53z m-269 323l-13 0c-122-3-203-46-203-76 0-20 2-26 19-36 11-6 17-18 17-31v-36h359v36c0 13 7 25 18 31 18 10 19 16 19 36 0 31-87 76-216 76h0z" horiz-adv-x="1000" />

<glyph glyph-name="bathroom-solid" unicode="&#xe959;" d="M500 791c21 0 39-17 39-38v-861c0-21-18-38-39-38s-39 17-39 38v861c0 21 18 38 39 38z m-310-353c85 0 154-63 154-154v-408c0-10-9-19-19-19h-271c-11 0-19 9-19 19v408c0 91 69 154 155 154z m0 349c85 0 154-70 154-155v-169c0-9-3-17-8-23-19 24-42 45-69 58l-10 5c-21 8-43 13-66 13-28 0-54-7-77-18 0 1-2 1-2 1v-2c-27-14-52-36-71-62-4 6-6 12-6 20v177c0 3 1 6 2 9 5 82 68 146 153 146z m77-154h-153c0-43 34-78 76-78s77 35 77 78z m679-776h-272c-10 0-19 10-19 21v429c0 98 69 171 155 171s155-73 155-171v-429c0-11-9-21-19-21h0z m-134 698c63 0 115 53 115 117s-52 116-115 116c-64 0-116-52-116-116s52-117 116-117z" horiz-adv-x="1000" />

<glyph glyph-name="xing" unicode="&#xe95a;" d="M891 777c-6 9-16 14-28 14h-129c-28 0-39-21-45-31l-283-520c-2-3-2-8 0-11 0-1 43-83 88-167l93-177c5-9 17-31 46-31h128c12 0 21 5 27 14 6 9 6 21 0 33l-176 333 279 511c5 11 5 23 0 32z m-444-367c-2-4-31-58-62-114l-75-138c-5-9-17-31-46-31h-127c-12 0-22 5-27 15-6 9-6 21-1 31l133 242-83 149c-6 12-6 24-1 33 5 9 16 14 28 14 1 0 2 0 3 0h124c27 0 40-18 47-32 0 0 85-153 87-157 2-4 2-8 0-12z" horiz-adv-x="1000" />

<glyph glyph-name="chair" unicode="&#xe95b;" d="M652 323h-116v36h98c26 0 48 10 64 28 16 19 22 44 17 69l-40 265c-8 41-45 70-88 70h-174c-43 0-79-29-87-70l-41-264c-5-26 2-51 17-70 16-18 38-28 63-28h99v-36h-116c-56 0-100-45-100-100v-45c0-19 16-36 36-36h180v-111c-82-13-144-72-144-141 0-20 16-36 36-36s36 16 36 36c0 30 31 57 72 67v-67c0-20 16-36 36-36s36 16 36 36v67c41-10 72-37 72-67 0-20 17-36 36-36s36 16 36 36c0 69-62 128-144 141v111h180c20 0 36 17 36 36v45c0 55-44 100-100 100z m-294 110c0 0-3 6-1 12l41 264c1 5 8 10 16 10h174c8 0 15-5 16-9l41-265c1-5 0-9-2-11-2-2-4-3-8-3h-269c-4 0-6 1-8 2z m323-219h-361v9c0 15 13 27 28 27h304c16 0 28-12 28-27v-9h1z" horiz-adv-x="1000" />

<glyph glyph-name="chair-solid" unicode="&#xe95c;" d="M652 323h-116v36h98c26 0 48 10 64 28 16 19 22 44 17 69l-40 265c-8 41-45 70-88 70h-174c-43 0-79-29-87-70l-41-264c-5-26 2-51 17-70 16-18 38-28 63-28h99v-36h-116c-56 0-100-45-100-100v-45c0-19 16-36 36-36h180v-111c-82-13-144-72-144-141 0-20 16-36 36-36s36 16 36 36c0 30 31 57 72 67v-67c0-20 16-36 36-36s36 16 36 36v67c41-10 72-37 72-67 0-20 17-36 36-36s36 16 36 36c0 69-62 128-144 141v111h180c20 0 36 17 36 36v45c0 55-44 100-100 100z" horiz-adv-x="1000" />

<glyph glyph-name="guitar" unicode="&#xe95d;" d="M567 791c9 0 17-3 23-9s10-15 10-24v-134c0-13-7-24-19-30h-1c0-2 1-4 1-4v-136c78-19 127-74 127-146l4-49c1-25 8-48 23-66 44-58 47-154 7-216-50-76-143-123-242-123s-193 47-242 123c-40 61-36 158 8 215 15 18 23 41 23 63l3 55c0 69 48 124 126 143v137c0 1 1 4 1 4h-1c-12 6-19 17-19 30v133c0 19 15 34 34 34h134z m14-406v-138c12-16 19-37 19-58 0-56-45-101-100-101s-101 45-101 101c0 21 7 42 19 58v137c-38-14-59-41-59-76l-3-54c0-36-13-72-37-103-26-35-29-100-5-137 37-58 108-93 186-93s149 35 186 93c24 38 23 103-3 137-24 31-37 67-37 105l-4 49-1 0c0 39-21 66-60 80z m-14-330c18 0 33-16 33-34s-15-33-33-33h-134c-19 0-34 15-34 33s15 34 34 34h134z m-67 167c-18 0-33-15-33-33s15-34 33-34c18 0 34 15 34 34s-16 33-34 33z m14 335h-28v-269c4 0 9 1 14 1s10 0 14-1v269z m19 167h-67v-79l34-17 33 17v79z" horiz-adv-x="1000" />

<glyph glyph-name="spa" unicode="&#xe95e;" d="M926 210c21-26 40-55 40-90 0-129-204-231-466-231s-466 102-466 231c0 35 19 64 41 90 11 14 32 17 46 5s17-32 5-47c-12-14-26-33-26-47 0-78 165-165 400-165s400 87 400 165c0 14-14 32-26 47-12 15-9 35 5 47s35 9 47-5z m-425 479c83 0 150-68 150-150 0-31-10-61-26-85l15 0c14-2 88-10 142-75 42-50 58-116 48-197-7-53-52-93-105-93-6 0-11 0-16 1-16 3-31 9-44 18-7-30-33-52-65-52h-200c-32 0-59 22-65 52-13-9-28-15-44-17-5-2-11-2-16-2-53 0-98 40-105 93h1c-10 81 6 148 47 197 55 66 129 74 144 75l15 0c-16 24-26 53-26 85 0 82 67 150 150 150z m97-301h-198l-36-2c-6 0-58-4-96-50l1 1c-31-36-40-85-32-147 2-20 19-34 39-34h6c21 3 34 23 34 45 1 37 0 55 14 74 10 12 28 13 37 13h33v-166h200v166h33c9 0 26-1 35-14 14-19 14-39 15-74 1-21 13-41 35-44h6c19 0 36 14 39 34 8 61-3 110-33 146-38 45-90 50-96 50l-36 2z m-530 110c4 17 23 28 40 23s29-22 24-40c-7-29-4-36-1-45s9-21 9-39c0-27-8-50-9-52-4-14-17-23-31-23-4 0-7 1-11 2l1 1c-18 6-27 25-21 42 0 0 5 15 5 30 0 5-2 8-4 14-8 20-14 40-2 87z m799 0c5 18 23 28 41 24s28-23 24-40c-8-30-5-37-1-46s8-20 8-39c0-27-7-49-8-52-5-14-18-22-32-22-3 0-7 0-10 1l0 1c-17 6-27 25-21 42 0 0 5 15 5 31 0 5-1 8-3 13-8 20-14 40-3 87z m-367 124c-46 0-83-37-83-84s37-83 83-83c46 0 84 37 84 83s-38 84-84 84z m289 126l3-3c11-13 12-31 1-44-6-7-18-28 3-61 34-56 15-112-1-136-6-10-17-15-28-15-6 0-12 2-18 6-15 10-19 30-9 46 2 3 19 32-1 64-35 58-21 110 3 139 12 13 33 15 47 4z m-533 0h0c14-12 16-33 4-47-6-7-18-28 3-61 34-57 15-112-1-136-6-10-17-15-28-15-6 0-12 2-18 6-15 10-19 31-9 46 2 4 19 32-1 64-35 58-21 110 3 139 12 14 33 16 47 4z" horiz-adv-x="1000" />

<glyph glyph-name="guitar-solid" unicode="&#xe95f;" d="M735 192c-15 19-22 41-23 66l-4 49c0 72-49 128-127 147v136c0 0-1 2-1 3h1c12 6 19 18 19 30v135c0 9-3 17-10 24s-14 9-23 9h-134c-19 0-34-15-34-34v-133c0-13 7-24 19-30h1c0 0-1-3-1-4v-137c-78-19-126-74-126-143l-3-55c0-22-8-45-23-63-44-57-48-154-8-215 49-76 142-123 242-123 99 0 192 47 242 123 40 62 37 158-7 216v-1z m-269 532h67v-79l-33-17-34 17v79z m56-167v-237c-7 2-15 3-22 3s-15-1-23-3v237h45z m-86-350c0 0 1 3 1 4 2 6 5 12 8 16 0 0 0 0 0 1 4 5 9 10 14 14 5 4 11 7 17 9 8 3 15 4 23 4s15-2 22-4c6-2 13-5 18-9s10-9 14-14c3-5 6-11 8-17 0-1 1-2 1-3 2-6 3-12 3-19 0-37-30-67-67-67s-67 30-67 67c0 7 2 13 3 19l2-1z m131-219h-134c-19 0-34 15-34 33s15 34 34 34h134c18 0 33-16 33-34s-15-33-33-33z" horiz-adv-x="1000" />

<glyph glyph-name="spa-solid" unicode="&#xe960;" d="M924 227c22-26 41-55 41-89 0-129-204-231-465-231s-465 101-465 231c0 34 20 63 41 89 11 14 32 16 46 5s17-32 5-47c-12-14-26-33-26-47 0-77 164-164 399-164s399 87 399 164c0 14-14 32-26 47-12 15-9 35 5 47s35 9 46-5z m-313 178l40-2c7 0 65-5 107-56 34-42 47-98 38-168-3-25-25-42-50-38l-1-1c-24 4-42 27-39 51 6 44-2 77-17 99-14 19-47 15-47 15h-10v-200l-265-1v201h-10c0 0-32 4-46-15-17-21-24-55-18-98 3-25-14-48-39-51s-48 13-51 38c-9 70 4 127 38 168 43 51 101 56 108 56l40 2h222z m296 133c17-5 28-23 24-41-8-29-5-36-1-45s8-20 8-39c0-27-7-49-8-52-5-13-18-22-32-22-4 0-7 1-11 2l1 0c-18 6-27 25-21 42 1 1 5 15 5 31 0 5-1 7-3 13-8 20-14 40-3 87 5 17 23 28 41 24z m-792 0c18-5 29-23 25-41-8-29-5-36-1-45s8-20 8-39c0-27-7-49-8-52-5-13-18-22-32-22-4 0-7 1-11 2-17 6-26 25-20 42 0 1 5 15 5 30 0 5-1 8-4 14-8 20-14 40-2 86 4 18 22 29 40 25z m385 100c55 0 100-45 100-100s-45-99-100-99c-55 0-100 44-100 99s45 100 100 100z m223 88c12 14 33 16 47 4l3-3c11-12 12-30 1-43-6-7-18-28 3-61 34-56 15-112-1-136-6-10-17-15-28-15-6 0-12 2-18 6-15 10-19 31-9 46 2 3 19 32-1 64-35 58-21 109 3 138z m-497 0c12 14 34 16 48 4v1c14-12 16-33 4-47-6-7-18-28 3-61 35-56 16-112-1-136-6-10-17-15-28-15-7 0-13 2-19 6-15 10-19 31-9 46 2 3 19 32-1 64-36 58-22 109 3 138z" horiz-adv-x="1000" />

<glyph glyph-name="person-walking" unicode="&#xe961;" d="M746 235c15-8 33-13 50-13 37 0 71 20 91 51 14 24 19 53 12 81-7 27-24 50-48 65-2 1-4 2-5 2l-228 113c-7 3-13 7-20 10 22 26 36 59 36 97 0 83-67 150-151 150s-151-67-151-150c0-38 15-71 37-98-6-2-11-5-17-8l-193-78c-3-2-6-3-10-5-24-15-41-38-48-65-7-28-2-56 12-80 19-32 54-52 91-52 16 0 32 4 47 12l81 28v-97l-22-78-124-62c0 0-3-2-5-3-49-30-64-98-34-149 19-32 54-52 91-52 18 0 36 5 52 13l167 80c0 0 4 3 6 3 20 13 36 32 45 55l14 36 120-142c19-28 51-45 87-45 19 0 38 5 55 15 24 15 41 38 47 66s3 56-12 80c-2 2-3 4-4 6l-148 191v57l79-34h0z m-262 489c46 0 84-37 84-83s-38-84-84-84c-47 0-84 37-84 84s37 83 84 83z m279-744c11-18 5-42-13-54-7-4-14-5-20-5-13 0-26 6-33 18l-196 232-54-142c-4-9-10-16-18-21l-169-82c-6-4-13-5-20-5-14 0-27 6-34 19-11 18-7 46 11 57l150 75 34 116v201l-176-61c-6-4-13-6-20-6-13 0-26 7-33 19-11 18-6 42 13 54l198 80c16 10 35 15 54 15h96c19 0 38-6 54-15l230-114c18-11 24-35 13-53-7-12-20-19-33-19-7 0-14 2-21 6l-175 76v-183l162-209v1z" horiz-adv-x="1000" />

<glyph glyph-name="yammer" unicode="&#xe962;" d="M963 330c-8 38-39 62-82 59l-36-4c-28-3-56-6-84-10-37-5-76-11-114-23-8-3-17-7-25-12-11-6-18-17-19-28s5-23 15-31c6-5 14-11 29-14 17-5 34-9 52-12 69-11 136-13 193-14h0c22 0 42 10 56 27 14 17 19 40 15 62z m-132-203c-67 37-123 64-177 85-23 8-45 16-70 18-1 0-4 0-5 0-1 0-6 0-7 0-19-3-27-14-30-20-4-6-8-20 2-36 3-6 7-13 14-19l18-16c18-17 36-33 55-48 38-30 78-58 121-88 13-9 26-13 40-13 18 0 35 7 49 20 17 16 26 40 23 65-3 23-15 42-33 52z m-263 270c4-1 8-1 13-1 4 0 8 0 12 1l9 2c15 4 29 7 43 12 65 24 126 55 181 85 23 13 37 34 39 62 0 37-24 68-58 76-31 7-54-10-61-15l-36-26c-30-22-60-43-89-66-17-13-33-28-49-44l-15-13c-7-7-12-15-15-22-7-15-3-26-1-32 3-6 11-16 27-19z m-8 189l-54-136c-43-109-86-218-129-327-13-32-26-64-40-95-11-25-27-47-47-66-28-26-63-40-108-45-8 0-15-1-23-1-14 0-29 1-45 4-38 5-64 39-60 77 4 38 37 64 73 64l9 0c8-1 15-1 23-1 22 1 38 11 48 31 8 16 15 32 22 48l3 8-95 237c-32 79-63 157-94 236-3 7-7 16-7 27-1 34 22 67 53 77 7 2 13 4 20 5 34 1 66-24 77-51 27-72 55-144 83-216l44-114 109 293c4 10 7 20 11 30 14 40 55 60 94 47 19-6 34-20 43-38 9-18 10-39 3-58-4-12-9-24-13-36z" horiz-adv-x="1000" />

<glyph glyph-name="disco-solid" unicode="&#xe963;" d="M228-11c15-10 19-30 9-45l-32-52c-6-9-16-14-27-14-5 0-11 1-17 5l0-1c-15 10-19 31-10 46l32 51c10 15 30 20 45 10z m240 202v-219c-43 28-83 107-101 219h101z m-167 0c13-83 36-153 68-205-91 38-163 112-198 205h130z m-202-70c15 9 35 5 44-11 9-15 5-35-10-45l-51-33 0 1c-5-4-11-5-17-5-11 0-21 5-27 15-10 15-5 35 10 45l51 33z m532 537c91-38 162-112 198-205h-131c-11 83-35 153-67 205z m-99 15c42-27 83-107 101-219h-101v219z m386-60c15 10 35 5 44-10 10-16 5-36-10-46l-51-32c-5-4-11-6-17-6-11 0-21 6-27 16-10 15-5 35 10 45l51 33 0 0z m-81 149c15-10 20-30 10-45l-32-51c-6-10-16-15-27-15-5 0-11 1-17 5l0-1c-15 11-19 31-10 46l32 51c10 15 30 20 44 10z m-337 5c17 0 32-14 32-32v-52c0-17-15-32-32-32s-32 15-32 32v52c0 18 14 32 32 32z m-132-109c-31-52-55-122-67-205h-130c35 93 107 167 197 205z m100 15v-219h-102c19 112 59 191 102 219z m0-285h-110c-1-21-2-43-2-65s1-45 2-67h110v132z m237 0c1-22 2-43 2-65s0-45-2-67h142c4 22 6 44 6 66 0 22-2 44-6 66h-142z m-72-197c-19-112-59-191-101-219v219h101z m196 0c-36-93-108-167-199-205 32 52 56 122 68 205h131z m-683 132c0-23 2-45 6-66h142c-1 21-2 43-2 66s1 44 2 65h-142c-4-21-6-43-6-65z m497 0c0 22-1 44-2 65h-109v-132h109c1 22 2 44 2 67z" horiz-adv-x="1000" />

<glyph glyph-name="origami" unicode="&#xe964;" d="M109-130c7-11 18-16 30-16 3 0 5 0 7 0l361 72c0 0 2 1 3 2 1 0 2 0 4 1 1 0 1 1 2 1 1 0 1 1 2 1 2 1 4 2 5 3 1 1 1 1 2 2 2 2 3 3 5 5l144 217c4 5 6 13 6 20v144h181c15 0 28 10 34 24s1 30-11 40l-214 179c0 0-1 0-2 1-2 2-6 4-8 6-1 0-1 0-2 1-4 1-8 2-12 2 0 0-1 0-1 0 0 0-2 0-2 0-4 0-7-1-11-2-1 0-2-1-3-1-4-2-7-4-10-7l-31-31-53 161c-4 14-16 23-30 25s-28-5-35-18l-85-140-220 219c-11 10-26 13-40 8s-22-19-22-34v-432c0-10 4-19 11-26l158-159-162-227c-9-12-9-28-1-41v0z m499 319l-72-108v298l62 62 10 10v-262l0 0z m72 273l81-67h-81v67z m-189 136l40-121-31-31-63 63 54 89z m-316 70l289-288v-331l-289 288v331z m149-582l103-102-205-41 102 144v-1z" horiz-adv-x="1000" />

<glyph glyph-name="origami-solid" unicode="&#xe965;" d="M194 70l198-180-285-36c-2 0-4 0-7 0-11 0-21 5-27 14-8 11-8 25 0 36l121 166z m454 505l4-1c1 0 2-1 3-1 2 0 3 0 5 0l0-1c1 0 1-1 1-1l3-2c2-1 3-2 5-3 0-1 2-2 2-2l10-11v-194h-1v-179c0-7-2-15-6-20l-132-216c-1-2-6-7-6-7v530l96 105c0 0 1 1 2 1h1c1 0 2 0 3 1s3 1 5 1h5z m-522 211l337-316v-532l-391 368c-3 5-5 11-5 17v433c0 14 9 27 24 33 11 4 24 3 35-3z m374-67l5 0-1 0c14-2 26-11 31-23l37-87-72-70-72 72 42 92c5 8 14 14 24 16l6 0z m421-337l-169 121v-180h141c16 0 31 8 37 21s3 28-9 38v0z" horiz-adv-x="1000" />

<glyph glyph-name="bowling" unicode="&#xe966;" d="M132 606c0-22 5-41 10-58 7-28 14-54 3-97-5-12-15-29-27-49-52-89-148-254-24-440 19-25 37-39 58-41h163c12 2 25 9 38 23 3-6 6-10 10-16 18-24 36-38 57-40h163c18 2 36 16 54 41 4 4 6 9 9 13 13-12 26-19 41-21h163c17 2 35 16 54 41 127 172 30 344-22 436-13 22-23 41-27 50-12 44-5 68 2 96 5 17 10 38 10 63 0 100-34 150-100 150s-100-50-100-150c0-22 5-41 9-58 8-28 15-54 4-97-5-12-15-29-27-49-6-12-14-25-22-39-7 13-13 26-19 37-10 21-20 39-23 48-12 43-6 67 2 95 4 18 10 38 10 64 0 99-34 149-100 149s-101-50-101-150c0-22 5-40 10-58 8-28 14-54 3-96-4-12-13-28-23-47-7-13-15-28-23-44-7 13-13 25-20 36-12 22-22 41-26 51-12 43-6 67 2 95 4 18 10 38 10 64 0 99-34 149-100 149s-101-50-101-150l0-1z m127-184c4-10 10-21 17-33h-88c6 11 12 22 17 33h54z m312-468h-142c-4 4-9 9-12 13-70 106-53 215-18 302 0 0 0 1 0 2 7 18 15 35 23 51h155c47-97 95-233 7-353-4-5-9-11-13-14v-1z m-98 468h54c4-10 10-21 16-33h-86c5 11 11 22 16 33z m266 0h55c4-10 10-21 17-33h-88c6 11 12 22 17 33h-1z m28 267c11 0 34 0 34-83 0-16-4-30-8-46-6-19-11-41-11-71h-30c1 31-5 56-11 76-4 15-7 28-7 41 0 83 22 83 33 83z m-100-405c5 13 12 26 18 38h163c46-87 89-203 3-320-4-5-9-11-12-14h-143c-3 3-9 8-12 12-1 3-2 4-4 7 37 98 18 196-13 277z m-166 405c10 0 33 0 33-83 0-16-4-30-8-46-5-19-11-41-10-71h-31c1 31-5 56-10 76-4 15-8 28-8 41 0 83 22 83 34 83z m-179-678c-2-4-4-6-6-9-4-5-9-11-13-14h-142c-4 3-9 8-12 12-83 126-43 238 1 322h163c6-13 13-27 19-41-28-78-45-172-10-270z m-56 595c0-16-4-30-8-46-5-19-11-41-10-72h-31c1 32-5 56-10 77-4 14-8 27-8 41 0 83 22 83 34 83s33 0 33-83v0z" horiz-adv-x="1000" />

<glyph glyph-name="bowling-solid" unicode="&#xe967;" d="M236 476c0 44 17 69 17 108 0 77-21 107-61 107s-62-30-62-107c0-36 18-62 17-108h89z m-118-492h146c11 2 29 25 29 25 4 6 8 11 11 16l1 16c-33 88-16 174 12 245-22 53-51 97-67 128h-118c-40-77-160-228-43-405 0 0 18-24 29-25l0 0z m427 492c-1 44 17 69 17 108 0 77-21 107-62 107-41 0-61-30-61-107 0-36 18-62 16-108h90z m-147-497c0 0 18-24 28-25h147c11 1 28 25 28 25 122 166-4 353-43 436h-117c-40-81-161-259-43-436z m456 497c-2 46 17 72 17 108 0 77-21 107-62 107-40 0-61-30-61-107 0-40 18-64 16-108h90z m-104-61c-15-32-44-76-66-129 28-71 45-157 12-245l0-16c4-5 7-10 11-16 0 0 18-23 29-25h146c11 2 29 25 29 25 117 177-3 328-43 406h-118z" horiz-adv-x="1000" />

<glyph glyph-name="lotus" unicode="&#xe968;" d="M864 135c99 156 99 335 99 343 0 10-5 21-13 28-8 7-18 11-30 10-6-1-145-14-265-83-37 149-122 256-126 261-8 9-19 14-30 14s-23-5-30-14c-2-2-89-113-127-266-119 72-256 87-262 87-11 1-22-2-30-9-8-7-12-18-12-28 0-8-3-187 96-343 80-128 207-196 365-198 159 1 285 70 365 198z m-366 468c33-52 82-146 94-255 14-116-18-222-93-315-183 225-63 471 0 570h-1z m-300-427c-58 93-76 197-82 255 53-11 141-35 212-86-10-100 8-212 82-321-90 20-161 71-212 152z m389-152c67 98 95 207 82 327 72 48 161 71 213 81-6-58-24-163-83-256-51-81-122-132-212-152z" horiz-adv-x="1000" />

<glyph glyph-name="information-point-solid" unicode="&#xe969;" d="M500 791c-259 0-469-210-469-468s210-469 469-469c259 0 469 210 469 469s-210 468-469 468z m-27-186c36 16 78-2 94-39s-3-79-39-94c-9-4-18-5-27-5s-19 2-28 5c-18 7-32 21-39 39-15 37 3 79 39 94h0z m99-517c0-30-24-54-55-54h-34c-31 0-55 24-55 54v251c0 31 24 55 55 55h34c31 0 55-24 55-55v-251z" horiz-adv-x="1000" />

<glyph glyph-name="music" unicode="&#xe96a;" d="M919 784c-9 7-20 9-31 6l-541-144c-16-4-27-18-27-35v-460c-27 18-57 27-90 27-89 0-162-72-163-162 0-89 73-162 163-162s162 72 162 162c0 4-1 8-1 13 0 2 1 3 1 5v406l469 125v-270c-26 18-57 28-91 28-89 0-162-73-162-163s73-162 163-162c90 0 155 67 161 152 0 1 1 3 1 5v600c0 11-6 22-14 28l0 1z m-689-858c-50 0-90 41-90 91 0 49 40 90 90 90 24 0 47-10 64-27s26-40 26-64c0-49-40-90-90-90z m162 588v69l469 125v-69l-469-125z m379-444c-49 0-90 41-90 91 0 49 40 90 90 90 49 0 90-40 90-90v-1c0-49-40-90-90-90z" horiz-adv-x="1000" />

<glyph glyph-name="parking" unicode="&#xe96b;" d="M745 791c84 0 152-67 152-151v-635c0-84-68-151-152-151h-490c-84 0-152 67-152 151v635c0 84 68 151 152 151h490z m0-72h-490c-44 0-80-35-80-79v-635c0-44 36-79 80-79h490c44 0 80 35 80 79v635c0 44-36 79-80 79z m-207-130c57 0 102-15 133-46s47-73 47-126c0-52-16-94-47-125s-76-46-133-46h-145v-189h-111v532h255l1 0z m-14-96h-131v-153h131c26 0 46 7 60 20s21 31 21 57c0 25-7 45-21 57s-34 19-60 19z" horiz-adv-x="1000" />

<glyph glyph-name="lotus-solid" unicode="&#xe96c;" d="M516 701c3-4 309-384 0-756-4-5-10-8-16-8s-12 3-16 8c-309 372-3 752 0 756 8 9 24 9 32 0z m438-190c5-5 9-11 9-17-1-5-7-361-336-518 106 161 119 324 88 464 111 70 214 74 220 75 6 0 14 0 19-4z m-889 4c8 0 108-5 217-75-30-140-18-304 86-464-314 151-330 491-330 516l0 2c0 6 3 12 8 17h0c5 4 12 4 19 4z" horiz-adv-x="1000" />

<glyph glyph-name="parking-solid" unicode="&#xe96d;" d="M746 791c80 0 145-65 145-144l-1-649c0-79-65-144-145-144h-491c-80 0-145 65-145 144l1 649c0 79 65 144 145 144h491z m-207-180h-276v-577h121v206h156c62 0 111 16 145 49l-1 0c34 33 51 78 51 135s-17 103-51 137c-34 33-82 50-145 50z m-13-104c27 0 49-7 64-20s23-35 23-62c0-27-8-48-23-62s-37-21-64-21h-142v165h142z" horiz-adv-x="1000" />

<glyph glyph-name="music-solid" unicode="&#xe96e;" d="M919 784c-9 7-20 9-31 6l-541-144c-16-4-27-18-27-35v-460c-27 18-57 27-90 27-91 0-163-72-163-162s73-162 163-162c89 0 162 72 162 162 0 4-1 8-1 13 0 2 1 3 1 5v397l469 125v-261c-26 18-57 28-91 28-89 0-162-73-162-163s73-162 163-162c90 0 155 67 161 152 0 1 1 3 1 5v600c0 11-6 22-14 28l0 1z" horiz-adv-x="1000" />

<glyph glyph-name="puzzle-solid" unicode="&#xe96f;" d="M918 317c-28 12-55 4-79-19-7-6-18-8-27-5-6 3-13 8-14 19v225c0 9-7 17-17 17h-211c-6 1-10 4-13 9-3 9 0 16 7 25 22 25 27 59 15 87-13 29-42 45-79 45s-66-16-79-45c-13-28-7-62 15-88 7-8 10-15 7-24-2-6-6-8-10-9h-214c-9 0-17-8-17-17v-229c-1-6-4-10-9-12-9-3-24-1-33 7-24 20-52 24-79 12-28-13-44-40-44-76s17-64 45-76c27-13 54-6 78 16 9 7 22 10 32 6 6-2 9-6 10-11v-232c0-9 7-17 17-17h214c4 1 7 4 10 9 3 9 0 16-7 25-22 25-28 59-15 87 13 29 42 45 79 45s66-16 79-44c13-28 7-63-15-88-7-8-10-16-7-25 3-5 7-8 13-8h211c10 0 17 7 17 17v224c0 9 4 16 10 19 9 4 23 1 32-6 24-23 51-29 78-16 29 12 46 42 46 80s-18 61-46 74v-1z" horiz-adv-x="1000" />

<glyph glyph-name="microphone" unicode="&#xe970;" d="M605 29l62 416c0 0 3 3 5 5 6 12 39 77 39 130 0 120-90 211-211 211s-211-91-211-211c0-53 33-118 39-130 1-2 3-2 4-4l63-417c2-18 17-31 34-31h39c14-88 80-144 172-144 19 0 35 16 35 36s-16 36-35 36c-53 0-88 26-100 72h30c17 0 32 13 35 31h0z m-238 510c-4 15-8 30-8 40 0 83 58 140 141 140s141-57 141-140c0-11-4-25-8-40h-266z m33-72h199l-59-397h-35c0 0-4 1-5 1s-4-1-6-1h-35l-59 397h0z" horiz-adv-x="1000" />

<glyph glyph-name="person-walking-solid" unicode="&#xe971;" d="M127 451c-23-14-31-44-17-67 14-24 44-31 67-17l210 95v-267l-50-155-176-89c-24-14-28-49-15-73 14-23 45-31 68-17l196 103c10 6 17 15 22 26l68 181 233-294c14-23 45-30 68-16 23 14 30 45 16 68l-203 266v230l209-95c23-14 53-6 67 17s7 54-17 68l-265 141c-21 12-44 19-68 19h-120c-24 0-47-7-68-19l-225-105v0z m270 279c-16-47 9-98 56-114s99 9 114 56c16 47-9 99-56 115s-98-9-114-57z" horiz-adv-x="1000" />

<glyph glyph-name="drama-masks" unicode="&#xe972;" d="M657 789c22 0 39-17 39-39v-77h234c21 0 39-18 39-39v-444c0-184-149-334-331-334-98 0-189 43-252 117-7 0-14-1-22-1-184 0-333 150-333 335v443c0 22 18 39 39 39h587z m233-194h-195v-288c0-10 0-21-1-31 60-19 105-72 116-142 4-21-10-41-32-44h-6c-19 0-35 13-38 32-7 38-28 65-57 77-32-96-107-172-201-206 45-38 102-60 161-60 140 0 253 116 253 257v405z m-272 117h-509v-405c0-142 114-257 254-257s255 115 255 257v405z m-396-351c22 4 41-11 45-32 8-49 50-84 97-84s88 34 96 82c4 21 25 35 45 32 22-4 36-24 32-45-15-85-88-147-173-147-87 0-160 63-174 149-3 22 11 41 32 45z" horiz-adv-x="1000" />

<glyph glyph-name="drama-masks-solid" unicode="&#xe973;" d="M929 672c21 0 39-18 39-39v-443l1 1c0-185-149-335-331-335-64 0-125 19-177 53 155 36 275 147 305 285 24-14 41-39 46-71 3-19 20-33 38-33h7c21 4 35 24 32 45-11 68-56 121-115 140v397h155z m-272 117c21 0 38-17 39-38v-490c0-157-154-286-344-289-177 7-321 154-321 334v444c0 21 18 39 39 39h587z m-435-429c-21-3-35-23-32-44 14-87 87-150 174-150 63 0 119 34 150 87l17 39c3 7 5 14 6 21 4 21-10 42-32 45-21 3-41-10-45-31-8-48-48-83-96-83s-89 36-97 84c-4 22-24 36-45 32z" horiz-adv-x="1000" />

<glyph glyph-name="gender-female-solid" unicode="&#xe974;" d="M500 791c259 0 469-210 469-468s-210-469-469-469c-259 0-469 210-469 469s210 468 469 468z m0-144c-120 0-217-97-217-216 0-107 79-195 181-213v-76h-72c-20 0-36-16-36-36s16-36 36-36h72v-72c0-19 16-36 36-36s36 17 36 36v72h72c20 0 36 16 36 36s-16 36-36 36h-72v76h0c103 17 181 106 181 213 0 119-97 216-217 216z m0-72c80 0 145-65 145-144s-65-145-145-145c-80 0-145 65-145 145s65 144 145 144z" horiz-adv-x="1000" />

<glyph glyph-name="full-time" unicode="&#xe975;" d="M500 791c259 0 469-210 469-468s-210-469-469-469c-259 0-469 210-469 469s210 468 469 468z m0-72c-219 0-397-178-397-396s178-397 397-397c219 0 397 178 397 397s-178 396-397 396z m342-292v-31l-79-183h-36l80 183h-118v31h153z m-607 5c15 0 28-3 40-8s20-14 26-24c6-10 10-21 10-32 0-14-2-25-6-34-3-10-8-18-16-24s-15-13-25-22l0 0-52-43h100v-31h-152v31l83 69c8 7 13 12 18 16s8 10 11 16c3 5 4 12 4 18 0 11-4 20-11 27-8 7-17 10-29 10-15 0-26-4-33-14s-10-20-10-32h-36c0 13 3 26 8 37s14 21 26 29c11 7 26 11 44 11z m241-1v-136h31v-31h-31v-50h-36v50h-102v28l106 139h32z m170-1l-78-215h-34l78 215h34z m-206-51l-64-84h64v84z" horiz-adv-x="1000" />

<glyph glyph-name="full-time-solid" unicode="&#xe976;" d="M500 791c-259 0-469-210-469-468s210-469 469-469c259 0 469 210 469 469s-210 468-469 468z m-188-578h-152v31l83 70c7 6 13 11 17 16s8 9 11 15c3 6 5 12 5 19 0 11-4 20-12 26-7 7-16 10-29 10-15 0-26-4-33-13s-10-20-10-33h-35c0 14 3 26 8 38s14 21 25 28c12 7 27 11 45 11 15 0 28-3 39-8 12-6 20-13 27-24s9-20 9-32c0-13-2-25-5-34-4-9-9-17-16-23-7-7-16-14-26-23l-52-43h100v-31l1 0z m195 50h-31v-50h-35v50h-103v29l106 139h32v-137h31v-31z m61-48h-33l78 215h33l-78-215z m275 212v-31l-80-183h-36l80 183h-117v31h153z m-403-48v-84h-64l64 84z" horiz-adv-x="1000" />

<glyph glyph-name="hotel" unicode="&#xe977;" d="M745 791c84 0 152-67 152-151v-635c0-84-68-151-152-151h-490c-84 0-152 67-152 151v635c0 84 68 151 152 151h490z m0-72h-490c-44 0-80-35-80-79v-635c0-44 36-79 80-79h490c44 0 80 35 80 79v635c0 44-36 79-80 79z m-244-577c2 0 5-4 5-4l20-40h1l41-5c2-1 4-2 5-5s-1-6-1-6l-31-31 10-46c1-2 0-5-2-7-1-1-3-1-4-1-1 0-3 1-3 1l-41 21-41-21c-2-2-5-1-7 0-2 2-3 5-2 7l10 46-31 31c-2 1-3 4-2 6 1 3 3 5 6 5l40 5 21 40c1 3 3 4 6 4z m-188-3c3 5 10 5 13 0l20-41 41-4c2-1 4-2 5-5s-2-6-2-6l-30-31 10-46c0-2-1-5-3-7-1-1-2-1-4-1 0 0-2 1-2 1l-41 21-41-21c-3-2-5-1-7 0-3 2-3 5-3 7l10 46-30 31c-2 1-3 4-2 6 1 3 3 5 5 5l41 4 20 41z m361 0c3 5 10 5 12 0l21-41 40-4c3-1 5-2 5-5s-1-6-1-6l-31-31 10-46c1-2 0-5-2-7-1-1-2-1-4-1-1 0-3 1-3 1l-41 21-41-21c-2-2-5-1-7 0-2 2-3 5-2 7l10 46-31 31c-1 1-2 4-1 6 0 3 3 5 5 5l40 4 21 41z m-66 147c3 0 6-3 6-3h1l20-41 41-5c2-1 4-2 5-4s-2-7-2-7l-30-30 10-47c0-2-1-5-3-6-1-2-2-2-4-2 0 0-2 1-2 1l-41 21-41-21c-3-1-5-1-7 1s-3 4-3 6l10 47-30 30c-2 1-3 4-2 7 1 2 3 4 5 4l41 5 20 41c1 2 4 3 6 3z m-215 2c3 0 6-4 6-4l20-41 41-5c2 0 4-2 5-4s-1-7-1-7l-31-30 10-46c0-3-1-5-3-7 0-1-1-1-2-1l-1 0-1 0c0 0 0 0-1 0l0 1-41 21-41-21c-2-2-5-1-7 0-3 2-3 4-3 7l10 46-30 30c-2 2-3 5-2 7 1 2 3 4 5 4l41 5 21 41c0 2 3 4 5 4z m43 375v-124h128v124h72v-321h-72v130h-128v-130h-72v321h72z" horiz-adv-x="1000" />

<glyph glyph-name="language-DE" unicode="&#xe978;" d="M500 791c259 0 469-210 469-468s-210-469-469-469c-259 0-469 210-469 469s210 468 469 468z m0-72c-219 0-397-178-397-396s178-397 397-397c219 0 397 178 397 397s-178 396-397 396z m-136-252c30 0 55-6 75-18s37-28 48-50c11-22 16-47 16-77s-6-55-16-77c-11-21-27-38-48-49s-45-18-75-18h-104v289h104z m379 0v-42h-157v-79h140v-40h-140v-86h157v-42h-204v289h204z m-379-42h-57v-205h57c29 0 51 8 67 26 16 18 24 43 24 76s-7 59-24 77c-16 17-38 26-67 26z" horiz-adv-x="1000" />

<glyph glyph-name="language-DE-solid" unicode="&#xe979;" d="M500 791c259 0 469-210 469-468s-210-469-469-469c-259 0-469 210-469 469s210 468 469 468z m242-324h-204v-289h204v42h-157v86h140v40h-140v79h157v42z m-379 0h-104v-289h104c29 0 54 6 75 18s37 28 47 49c11 22 16 47 16 77s-5 55-16 77c-10 22-26 38-47 50-21 12-46 18-75 18z m0-42c28 0 51-9 67-26 16-18 24-44 24-77s-8-58-24-76c-16-18-39-26-67-26h-58v205h58z" horiz-adv-x="1000" />

<glyph glyph-name="lactose-low-solid" unicode="&#xe97a;" d="M500 791c-259 0-469-210-469-468s210-469 469-469c259 0 469 210 469 469s-210 468-469 468z m-53-314l34 68c-10 6-17 17-17 29v37c0 19 17 36 37 36h143c20 0 36-17 36-36v-37c0-12-7-23-16-29l34-68c7-15 12-30 15-46h-281c4 16 8 31 15 46z m-102-252l-72-72c-7-7-16-11-25-11s-19 4-26 11l-72 72c-14 14-14 37 0 51s37 14 51 0l11-11v167c0 19 16 36 36 36s36-17 36-36v-167l10 11c14 14 37 14 51 0s14-37 0-51z m371-119c0-59-48-108-108-108h-72c-60 0-108 49-108 108v253h288v-253z" horiz-adv-x="1000" />

<glyph glyph-name="gluten-low" unicode="&#xe97b;" d="M500 791c258 0 469-210 469-468s-211-469-469-469c-258 0-469 210-469 469s211 468 469 468z m0-78c-216 0-391-175-391-390s175-391 391-391c216 0 391 175 391 391s-175 390-391 390z m78-78l19-21c50-54 51-139 7-196v0c24 21 53 34 85 34h32v-25c0-71-53-136-117-150v-28c24 21 53 34 85 34h32v-25c0-70-53-135-117-150v-59c0-14-11-26-26-26s-26 12-26 26v59c-64 15-117 80-117 150v26h32c32 0 62-14 85-35v28c-64 14-117 79-117 150v26h32c32 0 62-13 85-35l-6 8c-38 57-34 136 13 188l19 21z m-273-169c14 0 26-12 26-26v-210l27 27c10 11 26 11 37 0s10-26 0-37l-72-71c-5-6-11-8-18-8s-14 3-18 8l-72 71c-11 11-11 28 0 37 10 11 26 11 37 0 0 0 0 0 1 0l26-27v210c0 14 11 26 26 26z m187-239c9-27 30-51 55-63-9 29-30 53-55 63z m172 0c-24-10-45-34-55-63 25 12 46 36 55 63z m-172 170c9-28 30-52 55-64-9 30-30 54-55 64z m172 0c-25-10-46-34-55-64 25 12 46 36 55 64z m-86 151c-9-23-9-49 0-72 9 23 9 49 0 72z" horiz-adv-x="1000" />

<glyph glyph-name="piano" unicode="&#xe97c;" d="M930-107v859c0 22-18 39-39 39h-782c-21 0-39-17-39-39v-859c0-22 18-39 39-39h782c21 0 39 17 39 39z m-313 430v390h78v-390h-78z m-39-79h39v-312h-234v312h39c21 0 39 18 39 39v430h78v-430c0-21 18-39 39-39z m-195 469v-390h-78v390h78z m-235 0h79v-430c0-21 17-39 39-39h39v-312h-157v781z m704-781h-157v312h39c22 0 40 18 40 39v430h78v-781z" horiz-adv-x="1000" />

<glyph glyph-name="hotel-solid" unicode="&#xe97d;" d="M255 791c-84 0-152-67-152-151v-635c0-84 68-151 152-151h490c84 0 152 67 152 151v635c0 84-68 151-152 151h-490z m426-558c0 0 0-6-2-7l-30-30 10-47c0-2 0-5-3-6-1-1-2-2-4-2 0 0-1 0-2 1l-41 21-41-21c0 0-5-1-7 1s-3 4-3 6l10 47-30 30c0 0-3 4-2 7s3 3 5 4l41 5 20 41c0 0 4 3 6 3s5-1 6-3l20-41 41-5c2 0 4-2 5-4h1z m-317 430h72v-124h128v124h72v-321h-72v130h-128v-130h-72v321z m27-581l-31-30 10-46c1-3 0-6-2-7-1-1-3-2-4-2-1 0-2 0-3 1l-41 22-41-22c0 0-4-1-7 1-2 1-3 4-2 7l10 46-31 30c0 0-2 4-1 7s2 4 5 4l40 5 21 41c2 4 10 4 12 0l21-41 40-5c2 0 5-2 5-4 1-3 0-5-1-7z m-39 62c0 0-5-1-7 0s-3 4-3 7l10 46-30 30c0 0-3 5-2 7s3 4 6 4l40 5 21 41c0 0 3 4 5 4s5-2 6-4l20-41 41-5c2 0 5-2 5-4 1-2 0-5-1-7l-31-30 10-46c0-3 0-5-3-7 0-1-2-1-3-1-1 0-2 0-3 1l-41 21-41-21h1z m219-62l-31-31 11-46c0-2 0-5-3-7-1-1-2-1-4-1-1 0-2 0-3 1l-40 21-41-21c0 0-6-1-8 0s-2 5-2 7l10 46-31 31c0 0-2 4-1 6s3 4 5 5l41 5 20 40c0 0 4 4 6 4s5-1 6-4l20-40 40-5c3 0 5-2 6-5 1-2 0-5-2-6h1z m182 7c0 0 0-5-1-6l-31-31 10-46c0-2 0-5-3-7-1-1-2-1-3-1-1 0-2 0-3 1l-41 21-41-21c0 0-5-1-7 0s-3 5-3 7l10 46-30 31c0 0-3 4-2 6s3 4 6 5l40 4 21 41c2 5 9 5 12 0l20-41 41-4c2 0 4-2 5-5z" horiz-adv-x="1000" />

<glyph glyph-name="dresser" unicode="&#xe97e;" d="M933 791c19 0 36-16 36-36v-107c0-20-17-37-36-37h-36v-615c0-19-17-36-36-36h-36v-70c0-20-17-36-36-36h-145c-19 0-36 16-36 36v70h-216v-70c0-20-16-36-36-36h-144c-20 0-36 16-36 36v70h-37c-19 0-36 17-36 36v615h-36c-19 0-36 16-36 36v108c0 20 17 36 36 36h866z m-613-831h-72v-34h72v34z m432 0h-72v-34h72v34z m73 219h-649v-146h649v146z m-253-36c20 0 36-17 36-36s-16-36-36-36h-144c-20 0-36 16-36 36s16 36 36 36h144z m253 252h-649v-144h649v144z m-253-35c20 0 36-17 36-36s-16-37-36-37h-144c-20 0-36 17-36 37s16 36 36 36h144z m253 251h-649v-144h649v144z m-253-36c20 0 36-16 36-36s-16-36-36-36h-144c-20 0-36 17-36 36s16 36 36 36h144z m325 144h-794v-36h794v36z" horiz-adv-x="1000" />

<glyph glyph-name="microphone-solid" unicode="&#xe97f;" d="M711 580c0 120-90 211-211 211s-211-91-211-211c0-25 8-53 16-77h390c8 24 16 52 16 77h0z m-106-551l61 402h-331l60-402c3-18 17-31 35-31h38c15-88 80-144 173-144 19 0 35 16 35 36 0 19-16 36-35 36-53 0-88 26-101 72h30c18 0 32 13 35 31z" horiz-adv-x="1000" />

<glyph glyph-name="person-fitness" unicode="&#xe980;" d="M840-84c13 26 15 56 5 84l-2 6-3 5-155 265-48 165 69 150c12 30 12 62 0 90-13 28-38 50-68 60l-147 47h-2c-9 2-18 3-27 3-52 0-97-34-109-83-1-3-1-6-2-9-16 5-33 9-52 9-83 0-150-67-150-150 0-60 34-111 84-135l-5-3-4-3-4-2c-2-2-4-3-7-5-22-14-75-47-63-134l15-101 1-7 2-6c15-43 60-74 107-74 6 0 11 0 16 2l-35-87-1-2v-2c-10-28-8-57 5-84 14-26 38-47 66-56 11-4 23-5 35-5 46 0 88 29 104 72l63 152 110-160c18-39 58-64 102-64 12 0 23 1 34 5 28 9 53 29 65 56l1 1z m-541 725c47 0 84-37 84-83s-37-84-84-84c-46 0-83 37-83 84s37 83 83 83z m455-717c-4-2-9-3-14-3-18 0-36 12-42 30l-165 238-33-1-97-237c-6-18-23-30-42-30-5 0-9 1-14 3-23 7-36 31-29 54l115 283-18 76-107-47 8-79c2-22-8-47-29-53-4-2-8-2-12-2-18 0-38 11-44 29l-15 101c-7 52 21 59 43 75l188 101c18 13 28 28 28 28l75 115-104 37c-20 9-34 29-29 50 5 20 24 33 44 33 4 0 8 0 12-1l144-46c25-8 37-35 27-58l-79-173 58-197 158-272c8-23-4-47-28-54h1z" horiz-adv-x="1000" />

<glyph glyph-name="person-fitness-solid" unicode="&#xe981;" d="M394 752c7 28 36 45 64 38l168-49c29-9 43-40 32-67l-74-207 68-230 170-318c9-26-6-54-33-63s-57 5-66 32l-164 274h-45l-128-274c-9-27-38-40-66-32-27 9-42 38-33 64l143 330-20 89c0 0-26-12-54-24l-18-8c-28-12-54-24-54-24v-112c2-25-8-55-33-62-24-8-56 5-65 31l-9 139 0 1c-7 49 12 64 34 77l8 5c3 2 5 4 8 6l219 118c22 15 33 32 33 32l67 141-114 34-5 2c-24 9-40 33-33 57z m-72-70c59 0 108-48 108-108s-49-107-108-107c-59 0-108 48-108 107s49 108 108 108z" horiz-adv-x="1000" />

<glyph glyph-name="puzzle" unicode="&#xe982;" d="M902 346c-32 13-64 9-93-12v189c0 26-21 47-47 47h-165c16 30 18 65 5 95-18 37-56 60-102 60s-85-22-102-60c-14-30-12-65 5-95h-166c-26 0-47-21-47-47v-186c-29 19-62 22-95 7-37-17-59-54-59-99s22-82 61-100c32-14 65-10 93 11v-188c0-26 21-47 47-47h205c15 2 27 13 33 27 7 19 3 37-12 55-13 14-16 33-9 48 9 21 32 24 45 24s37-3 46-24c7-15 3-34-9-48-15-18-19-36-11-55 6-16 19-25 40-28h197c26 0 47 22 47 48v187c30-20 62-24 94-10 38 17 61 56 61 104s-22 80-62 97h0z m-24-144c-10-4-22-6-41 10-16 15-42 19-62 11-18-8-28-25-28-46v-194h-150c16 29 18 65 5 94-18 38-56 60-102 60s-85-22-102-60c-14-29-12-64 5-94h-151v206c-2 16-13 29-29 35-20 7-45 2-61-12-18-16-31-14-40-10-17 8-24 21-24 43s7 36 23 43c14 7 28 4 41-7 17-14 42-19 61-11 16 6 26 19 29 36v202h190c15 4 27 14 33 28 7 19 3 38-12 55-13 14-16 33-9 49 9 20 32 23 45 23s37-3 46-23c7-16 3-35-9-49-15-17-19-36-11-55 6-15 19-25 40-28h183v-196c0-21 13-38 31-45 21-8 44-3 59 11 18 17 30 15 40 12 17-7 24-19 24-40 0-14-4-38-25-47l1-1z" horiz-adv-x="1000" />

<glyph glyph-name="user-male-solid" unicode="&#xe983;" d="M125-6v-103c0-21 17-37 37-37h676c20 0 37 16 37 37v103c0 191-168 347-375 347s-375-156-375-347z m375 422c104 0 188 84 188 188s-84 187-188 187c-104 0-188-84-188-187s84-188 188-188z" horiz-adv-x="1000" />

<glyph glyph-name="presentation" unicode="&#xe984;" d="M31 752v-586c0-21 18-39 39-39h430v-206c0-37 30-67 67-67h217c37 0 68 30 68 67v206h78c21 0 39 18 39 39v586c0 22-18 39-39 39h-860c-21 0-39-17-39-39z m742-820h-195v234c0 3-1 7-2 10-3 14-8 27-19 38l-209 204c-8 10-4 13 0 18s7 7 16-1l149-141c7-7 16-11 27-11h211c18 0 23-22 23-34v-318l-1 1z m-156 527c0 32 26 58 59 58s58-26 58-58c0-32-26-58-58-58s-59 26-59 58z m-508 254h782v-508h-39v44c0 57-35 101-83 111 26 25 44 60 44 99 0 76-62 136-137 136s-136-61-136-136c0-38 16-73 41-98h-26l-137 129c-4 4-28 27-64 27-15 0-39-4-61-27-46-47-25-101 0-127l162-158h-346v508z" horiz-adv-x="1000" />

<glyph glyph-name="face-neutral" unicode="&#xe985;" d="M500 791c259 0 469-210 469-468s-210-469-469-469c-259 0-469 210-469 469s210 468 469 468z m0-72c-219 0-397-178-397-396s178-397 397-397c219 0 397 178 397 397s-178 396-397 396z m142-505c20 0 36-16 36-36s-16-36-36-36h-288c-20 0-36 17-36 36s16 36 36 36h288z" horiz-adv-x="1000" />

<glyph glyph-name="face-anger" unicode="&#xe986;" d="M500 791c259 0 469-210 469-468s-210-469-469-469c-259 0-469 210-469 469s210 468 469 468z m0-72c-219 0-397-178-397-396s178-397 397-397c219 0 397 178 397 397s-178 396-397 396z m1-505c69 0 133-32 173-87 12-16 8-39-8-50-6-4-14-7-21-7-11 0-22 5-30 15-26 36-69 57-114 57s-89-21-115-57c-12-16-35-20-51-8-16 12-20 34-8 50 39 55 104 87 173 87h1z m154 314c14 14 37 14 51 0s14-37 0-51l-47-47h58c21 0 36-16 36-36 0-20-16-36-36-36v1h-144c-15 0-28 8-34 22s-2 29 8 39l108 108z m-360 2c14 14 37 14 51 0l108-110c10-10 13-26 8-39-6-13-19-22-34-22h-144c-20 0-36 16-36 36s16 36 36 36h58l-47 48c-15 14-14 37 0 51z" horiz-adv-x="1000" />

<glyph glyph-name="face-anger-solid" unicode="&#xe987;" d="M500 791c-259 0-469-210-469-468s210-469 469-469c259 0 469 210 469 469s-210 468-469 468z m-216-432c-20 0-36 15-36 36s16 36 36 36h57l-46 46c-14 14-14 37 0 51s37 14 51 0l107-108c11-10 14-26 8-39s-19-22-33-22h-144z m381-282c-6-5-14-7-21-7-11 0-22 5-29 15-26 36-69 57-115 57s-89-21-115-57c-12-16-34-20-50-8s-20 34-9 50c40 55 105 87 174 87s133-32 173-87c11-16 8-38-9-50h1z m51 282h-144c-15 0-28 9-33 22s-3 29 7 40l108 108c14 14 37 14 51 0s14-37 0-51l-47-47h58c20 0 36-17 36-37 0-20-16-36-36-36l0 1z" horiz-adv-x="1000" />

<glyph glyph-name="user-female-solid" unicode="&#xe988;" d="M175-39v-92c0-8 7-15 17-15h616c10 0 17 6 17 15v92c0 159-146 289-325 289s-325-130-325-289h0z m542 413v-113c-27 19-57 34-89 45 34 17 64 40 89 68z m-434 1c25-28 55-51 88-68-31-12-61-27-88-45v113z m162 163c26-22 64-36 107-36h152c-30-83-110-144-204-144s-174 61-204 144h42c43 0 81 14 107 36z m272 37c0 119-97 216-217 216s-217-96-217-216c0 0 0 0 1 0h54c43 0 71 21 71 36 0 20 16 36 36 36s36-16 36-36c0-15 28-36 71-36h162c0 0 2-1 3-1 0 0 0 0 0 1h0z" horiz-adv-x="1000" />

</font>
</defs>
</svg>
