<?xml version="1.0" encoding="UTF-8"?>
<svg width="486px" height="114px" viewBox="0 0 486 114" version="1.1" xmlns="http://www.w3.org/2000/svg" xmlns:xlink="http://www.w3.org/1999/xlink">
    <!-- Generator: Sketch 52.6 (67491) - http://www.bohemiancoding.com/sketch -->
    <title>Group 28</title>
    <desc>Created with Sketch.</desc>
    <g id="Guidelines-Design-System" stroke="none" stroke-width="1" fill="none" fill-rule="evenodd">
        <g id="A.6-Accesibilidad---Navegación" transform="translate(-411.000000, -2341.000000)">
            <g id="Group-28" transform="translate(411.000000, 2341.000000)">
                <g id="Group-40" transform="translate(0.000000, 1.000000)">
                    <rect id="Rectangle-3" fill="#003399" x="0" y="0" width="218" height="113" rx="7"></rect>
                    <path d="M20.0107422,18.1865234 L19.9833984,18.1865234 L18.5683594,22.2197266 L21.4257812,22.2197266 L20.0107422,18.1865234 Z M18.9306641,16.2314453 L21.1455078,16.2314453 L24.9804688,26 L22.8134766,26 L21.9726562,23.7578125 L18.0078125,23.7578125 L17.1533203,26 L15.1230469,26 L18.9306641,16.2314453 Z M26.2041016,18.7880859 L31.9189453,18.7880859 L31.9189453,20.3330078 L28.3369141,24.5439453 L32.0419922,24.5439453 L32.0419922,26 L26.0537109,26 L26.0537109,24.4755859 L29.7041016,20.2441406 L26.2041016,20.2441406 L26.2041016,18.7880859 Z M40.5732422,26 L38.7958984,26 L38.7958984,25.0224609 L38.7685547,25.0224609 C38.1806611,25.7653032 37.3922575,26.1481119 36.4033203,26.1708984 C35.5511025,26.1617838 34.9335957,25.8906277 34.5507812,25.3574219 C34.1497376,24.8333307 33.9492188,24.1611369 33.9492188,23.3408203 L33.9492188,18.7880859 L35.8291016,18.7880859 L35.8291016,22.6435547 C35.8291016,22.7438156 35.8382161,22.8509109 35.8564453,22.9648438 C35.8564453,23.0742193 35.8610026,23.1904291 35.8701172,23.3134766 C35.8883464,23.5550142 35.9293617,23.7828765 35.9931641,23.9970703 C36.079753,24.2021495 36.2027987,24.3707676 36.3623047,24.5029297 C36.526368,24.6442064 36.7542303,24.7148438 37.0458984,24.7148438 C37.3922543,24.7148438 37.6770822,24.6259775 37.9003906,24.4482422 C38.1145844,24.2887362 38.2763666,24.0882174 38.3857422,23.8466797 C38.5179043,23.6005847 38.6022134,23.3431003 38.6386719,23.0742188 C38.6796877,22.8053372 38.7001953,22.55241 38.7001953,22.3154297 L38.7001953,18.7880859 L40.5732422,18.7880859 L40.5732422,26 Z M42.9794922,15.5 L44.859375,15.5 L44.859375,26 L42.9794922,26 L42.9794922,15.5 Z M51.1347656,24.4072266 L55.7216797,17.7695312 L51.3125,17.7695312 L51.3125,16.2314453 L57.8134766,16.2314453 L57.8134766,17.8242188 L53.1787109,24.4619141 L57.9091797,24.4619141 L57.9091797,26 L51.1347656,26 L51.1347656,24.4072266 Z M66.4404297,26 L64.6630859,26 L64.6630859,25.0224609 L64.6357422,25.0224609 C64.0478486,25.7653032 63.259445,26.1481119 62.2705078,26.1708984 C61.41829,26.1617838 60.8007832,25.8906277 60.4179688,25.3574219 C60.0169251,24.8333307 59.8164062,24.1611369 59.8164062,23.3408203 L59.8164062,18.7880859 L61.6962891,18.7880859 L61.6962891,22.6435547 C61.6962891,22.7438156 61.7054036,22.8509109 61.7236328,22.9648438 C61.7236328,23.0742193 61.7281901,23.1904291 61.7373047,23.3134766 C61.7555339,23.5550142 61.7965492,23.7828765 61.8603516,23.9970703 C61.9469405,24.2021495 62.0699862,24.3707676 62.2294922,24.5029297 C62.3935555,24.6442064 62.6214178,24.7148438 62.9130859,24.7148438 C63.2594418,24.7148438 63.5442697,24.6259775 63.7675781,24.4482422 C63.9817719,24.2887362 64.1435541,24.0882174 64.2529297,23.8466797 C64.3850918,23.6005847 64.4694009,23.3431003 64.5058594,23.0742188 C64.5468752,22.8053372 64.5673828,22.55241 64.5673828,22.3154297 L64.5673828,18.7880859 L66.4404297,18.7880859 L66.4404297,26 Z M68.8466797,18.7880859 L70.5146484,18.7880859 L70.5146484,20.4287109 L70.5419922,20.4287109 C70.6012373,20.0550112 70.8063133,19.6676452 71.1572266,19.2666016 C71.5035825,18.8564433 71.9570284,18.6422527 72.5175781,18.6240234 C72.704428,18.6240234 72.8958324,18.6422524 73.0917969,18.6787109 L73.0917969,20.5654297 C72.8958324,20.4651688 72.6155617,20.4150391 72.2509766,20.4150391 C71.8772768,20.4150391 71.5878917,20.5175771 71.3828125,20.7226562 C71.1777333,20.9186208 71.0250656,21.1761052 70.9248047,21.4951172 C70.8291011,21.7913426 70.7721355,22.1080712 70.7539062,22.4453125 C70.735677,22.7734391 70.7265625,23.076496 70.7265625,23.3544922 L70.7265625,26 L68.8466797,26 L68.8466797,18.7880859 Z M74.7324219,18.7880859 L76.6123047,18.7880859 L76.6123047,26 L74.7324219,26 L74.7324219,18.7880859 Z M74.7324219,15.6845703 L76.6123047,15.6845703 L76.6123047,17.4755859 L74.7324219,17.4755859 L74.7324219,15.6845703 Z M83.6943359,20.3466797 C83.5348299,20.2600907 83.3570973,20.1940106 83.1611328,20.1484375 C82.9560537,20.1028644 82.7099624,20.0800781 82.4228516,20.0800781 C81.8440726,20.0891928 81.3860694,20.2942688 81.0488281,20.6953125 C80.6933576,21.1054708 80.515625,21.6614548 80.515625,22.3632812 C80.515625,23.0332065 80.6796859,23.5869119 81.0078125,24.0244141 C81.3268245,24.4755882 81.8121712,24.7057291 82.4638672,24.7148438 C82.7327487,24.7148438 83.0039049,24.6715499 83.2773438,24.5849609 C83.5371107,24.5211585 83.746744,24.4505212 83.90625,24.3730469 L83.9882812,25.9316406 C83.7285143,26.0136723 83.4482437,26.0683592 83.1474609,26.0957031 C82.8512355,26.1458336 82.5071634,26.1708984 82.1152344,26.1708984 C80.9394472,26.1617838 80.0576201,25.7972041 79.4697266,25.0771484 C78.8636037,24.375322 78.5605469,23.4707087 78.5605469,22.3632812 C78.5605469,21.287755 78.8636037,20.3990921 79.4697266,19.6972656 C80.0667348,18.9908819 80.9257756,18.6331381 82.046875,18.6240234 C82.771488,18.6240234 83.3776017,18.7037752 83.8652344,18.8632812 L83.6943359,20.3466797 Z M85.6699219,15.5 L87.5498047,15.5 L87.5498047,19.7724609 L87.5771484,19.7724609 C88.078453,19.0250614 88.8349559,18.6422527 89.8466797,18.6240234 C90.6943402,18.6331381 91.3186829,18.899737 91.7197266,19.4238281 C92.102541,19.943362 92.2939453,20.6178344 92.2939453,21.4472656 L92.2939453,26 L90.4208984,26 L90.4208984,22.1513672 C90.4208984,21.9189442 90.4140626,21.6796887 90.4003906,21.4335938 C90.391276,21.1920561 90.3457035,20.9733083 90.2636719,20.7773438 C90.1998695,20.56315 90.0836597,20.3899746 89.9150391,20.2578125 C89.7373038,20.1393223 89.4980484,20.0800781 89.1972656,20.0800781 C88.8645817,20.0800781 88.5957042,20.1598299 88.390625,20.3193359 C88.1855458,20.4742846 88.0169277,20.6748035 87.8847656,20.9208984 C87.7617181,21.1624361 87.6774091,21.4176419 87.6318359,21.6865234 C87.5771482,21.9690769 87.5498047,22.2311186 87.5498047,22.4726562 L87.5498047,26 L85.6699219,26 L85.6699219,15.5 Z M101.987305,16.2314453 L103.716797,16.2314453 L103.716797,26 L101.761719,26 L101.761719,18.453125 L100.107422,19.7998047 L99.1298828,18.5214844 L101.987305,16.2314453 Z" id="Azul-Zurich-1" fill="#FFFFFF"></path>
                    <path d="M54.7265625,55.0703125 L54.6953125,55.0703125 L53.078125,59.6796875 L56.34375,59.6796875 L54.7265625,55.0703125 Z M53.4921875,52.8359375 L56.0234375,52.8359375 L60.40625,64 L57.9296875,64 L56.96875,61.4375 L52.4375,61.4375 L51.4609375,64 L49.140625,64 L53.4921875,52.8359375 Z M67.46875,56.1953125 C68.3906296,55.7890605 69.3463492,55.5807292 70.3359375,55.5703125 C72.7369912,55.5390623 73.9218752,56.6953008 73.890625,59.0390625 L73.890625,60.09375 C73.890625,60.8958373 73.9010416,61.5833305 73.921875,62.15625 C73.9427084,62.765628 73.9739581,63.3802052 74.015625,64 L72.125,64 C72.0624997,63.4999975 72.03125,63.0885433 72.03125,62.765625 L72,62.765625 C71.7447904,63.2135439 71.3880231,63.5598946 70.9296875,63.8046875 C70.4609352,64.0651055 69.9687526,64.1953125 69.453125,64.1953125 C68.7083296,64.1848958 68.0520862,63.9713562 67.484375,63.5546875 C66.890622,63.1380188 66.5885417,62.5338581 66.578125,61.7421875 C66.578125,61.1223927 66.7161445,60.6223977 66.9921875,60.2421875 C67.2473971,59.8567689 67.578123,59.5729176 67.984375,59.390625 C68.4114605,59.187499 68.8645809,59.0546878 69.34375,58.9921875 C69.8333358,58.9401039 70.3020811,58.9140625 70.75,58.9140625 L71.9375,58.9140625 C71.9375,58.2526009 71.7864598,57.7890638 71.484375,57.5234375 C71.1874985,57.2630195 70.7187532,57.1328125 70.078125,57.1328125 C69.1406203,57.1484376 68.2942746,57.4479137 67.5390625,58.03125 L67.46875,56.1953125 Z M68.625,61.6171875 C68.625,61.9557309 68.7578112,62.2057284 69.0234375,62.3671875 C69.2682304,62.5390634 69.5885397,62.625 69.984375,62.625 C70.6458366,62.6145833 71.1458316,62.3697941 71.484375,61.890625 C71.7968766,61.4114559 71.9479167,60.8463574 71.9375,60.1953125 L71.0078125,60.1953125 C70.8880202,60.1953125 70.7656256,60.1953125 70.640625,60.1953125 C70.510416,60.1953125 70.3828131,60.2057291 70.2578125,60.2265625 C69.9765611,60.2578127 69.7135429,60.320312 69.46875,60.4140625 C69.2239571,60.5130213 69.0286466,60.6588532 68.8828125,60.8515625 C68.7109366,61.0390634 68.625,61.2942692 68.625,61.6171875 Z" id="A-a" fill="#FFFFFF"></path>
                    <path d="M149.726562,55.0703125 L149.695312,55.0703125 L148.078125,59.6796875 L151.34375,59.6796875 L149.726562,55.0703125 Z M148.492188,52.8359375 L151.023438,52.8359375 L155.40625,64 L152.929688,64 L151.96875,61.4375 L147.4375,61.4375 L146.460938,64 L144.140625,64 L148.492188,52.8359375 Z M162.46875,56.1953125 C163.39063,55.7890605 164.346349,55.5807292 165.335938,55.5703125 C167.736991,55.5390623 168.921875,56.6953008 168.890625,59.0390625 L168.890625,60.09375 C168.890625,60.8958373 168.901042,61.5833305 168.921875,62.15625 C168.942708,62.765628 168.973958,63.3802052 169.015625,64 L167.125,64 C167.0625,63.4999975 167.03125,63.0885433 167.03125,62.765625 L167,62.765625 C166.74479,63.2135439 166.388023,63.5598946 165.929688,63.8046875 C165.460935,64.0651055 164.968753,64.1953125 164.453125,64.1953125 C163.70833,64.1848958 163.052086,63.9713562 162.484375,63.5546875 C161.890622,63.1380188 161.588542,62.5338581 161.578125,61.7421875 C161.578125,61.1223927 161.716144,60.6223977 161.992188,60.2421875 C162.247397,59.8567689 162.578123,59.5729176 162.984375,59.390625 C163.41146,59.187499 163.864581,59.0546878 164.34375,58.9921875 C164.833336,58.9401039 165.302081,58.9140625 165.75,58.9140625 L166.9375,58.9140625 C166.9375,58.2526009 166.78646,57.7890638 166.484375,57.5234375 C166.187499,57.2630195 165.718753,57.1328125 165.078125,57.1328125 C164.14062,57.1484376 163.294275,57.4479137 162.539062,58.03125 L162.46875,56.1953125 Z M163.625,61.6171875 C163.625,61.9557309 163.757811,62.2057284 164.023438,62.3671875 C164.26823,62.5390634 164.58854,62.625 164.984375,62.625 C165.645837,62.6145833 166.145832,62.3697941 166.484375,61.890625 C166.796877,61.4114559 166.947917,60.8463574 166.9375,60.1953125 L166.007812,60.1953125 C165.88802,60.1953125 165.765626,60.1953125 165.640625,60.1953125 C165.510416,60.1953125 165.382813,60.2057291 165.257812,60.2265625 C164.976561,60.2578127 164.713543,60.320312 164.46875,60.4140625 C164.223957,60.5130213 164.028647,60.6588532 163.882812,60.8515625 C163.710937,61.0390634 163.625,61.2942692 163.625,61.6171875 Z" id="A-a-Copy" fill="#000000"></path>
                    <rect id="Rectangle-8" fill="#000000" x="20" y="77" width="84" height="27" rx="4"></rect>
                    <rect id="Rectangle-8-Copy" fill="#000000" x="115" y="77" width="84" height="27" rx="4"></rect>
                    <path d="M49.9257812,89.75 L50.609375,89.75 C51.1243515,89.7591146 51.5641258,89.6565766 51.9287109,89.4423828 C52.2841815,89.228189 52.4664713,88.8453804 52.4755859,88.2939453 C52.4755859,88.0068345 52.4277349,87.7653005 52.3320312,87.5693359 C52.2317703,87.3733714 52.0973316,87.218425 51.9287109,87.1044922 C51.5732404,86.8811838 51.1334662,86.7695312 50.609375,86.7695312 L49.9257812,86.7695312 L49.9257812,89.75 Z M47.9638672,85.2314453 L50.4453125,85.2314453 C51.5436253,85.2223307 52.4892538,85.4182923 53.2822266,85.8193359 C54.0888712,86.2386089 54.501302,87.0270124 54.5195312,88.1845703 C54.5104166,89.3011124 54.1503942,90.0986304 53.4394531,90.5771484 C52.7285121,91.0602238 51.8330132,91.2972006 50.7529297,91.2880859 L49.9257812,91.2880859 L49.9257812,95 L47.9638672,95 L47.9638672,85.2314453 Z M56.5087891,88.1708984 C57.3154337,87.8154279 58.1516884,87.6331381 59.0175781,87.6240234 C61.1185001,87.5966796 62.1552736,88.6083882 62.1279297,90.6591797 L62.1279297,91.5820312 C62.1279297,92.2838577 62.1370442,92.8854142 62.1552734,93.3867188 C62.1735027,93.9199245 62.2008462,94.4576796 62.2373047,95 L60.5830078,95 C60.52832,94.5624978 60.5009766,94.2024754 60.5009766,93.9199219 L60.4736328,93.9199219 C60.2503244,94.3118509 59.938153,94.6149078 59.5371094,94.8291016 C59.1269511,95.0569673 58.6962913,95.1708984 58.2451172,95.1708984 C57.5934212,95.1617838 57.0192082,94.9749367 56.5224609,94.6103516 C56.0029271,94.2457664 55.7386068,93.7171259 55.7294922,93.0244141 C55.7294922,92.4820936 55.8502592,92.044598 56.0917969,91.7119141 C56.3151053,91.3746728 56.6044904,91.1263029 56.9599609,90.9667969 C57.3336607,90.7890616 57.7301411,90.6728518 58.1494141,90.6181641 C58.5778016,90.5725909 58.9879538,90.5498047 59.3798828,90.5498047 L60.4189453,90.5498047 C60.4189453,89.9710258 60.2867852,89.5654308 60.0224609,89.3330078 C59.762694,89.1051421 59.3525419,88.9912109 58.7919922,88.9912109 C57.9716756,89.0048829 57.2311231,89.2669245 56.5703125,89.7773438 L56.5087891,88.1708984 Z M57.5205078,92.9150391 C57.5205078,93.2112645 57.6367176,93.4300123 57.8691406,93.5712891 C58.0833344,93.7216804 58.363605,93.796875 58.7099609,93.796875 C59.2887399,93.7877604 59.7262355,93.5735698 60.0224609,93.1542969 C60.2958998,92.7350239 60.4280599,92.2405627 60.4189453,91.6708984 L59.2841797,91.6708984 C59.1702468,91.6708984 59.0585943,91.6800129 58.9492188,91.6982422 C58.7031238,91.7255861 58.4729828,91.780273 58.2587891,91.8623047 C58.0445953,91.9488937 57.8736986,92.0764966 57.7460938,92.2451172 C57.5957024,92.4091805 57.5205078,92.6324856 57.5205078,92.9150391 Z M68.6972656,89.3056641 C68.4283841,89.2008458 68.1663424,89.121094 67.9111328,89.0664062 C67.6604805,89.0162758 67.3619809,88.9912109 67.015625,88.9912109 C66.7558581,88.9912109 66.514324,89.0436193 66.2910156,89.1484375 C66.0449206,89.271485 65.9173178,89.4856756 65.9082031,89.7910156 C65.9173178,90.0644545 66.0904931,90.2558588 66.4277344,90.3652344 C66.5872404,90.4290368 66.764973,90.4905596 66.9609375,90.5498047 C67.156902,90.6044925 67.3528636,90.6682939 67.5488281,90.7412109 C67.7630219,90.8095707 67.968098,90.8938797 68.1640625,90.9941406 C68.3509124,91.1080735 68.5195305,91.2402336 68.6699219,91.390625 C68.8294279,91.5455737 68.9547521,91.736978 69.0458984,91.9648438 C69.1324874,92.1972668 69.1757812,92.4820947 69.1757812,92.8193359 C69.1529947,93.6487672 68.8431019,94.2503237 68.2460938,94.6240234 C67.6490856,94.9886086 66.9495483,95.1708984 66.1474609,95.1708984 C65.4319626,95.1617838 64.7233108,95.0592458 64.0214844,94.8632812 L64.1308594,93.3183594 C64.7187529,93.6373714 65.3362598,93.796875 65.9833984,93.796875 C66.2431654,93.796875 66.5074856,93.7307949 66.7763672,93.5986328 C67.0589207,93.4801426 67.2047526,93.2522803 67.2138672,92.9150391 C67.2138672,92.7281892 67.1705733,92.5732428 67.0839844,92.4501953 C66.9928381,92.3408198 66.8675138,92.2519535 66.7080078,92.1835938 C66.3798812,92.0559889 66.006187,91.9352219 65.5869141,91.8212891 C65.3909495,91.7574867 65.194988,91.6777349 64.9990234,91.5820312 C64.8030589,91.490885 64.6253263,91.3701179 64.4658203,91.2197266 C64.3108716,91.0693352 64.1901046,90.8824881 64.1035156,90.6591797 C64.0032547,90.4449859 63.953125,90.178387 63.953125,89.859375 C63.9622396,89.0755169 64.256182,88.5081398 64.8349609,88.1572266 C65.3772814,87.801756 66.0244103,87.6240234 66.7763672,87.6240234 C67.2184267,87.6240234 67.6012354,87.6468097 67.9248047,87.6923828 C68.2438167,87.7470706 68.5423163,87.8131507 68.8203125,87.890625 L68.6972656,89.3056641 Z M75.3486328,89.3056641 C75.0797513,89.2008458 74.8177096,89.121094 74.5625,89.0664062 C74.3118477,89.0162758 74.0133481,88.9912109 73.6669922,88.9912109 C73.4072253,88.9912109 73.1656912,89.0436193 72.9423828,89.1484375 C72.6962878,89.271485 72.5686849,89.4856756 72.5595703,89.7910156 C72.5686849,90.0644545 72.7418603,90.2558588 73.0791016,90.3652344 C73.2386076,90.4290368 73.4163402,90.4905596 73.6123047,90.5498047 C73.8082692,90.6044925 74.0042308,90.6682939 74.2001953,90.7412109 C74.4143891,90.8095707 74.6194652,90.8938797 74.8154297,90.9941406 C75.0022796,91.1080735 75.1708977,91.2402336 75.3212891,91.390625 C75.4807951,91.5455737 75.6061193,91.736978 75.6972656,91.9648438 C75.7838546,92.1972668 75.8271484,92.4820947 75.8271484,92.8193359 C75.8043619,93.6487672 75.4944691,94.2503237 74.8974609,94.6240234 C74.3004527,94.9886086 73.6009155,95.1708984 72.7988281,95.1708984 C72.0833298,95.1617838 71.374678,95.0592458 70.6728516,94.8632812 L70.7822266,93.3183594 C71.3701201,93.6373714 71.987627,93.796875 72.6347656,93.796875 C72.8945325,93.796875 73.1588528,93.7307949 73.4277344,93.5986328 C73.7102879,93.4801426 73.8561197,93.2522803 73.8652344,92.9150391 C73.8652344,92.7281892 73.8219405,92.5732428 73.7353516,92.4501953 C73.6442053,92.3408198 73.518881,92.2519535 73.359375,92.1835938 C73.0312484,92.0559889 72.6575542,91.9352219 72.2382812,91.8212891 C72.0423167,91.7574867 71.8463551,91.6777349 71.6503906,91.5820312 C71.4544261,91.490885 71.2766935,91.3701179 71.1171875,91.2197266 C70.9622388,91.0693352 70.8414718,90.8824881 70.7548828,90.6591797 C70.6546219,90.4449859 70.6044922,90.178387 70.6044922,89.859375 C70.6136068,89.0755169 70.9075492,88.5081398 71.4863281,88.1572266 C72.0286485,87.801756 72.6757775,87.6240234 73.4277344,87.6240234 C73.8697939,87.6240234 74.2526025,87.6468097 74.5761719,87.6923828 C74.8951839,87.7470706 75.1936835,87.8131507 75.4716797,87.890625 L75.3486328,89.3056641 Z" id="Pass" fill="#FFFFFF"></path>
                    <path d="M146.134766,85.2314453 L151.5625,85.2314453 L151.5625,86.7695312 L148.09668,86.7695312 L148.09668,89.1757812 L151.398438,89.1757812 L151.398438,90.7138672 L148.09668,90.7138672 L148.09668,95 L146.134766,95 L146.134766,85.2314453 Z M153.722656,88.1708984 C154.529301,87.8154279 155.365556,87.6331381 156.231445,87.6240234 C158.332367,87.5966796 159.369141,88.6083882 159.341797,90.6591797 L159.341797,91.5820312 C159.341797,92.2838577 159.350911,92.8854142 159.369141,93.3867188 C159.38737,93.9199245 159.414713,94.4576796 159.451172,95 L157.796875,95 C157.742187,94.5624978 157.714844,94.2024754 157.714844,93.9199219 L157.6875,93.9199219 C157.464192,94.3118509 157.15202,94.6149078 156.750977,94.8291016 C156.340818,95.0569673 155.910159,95.1708984 155.458984,95.1708984 C154.807288,95.1617838 154.233075,94.9749367 153.736328,94.6103516 C153.216794,94.2457664 152.952474,93.7171259 152.943359,93.0244141 C152.943359,92.4820936 153.064126,92.044598 153.305664,91.7119141 C153.528972,91.3746728 153.818358,91.1263029 154.173828,90.9667969 C154.547528,90.7890616 154.944008,90.6728518 155.363281,90.6181641 C155.791669,90.5725909 156.201821,90.5498047 156.59375,90.5498047 L157.632812,90.5498047 C157.632812,89.9710258 157.500652,89.5654308 157.236328,89.3330078 C156.976561,89.1051421 156.566409,88.9912109 156.005859,88.9912109 C155.185543,89.0048829 154.44499,89.2669245 153.78418,89.7773438 L153.722656,88.1708984 Z M154.734375,92.9150391 C154.734375,93.2112645 154.850585,93.4300123 155.083008,93.5712891 C155.297202,93.7216804 155.577472,93.796875 155.923828,93.796875 C156.502607,93.7877604 156.940103,93.5735698 157.236328,93.1542969 C157.509767,92.7350239 157.641927,92.2405627 157.632812,91.6708984 L156.498047,91.6708984 C156.384114,91.6708984 156.272461,91.6800129 156.163086,91.6982422 C155.916991,91.7255861 155.68685,91.780273 155.472656,91.8623047 C155.258462,91.9488937 155.087566,92.0764966 154.959961,92.2451172 C154.80957,92.4091805 154.734375,92.6324856 154.734375,92.9150391 Z M161.666016,87.7880859 L163.545898,87.7880859 L163.545898,95 L161.666016,95 L161.666016,87.7880859 Z M161.666016,84.6845703 L163.545898,84.6845703 L163.545898,86.4755859 L161.666016,86.4755859 L161.666016,84.6845703 Z M165.993164,84.5 L167.873047,84.5 L167.873047,95 L165.993164,95 L165.993164,84.5 Z" id="Fail" fill="#FFFFFF"></path>
                </g>
                <g id="Group-40-Copy" transform="translate(268.000000, 0.000000)">
                    <rect id="Rectangle-3" fill="#000066" x="0" y="0" width="218" height="113" rx="7"></rect>
                    <path d="M20.0107422,17.1865234 L19.9833984,17.1865234 L18.5683594,21.2197266 L21.4257812,21.2197266 L20.0107422,17.1865234 Z M18.9306641,15.2314453 L21.1455078,15.2314453 L24.9804688,25 L22.8134766,25 L21.9726562,22.7578125 L18.0078125,22.7578125 L17.1533203,25 L15.1230469,25 L18.9306641,15.2314453 Z M26.2041016,17.7880859 L31.9189453,17.7880859 L31.9189453,19.3330078 L28.3369141,23.5439453 L32.0419922,23.5439453 L32.0419922,25 L26.0537109,25 L26.0537109,23.4755859 L29.7041016,19.2441406 L26.2041016,19.2441406 L26.2041016,17.7880859 Z M40.5732422,25 L38.7958984,25 L38.7958984,24.0224609 L38.7685547,24.0224609 C38.1806611,24.7653032 37.3922575,25.1481119 36.4033203,25.1708984 C35.5511025,25.1617838 34.9335957,24.8906277 34.5507812,24.3574219 C34.1497376,23.8333307 33.9492188,23.1611369 33.9492188,22.3408203 L33.9492188,17.7880859 L35.8291016,17.7880859 L35.8291016,21.6435547 C35.8291016,21.7438156 35.8382161,21.8509109 35.8564453,21.9648438 C35.8564453,22.0742193 35.8610026,22.1904291 35.8701172,22.3134766 C35.8883464,22.5550142 35.9293617,22.7828765 35.9931641,22.9970703 C36.079753,23.2021495 36.2027987,23.3707676 36.3623047,23.5029297 C36.526368,23.6442064 36.7542303,23.7148438 37.0458984,23.7148438 C37.3922543,23.7148438 37.6770822,23.6259775 37.9003906,23.4482422 C38.1145844,23.2887362 38.2763666,23.0882174 38.3857422,22.8466797 C38.5179043,22.6005847 38.6022134,22.3431003 38.6386719,22.0742188 C38.6796877,21.8053372 38.7001953,21.55241 38.7001953,21.3154297 L38.7001953,17.7880859 L40.5732422,17.7880859 L40.5732422,25 Z M42.9794922,14.5 L44.859375,14.5 L44.859375,25 L42.9794922,25 L42.9794922,14.5 Z M51.1347656,23.4072266 L55.7216797,16.7695312 L51.3125,16.7695312 L51.3125,15.2314453 L57.8134766,15.2314453 L57.8134766,16.8242188 L53.1787109,23.4619141 L57.9091797,23.4619141 L57.9091797,25 L51.1347656,25 L51.1347656,23.4072266 Z M66.4404297,25 L64.6630859,25 L64.6630859,24.0224609 L64.6357422,24.0224609 C64.0478486,24.7653032 63.259445,25.1481119 62.2705078,25.1708984 C61.41829,25.1617838 60.8007832,24.8906277 60.4179688,24.3574219 C60.0169251,23.8333307 59.8164062,23.1611369 59.8164062,22.3408203 L59.8164062,17.7880859 L61.6962891,17.7880859 L61.6962891,21.6435547 C61.6962891,21.7438156 61.7054036,21.8509109 61.7236328,21.9648438 C61.7236328,22.0742193 61.7281901,22.1904291 61.7373047,22.3134766 C61.7555339,22.5550142 61.7965492,22.7828765 61.8603516,22.9970703 C61.9469405,23.2021495 62.0699862,23.3707676 62.2294922,23.5029297 C62.3935555,23.6442064 62.6214178,23.7148438 62.9130859,23.7148438 C63.2594418,23.7148438 63.5442697,23.6259775 63.7675781,23.4482422 C63.9817719,23.2887362 64.1435541,23.0882174 64.2529297,22.8466797 C64.3850918,22.6005847 64.4694009,22.3431003 64.5058594,22.0742188 C64.5468752,21.8053372 64.5673828,21.55241 64.5673828,21.3154297 L64.5673828,17.7880859 L66.4404297,17.7880859 L66.4404297,25 Z M68.8466797,17.7880859 L70.5146484,17.7880859 L70.5146484,19.4287109 L70.5419922,19.4287109 C70.6012373,19.0550112 70.8063133,18.6676452 71.1572266,18.2666016 C71.5035825,17.8564433 71.9570284,17.6422527 72.5175781,17.6240234 C72.704428,17.6240234 72.8958324,17.6422524 73.0917969,17.6787109 L73.0917969,19.5654297 C72.8958324,19.4651688 72.6155617,19.4150391 72.2509766,19.4150391 C71.8772768,19.4150391 71.5878917,19.5175771 71.3828125,19.7226562 C71.1777333,19.9186208 71.0250656,20.1761052 70.9248047,20.4951172 C70.8291011,20.7913426 70.7721355,21.1080712 70.7539062,21.4453125 C70.735677,21.7734391 70.7265625,22.076496 70.7265625,22.3544922 L70.7265625,25 L68.8466797,25 L68.8466797,17.7880859 Z M74.7324219,17.7880859 L76.6123047,17.7880859 L76.6123047,25 L74.7324219,25 L74.7324219,17.7880859 Z M74.7324219,14.6845703 L76.6123047,14.6845703 L76.6123047,16.4755859 L74.7324219,16.4755859 L74.7324219,14.6845703 Z M83.6943359,19.3466797 C83.5348299,19.2600907 83.3570973,19.1940106 83.1611328,19.1484375 C82.9560537,19.1028644 82.7099624,19.0800781 82.4228516,19.0800781 C81.8440726,19.0891928 81.3860694,19.2942688 81.0488281,19.6953125 C80.6933576,20.1054708 80.515625,20.6614548 80.515625,21.3632812 C80.515625,22.0332065 80.6796859,22.5869119 81.0078125,23.0244141 C81.3268245,23.4755882 81.8121712,23.7057291 82.4638672,23.7148438 C82.7327487,23.7148438 83.0039049,23.6715499 83.2773438,23.5849609 C83.5371107,23.5211585 83.746744,23.4505212 83.90625,23.3730469 L83.9882812,24.9316406 C83.7285143,25.0136723 83.4482437,25.0683592 83.1474609,25.0957031 C82.8512355,25.1458336 82.5071634,25.1708984 82.1152344,25.1708984 C80.9394472,25.1617838 80.0576201,24.7972041 79.4697266,24.0771484 C78.8636037,23.375322 78.5605469,22.4707087 78.5605469,21.3632812 C78.5605469,20.287755 78.8636037,19.3990921 79.4697266,18.6972656 C80.0667348,17.9908819 80.9257756,17.6331381 82.046875,17.6240234 C82.771488,17.6240234 83.3776017,17.7037752 83.8652344,17.8632812 L83.6943359,19.3466797 Z M85.6699219,14.5 L87.5498047,14.5 L87.5498047,18.7724609 L87.5771484,18.7724609 C88.078453,18.0250614 88.8349559,17.6422527 89.8466797,17.6240234 C90.6943402,17.6331381 91.3186829,17.899737 91.7197266,18.4238281 C92.102541,18.943362 92.2939453,19.6178344 92.2939453,20.4472656 L92.2939453,25 L90.4208984,25 L90.4208984,21.1513672 C90.4208984,20.9189442 90.4140626,20.6796887 90.4003906,20.4335938 C90.391276,20.1920561 90.3457035,19.9733083 90.2636719,19.7773438 C90.1998695,19.56315 90.0836597,19.3899746 89.9150391,19.2578125 C89.7373038,19.1393223 89.4980484,19.0800781 89.1972656,19.0800781 C88.8645817,19.0800781 88.5957042,19.1598299 88.390625,19.3193359 C88.1855458,19.4742846 88.0169277,19.6748035 87.8847656,19.9208984 C87.7617181,20.1624361 87.6774091,20.4176419 87.6318359,20.6865234 C87.5771482,20.9690769 87.5498047,21.2311186 87.5498047,21.4726562 L87.5498047,25 L85.6699219,25 L85.6699219,14.5 Z M98.5966797,25 L98.5966797,23.359375 C98.847332,23.126952 99.2027972,22.7965516 99.6630859,22.3681641 C100.118817,21.9580058 100.583656,21.490888 101.057617,20.9667969 C101.554364,20.4335911 101.971352,19.9072292 102.308594,19.3876953 C102.641278,18.8636042 102.812174,18.3737002 102.821289,17.9179688 C102.812174,17.4667946 102.650392,17.1295584 102.335938,16.90625 C102.02604,16.7011708 101.656903,16.5986328 101.228516,16.5986328 C100.818357,16.5986328 100.421877,16.6738274 100.039062,16.8242188 C99.6562481,16.9837248 99.3007829,17.1705718 98.9726562,17.3847656 L98.8222656,15.7578125 C99.7337285,15.3020811 100.699865,15.0696615 101.720703,15.0605469 C103.716807,15.0605469 104.73763,16.0130113 104.783203,17.9179688 C104.774088,18.428388 104.662436,18.9319637 104.448242,19.4287109 C104.224934,19.9209009 103.926434,20.4016904 103.552734,20.8710938 C102.768876,21.8144578 101.953129,22.678056 101.105469,23.4619141 L105.09082,23.4619141 L105.09082,25 L98.5966797,25 Z" id="Azul-Zurich-2" fill="#FFFFFF"></path>
                    <path d="M54.7265625,54.0703125 L54.6953125,54.0703125 L53.078125,58.6796875 L56.34375,58.6796875 L54.7265625,54.0703125 Z M53.4921875,51.8359375 L56.0234375,51.8359375 L60.40625,63 L57.9296875,63 L56.96875,60.4375 L52.4375,60.4375 L51.4609375,63 L49.140625,63 L53.4921875,51.8359375 Z M67.46875,55.1953125 C68.3906296,54.7890605 69.3463492,54.5807292 70.3359375,54.5703125 C72.7369912,54.5390623 73.9218752,55.6953008 73.890625,58.0390625 L73.890625,59.09375 C73.890625,59.8958373 73.9010416,60.5833305 73.921875,61.15625 C73.9427084,61.765628 73.9739581,62.3802052 74.015625,63 L72.125,63 C72.0624997,62.4999975 72.03125,62.0885433 72.03125,61.765625 L72,61.765625 C71.7447904,62.2135439 71.3880231,62.5598946 70.9296875,62.8046875 C70.4609352,63.0651055 69.9687526,63.1953125 69.453125,63.1953125 C68.7083296,63.1848958 68.0520862,62.9713562 67.484375,62.5546875 C66.890622,62.1380188 66.5885417,61.5338581 66.578125,60.7421875 C66.578125,60.1223927 66.7161445,59.6223977 66.9921875,59.2421875 C67.2473971,58.8567689 67.578123,58.5729176 67.984375,58.390625 C68.4114605,58.187499 68.8645809,58.0546878 69.34375,57.9921875 C69.8333358,57.9401039 70.3020811,57.9140625 70.75,57.9140625 L71.9375,57.9140625 C71.9375,57.2526009 71.7864598,56.7890638 71.484375,56.5234375 C71.1874985,56.2630195 70.7187532,56.1328125 70.078125,56.1328125 C69.1406203,56.1484376 68.2942746,56.4479137 67.5390625,57.03125 L67.46875,55.1953125 Z M68.625,60.6171875 C68.625,60.9557309 68.7578112,61.2057284 69.0234375,61.3671875 C69.2682304,61.5390634 69.5885397,61.625 69.984375,61.625 C70.6458366,61.6145833 71.1458316,61.3697941 71.484375,60.890625 C71.7968766,60.4114559 71.9479167,59.8463574 71.9375,59.1953125 L71.0078125,59.1953125 C70.8880202,59.1953125 70.7656256,59.1953125 70.640625,59.1953125 C70.510416,59.1953125 70.3828131,59.2057291 70.2578125,59.2265625 C69.9765611,59.2578127 69.7135429,59.320312 69.46875,59.4140625 C69.2239571,59.5130213 69.0286466,59.6588532 68.8828125,59.8515625 C68.7109366,60.0390634 68.625,60.2942692 68.625,60.6171875 Z" id="A-a" fill="#FFFFFF"></path>
                    <path d="M149.726562,54.0703125 L149.695312,54.0703125 L148.078125,58.6796875 L151.34375,58.6796875 L149.726562,54.0703125 Z M148.492188,51.8359375 L151.023438,51.8359375 L155.40625,63 L152.929688,63 L151.96875,60.4375 L147.4375,60.4375 L146.460938,63 L144.140625,63 L148.492188,51.8359375 Z M162.46875,55.1953125 C163.39063,54.7890605 164.346349,54.5807292 165.335938,54.5703125 C167.736991,54.5390623 168.921875,55.6953008 168.890625,58.0390625 L168.890625,59.09375 C168.890625,59.8958373 168.901042,60.5833305 168.921875,61.15625 C168.942708,61.765628 168.973958,62.3802052 169.015625,63 L167.125,63 C167.0625,62.4999975 167.03125,62.0885433 167.03125,61.765625 L167,61.765625 C166.74479,62.2135439 166.388023,62.5598946 165.929688,62.8046875 C165.460935,63.0651055 164.968753,63.1953125 164.453125,63.1953125 C163.70833,63.1848958 163.052086,62.9713562 162.484375,62.5546875 C161.890622,62.1380188 161.588542,61.5338581 161.578125,60.7421875 C161.578125,60.1223927 161.716144,59.6223977 161.992188,59.2421875 C162.247397,58.8567689 162.578123,58.5729176 162.984375,58.390625 C163.41146,58.187499 163.864581,58.0546878 164.34375,57.9921875 C164.833336,57.9401039 165.302081,57.9140625 165.75,57.9140625 L166.9375,57.9140625 C166.9375,57.2526009 166.78646,56.7890638 166.484375,56.5234375 C166.187499,56.2630195 165.718753,56.1328125 165.078125,56.1328125 C164.14062,56.1484376 163.294275,56.4479137 162.539062,57.03125 L162.46875,55.1953125 Z M163.625,60.6171875 C163.625,60.9557309 163.757811,61.2057284 164.023438,61.3671875 C164.26823,61.5390634 164.58854,61.625 164.984375,61.625 C165.645837,61.6145833 166.145832,61.3697941 166.484375,60.890625 C166.796877,60.4114559 166.947917,59.8463574 166.9375,59.1953125 L166.007812,59.1953125 C165.88802,59.1953125 165.765626,59.1953125 165.640625,59.1953125 C165.510416,59.1953125 165.382813,59.2057291 165.257812,59.2265625 C164.976561,59.2578127 164.713543,59.320312 164.46875,59.4140625 C164.223957,59.5130213 164.028647,59.6588532 163.882812,59.8515625 C163.710937,60.0390634 163.625,60.2942692 163.625,60.6171875 Z" id="A-a-Copy" fill="#000000"></path>
                    <rect id="Rectangle-8" fill="#000000" x="20" y="76" width="84" height="27" rx="4"></rect>
                    <rect id="Rectangle-8-Copy" fill="#000000" x="115" y="76" width="84" height="27" rx="4"></rect>
                    <path d="M49.9257812,88.75 L50.609375,88.75 C51.1243515,88.7591146 51.5641258,88.6565766 51.9287109,88.4423828 C52.2841815,88.228189 52.4664713,87.8453804 52.4755859,87.2939453 C52.4755859,87.0068345 52.4277349,86.7653005 52.3320312,86.5693359 C52.2317703,86.3733714 52.0973316,86.218425 51.9287109,86.1044922 C51.5732404,85.8811838 51.1334662,85.7695312 50.609375,85.7695312 L49.9257812,85.7695312 L49.9257812,88.75 Z M47.9638672,84.2314453 L50.4453125,84.2314453 C51.5436253,84.2223307 52.4892538,84.4182923 53.2822266,84.8193359 C54.0888712,85.2386089 54.501302,86.0270124 54.5195312,87.1845703 C54.5104166,88.3011124 54.1503942,89.0986304 53.4394531,89.5771484 C52.7285121,90.0602238 51.8330132,90.2972006 50.7529297,90.2880859 L49.9257812,90.2880859 L49.9257812,94 L47.9638672,94 L47.9638672,84.2314453 Z M56.5087891,87.1708984 C57.3154337,86.8154279 58.1516884,86.6331381 59.0175781,86.6240234 C61.1185001,86.5966796 62.1552736,87.6083882 62.1279297,89.6591797 L62.1279297,90.5820312 C62.1279297,91.2838577 62.1370442,91.8854142 62.1552734,92.3867188 C62.1735027,92.9199245 62.2008462,93.4576796 62.2373047,94 L60.5830078,94 C60.52832,93.5624978 60.5009766,93.2024754 60.5009766,92.9199219 L60.4736328,92.9199219 C60.2503244,93.3118509 59.938153,93.6149078 59.5371094,93.8291016 C59.1269511,94.0569673 58.6962913,94.1708984 58.2451172,94.1708984 C57.5934212,94.1617838 57.0192082,93.9749367 56.5224609,93.6103516 C56.0029271,93.2457664 55.7386068,92.7171259 55.7294922,92.0244141 C55.7294922,91.4820936 55.8502592,91.044598 56.0917969,90.7119141 C56.3151053,90.3746728 56.6044904,90.1263029 56.9599609,89.9667969 C57.3336607,89.7890616 57.7301411,89.6728518 58.1494141,89.6181641 C58.5778016,89.5725909 58.9879538,89.5498047 59.3798828,89.5498047 L60.4189453,89.5498047 C60.4189453,88.9710258 60.2867852,88.5654308 60.0224609,88.3330078 C59.762694,88.1051421 59.3525419,87.9912109 58.7919922,87.9912109 C57.9716756,88.0048829 57.2311231,88.2669245 56.5703125,88.7773438 L56.5087891,87.1708984 Z M57.5205078,91.9150391 C57.5205078,92.2112645 57.6367176,92.4300123 57.8691406,92.5712891 C58.0833344,92.7216804 58.363605,92.796875 58.7099609,92.796875 C59.2887399,92.7877604 59.7262355,92.5735698 60.0224609,92.1542969 C60.2958998,91.7350239 60.4280599,91.2405627 60.4189453,90.6708984 L59.2841797,90.6708984 C59.1702468,90.6708984 59.0585943,90.6800129 58.9492188,90.6982422 C58.7031238,90.7255861 58.4729828,90.780273 58.2587891,90.8623047 C58.0445953,90.9488937 57.8736986,91.0764966 57.7460938,91.2451172 C57.5957024,91.4091805 57.5205078,91.6324856 57.5205078,91.9150391 Z M68.6972656,88.3056641 C68.4283841,88.2008458 68.1663424,88.121094 67.9111328,88.0664062 C67.6604805,88.0162758 67.3619809,87.9912109 67.015625,87.9912109 C66.7558581,87.9912109 66.514324,88.0436193 66.2910156,88.1484375 C66.0449206,88.271485 65.9173178,88.4856756 65.9082031,88.7910156 C65.9173178,89.0644545 66.0904931,89.2558588 66.4277344,89.3652344 C66.5872404,89.4290368 66.764973,89.4905596 66.9609375,89.5498047 C67.156902,89.6044925 67.3528636,89.6682939 67.5488281,89.7412109 C67.7630219,89.8095707 67.968098,89.8938797 68.1640625,89.9941406 C68.3509124,90.1080735 68.5195305,90.2402336 68.6699219,90.390625 C68.8294279,90.5455737 68.9547521,90.736978 69.0458984,90.9648438 C69.1324874,91.1972668 69.1757812,91.4820947 69.1757812,91.8193359 C69.1529947,92.6487672 68.8431019,93.2503237 68.2460938,93.6240234 C67.6490856,93.9886086 66.9495483,94.1708984 66.1474609,94.1708984 C65.4319626,94.1617838 64.7233108,94.0592458 64.0214844,93.8632812 L64.1308594,92.3183594 C64.7187529,92.6373714 65.3362598,92.796875 65.9833984,92.796875 C66.2431654,92.796875 66.5074856,92.7307949 66.7763672,92.5986328 C67.0589207,92.4801426 67.2047526,92.2522803 67.2138672,91.9150391 C67.2138672,91.7281892 67.1705733,91.5732428 67.0839844,91.4501953 C66.9928381,91.3408198 66.8675138,91.2519535 66.7080078,91.1835938 C66.3798812,91.0559889 66.006187,90.9352219 65.5869141,90.8212891 C65.3909495,90.7574867 65.194988,90.6777349 64.9990234,90.5820312 C64.8030589,90.490885 64.6253263,90.3701179 64.4658203,90.2197266 C64.3108716,90.0693352 64.1901046,89.8824881 64.1035156,89.6591797 C64.0032547,89.4449859 63.953125,89.178387 63.953125,88.859375 C63.9622396,88.0755169 64.256182,87.5081398 64.8349609,87.1572266 C65.3772814,86.801756 66.0244103,86.6240234 66.7763672,86.6240234 C67.2184267,86.6240234 67.6012354,86.6468097 67.9248047,86.6923828 C68.2438167,86.7470706 68.5423163,86.8131507 68.8203125,86.890625 L68.6972656,88.3056641 Z M75.3486328,88.3056641 C75.0797513,88.2008458 74.8177096,88.121094 74.5625,88.0664062 C74.3118477,88.0162758 74.0133481,87.9912109 73.6669922,87.9912109 C73.4072253,87.9912109 73.1656912,88.0436193 72.9423828,88.1484375 C72.6962878,88.271485 72.5686849,88.4856756 72.5595703,88.7910156 C72.5686849,89.0644545 72.7418603,89.2558588 73.0791016,89.3652344 C73.2386076,89.4290368 73.4163402,89.4905596 73.6123047,89.5498047 C73.8082692,89.6044925 74.0042308,89.6682939 74.2001953,89.7412109 C74.4143891,89.8095707 74.6194652,89.8938797 74.8154297,89.9941406 C75.0022796,90.1080735 75.1708977,90.2402336 75.3212891,90.390625 C75.4807951,90.5455737 75.6061193,90.736978 75.6972656,90.9648438 C75.7838546,91.1972668 75.8271484,91.4820947 75.8271484,91.8193359 C75.8043619,92.6487672 75.4944691,93.2503237 74.8974609,93.6240234 C74.3004527,93.9886086 73.6009155,94.1708984 72.7988281,94.1708984 C72.0833298,94.1617838 71.374678,94.0592458 70.6728516,93.8632812 L70.7822266,92.3183594 C71.3701201,92.6373714 71.987627,92.796875 72.6347656,92.796875 C72.8945325,92.796875 73.1588528,92.7307949 73.4277344,92.5986328 C73.7102879,92.4801426 73.8561197,92.2522803 73.8652344,91.9150391 C73.8652344,91.7281892 73.8219405,91.5732428 73.7353516,91.4501953 C73.6442053,91.3408198 73.518881,91.2519535 73.359375,91.1835938 C73.0312484,91.0559889 72.6575542,90.9352219 72.2382812,90.8212891 C72.0423167,90.7574867 71.8463551,90.6777349 71.6503906,90.5820312 C71.4544261,90.490885 71.2766935,90.3701179 71.1171875,90.2197266 C70.9622388,90.0693352 70.8414718,89.8824881 70.7548828,89.6591797 C70.6546219,89.4449859 70.6044922,89.178387 70.6044922,88.859375 C70.6136068,88.0755169 70.9075492,87.5081398 71.4863281,87.1572266 C72.0286485,86.801756 72.6757775,86.6240234 73.4277344,86.6240234 C73.8697939,86.6240234 74.2526025,86.6468097 74.5761719,86.6923828 C74.8951839,86.7470706 75.1936835,86.8131507 75.4716797,86.890625 L75.3486328,88.3056641 Z" id="Pass" fill="#FFFFFF"></path>
                    <path d="M146.134766,84.2314453 L151.5625,84.2314453 L151.5625,85.7695312 L148.09668,85.7695312 L148.09668,88.1757812 L151.398438,88.1757812 L151.398438,89.7138672 L148.09668,89.7138672 L148.09668,94 L146.134766,94 L146.134766,84.2314453 Z M153.722656,87.1708984 C154.529301,86.8154279 155.365556,86.6331381 156.231445,86.6240234 C158.332367,86.5966796 159.369141,87.6083882 159.341797,89.6591797 L159.341797,90.5820312 C159.341797,91.2838577 159.350911,91.8854142 159.369141,92.3867188 C159.38737,92.9199245 159.414713,93.4576796 159.451172,94 L157.796875,94 C157.742187,93.5624978 157.714844,93.2024754 157.714844,92.9199219 L157.6875,92.9199219 C157.464192,93.3118509 157.15202,93.6149078 156.750977,93.8291016 C156.340818,94.0569673 155.910159,94.1708984 155.458984,94.1708984 C154.807288,94.1617838 154.233075,93.9749367 153.736328,93.6103516 C153.216794,93.2457664 152.952474,92.7171259 152.943359,92.0244141 C152.943359,91.4820936 153.064126,91.044598 153.305664,90.7119141 C153.528972,90.3746728 153.818358,90.1263029 154.173828,89.9667969 C154.547528,89.7890616 154.944008,89.6728518 155.363281,89.6181641 C155.791669,89.5725909 156.201821,89.5498047 156.59375,89.5498047 L157.632812,89.5498047 C157.632812,88.9710258 157.500652,88.5654308 157.236328,88.3330078 C156.976561,88.1051421 156.566409,87.9912109 156.005859,87.9912109 C155.185543,88.0048829 154.44499,88.2669245 153.78418,88.7773438 L153.722656,87.1708984 Z M154.734375,91.9150391 C154.734375,92.2112645 154.850585,92.4300123 155.083008,92.5712891 C155.297202,92.7216804 155.577472,92.796875 155.923828,92.796875 C156.502607,92.7877604 156.940103,92.5735698 157.236328,92.1542969 C157.509767,91.7350239 157.641927,91.2405627 157.632812,90.6708984 L156.498047,90.6708984 C156.384114,90.6708984 156.272461,90.6800129 156.163086,90.6982422 C155.916991,90.7255861 155.68685,90.780273 155.472656,90.8623047 C155.258462,90.9488937 155.087566,91.0764966 154.959961,91.2451172 C154.80957,91.4091805 154.734375,91.6324856 154.734375,91.9150391 Z M161.666016,86.7880859 L163.545898,86.7880859 L163.545898,94 L161.666016,94 L161.666016,86.7880859 Z M161.666016,83.6845703 L163.545898,83.6845703 L163.545898,85.4755859 L161.666016,85.4755859 L161.666016,83.6845703 Z M165.993164,83.5 L167.873047,83.5 L167.873047,94 L165.993164,94 L165.993164,83.5 Z" id="Fail" fill="#FFFFFF"></path>
                </g>
            </g>
        </g>
    </g>
</svg>