<?xml version="1.0" encoding="UTF-8"?>
<svg width="925px" height="208px" viewBox="0 0 925 208" version="1.1" xmlns="http://www.w3.org/2000/svg" xmlns:xlink="http://www.w3.org/1999/xlink">
    <!-- Generator: Sketch 52.6 (67491) - http://www.bohemiancoding.com/sketch -->
    <title>Group 29</title>
    <desc>Created with Sketch.</desc>
    <defs>
        <path d="M14.7142857,1.14285714 C15.0714304,1.14285714 15.3749987,1.26785589 15.625,1.51785714 C15.8750013,1.76785839 16,2.07142679 16,2.42857143 L16,14.7142857 C16,15.0714304 15.8750013,15.3749987 15.625,15.625 C15.3749987,15.8750013 15.0714304,16 14.7142857,16 L1.28571429,16 C0.928569643,16 0.62500125,15.8750013 0.375,15.625 C0.12499875,15.3749987 0,15.0714304 0,14.7142857 L0,2.42857143 C0,2.07142679 0.12499875,1.76785839 0.375,1.51785714 C0.62500125,1.26785589 0.928569643,1.14285714 1.28571429,1.14285714 L3.42857143,1.14285714 L3.42857143,0.642857143 C3.42857143,0.464284821 3.4910708,0.312500625 3.61607143,0.1875 C3.74107205,0.062499375 3.89285625,0 4.07142857,0 C4.25000089,0 4.40178509,0.062499375 4.52678571,0.1875 C4.65178634,0.312500625 4.71428571,0.464284821 4.71428571,0.642857143 L4.71428571,1.14285714 L11.2857143,1.14285714 L11.2857143,0.642857143 C11.2857143,0.464284821 11.3482137,0.312500625 11.4732143,0.1875 C11.5982149,0.062499375 11.7499991,0 11.9285714,0 C12.1071437,0 12.2589279,0.062499375 12.3839286,0.1875 C12.5089292,0.312500625 12.5714286,0.464284821 12.5714286,0.642857143 L12.5714286,1.14285714 L14.7142857,1.14285714 Z M1.28571429,2.42857143 L1.28571429,4.42857143 L14.7142857,4.42857143 L14.7142857,2.42857143 L12.5714286,2.42857143 L12.5714286,2.78571429 C12.5714286,2.96428661 12.5089292,3.1160708 12.3839286,3.24107143 C12.2589279,3.36607205 12.1071437,3.42857143 11.9285714,3.42857143 C11.7499991,3.42857143 11.5982149,3.36607205 11.4732143,3.24107143 C11.3482137,3.1160708 11.2857143,2.96428661 11.2857143,2.78571429 L11.2857143,2.42857143 L4.71428571,2.42857143 L4.71428571,2.78571429 C4.71428571,2.96428661 4.65178634,3.1160708 4.52678571,3.24107143 C4.40178509,3.36607205 4.25000089,3.42857143 4.07142857,3.42857143 C3.89285625,3.42857143 3.74107205,3.36607205 3.61607143,3.24107143 C3.4910708,3.1160708 3.42857143,2.96428661 3.42857143,2.78571429 L3.42857143,2.42857143 L1.28571429,2.42857143 Z M14.7142857,14.7142857 L14.7142857,5.71428571 L1.28571429,5.71428571 L1.28571429,14.7142857 L14.7142857,14.7142857 Z M4,8 L5.14285714,8 C5.29761982,8 5.43154705,8.05654705 5.54464286,8.16964286 C5.65773866,8.28273866 5.71428571,8.41666589 5.71428571,8.57142857 C5.71428571,8.72619125 5.65773866,8.86011848 5.54464286,8.97321429 C5.43154705,9.08631009 5.29761982,9.14285714 5.14285714,9.14285714 L4,9.14285714 C3.84523732,9.14285714 3.71131009,9.08631009 3.59821429,8.97321429 C3.48511848,8.86011848 3.42857143,8.72619125 3.42857143,8.57142857 C3.42857143,8.41666589 3.48511848,8.28273866 3.59821429,8.16964286 C3.71131009,8.05654705 3.84523732,8 4,8 Z M7.42857143,8 L8.57142857,8 C8.72619125,8 8.86011848,8.05654705 8.97321429,8.16964286 C9.08631009,8.28273866 9.14285714,8.41666589 9.14285714,8.57142857 C9.14285714,8.72619125 9.08631009,8.86011848 8.97321429,8.97321429 C8.86011848,9.08631009 8.72619125,9.14285714 8.57142857,9.14285714 L7.42857143,9.14285714 C7.27380875,9.14285714 7.13988152,9.08631009 7.02678571,8.97321429 C6.91368991,8.86011848 6.85714286,8.72619125 6.85714286,8.57142857 C6.85714286,8.41666589 6.91368991,8.28273866 7.02678571,8.16964286 C7.13988152,8.05654705 7.27380875,8 7.42857143,8 Z M10.8571429,8 L12,8 C12.1547627,8 12.2886899,8.05654705 12.4017857,8.16964286 C12.5148815,8.28273866 12.5714286,8.41666589 12.5714286,8.57142857 C12.5714286,8.72619125 12.5148815,8.86011848 12.4017857,8.97321429 C12.2886899,9.08631009 12.1547627,9.14285714 12,9.14285714 L10.8571429,9.14285714 C10.7023802,9.14285714 10.5684529,9.08631009 10.4553571,8.97321429 C10.3422613,8.86011848 10.2857143,8.72619125 10.2857143,8.57142857 C10.2857143,8.41666589 10.3422613,8.28273866 10.4553571,8.16964286 C10.5684529,8.05654705 10.7023802,8 10.8571429,8 Z M4,11.4642857 L5.14285714,11.4642857 C5.29761982,11.4642857 5.43154705,11.5208328 5.54464286,11.6339286 C5.65773866,11.7470244 5.71428571,11.8809516 5.71428571,12.0357143 C5.71428571,12.190477 5.65773866,12.3244042 5.54464286,12.4375 C5.43154705,12.5505958 5.29761982,12.6071429 5.14285714,12.6071429 L4,12.6071429 C3.84523732,12.6071429 3.71131009,12.5505958 3.59821429,12.4375 C3.48511848,12.3244042 3.42857143,12.190477 3.42857143,12.0357143 C3.42857143,11.8809516 3.48511848,11.7470244 3.59821429,11.6339286 C3.71131009,11.5208328 3.84523732,11.4642857 4,11.4642857 Z M7.42857143,11.4642857 L8.57142857,11.4642857 C8.72619125,11.4642857 8.86011848,11.5208328 8.97321429,11.6339286 C9.08631009,11.7470244 9.14285714,11.8809516 9.14285714,12.0357143 C9.14285714,12.190477 9.08631009,12.3244042 8.97321429,12.4375 C8.86011848,12.5505958 8.72619125,12.6071429 8.57142857,12.6071429 L7.42857143,12.6071429 C7.27380875,12.6071429 7.13988152,12.5505958 7.02678571,12.4375 C6.91368991,12.3244042 6.85714286,12.190477 6.85714286,12.0357143 C6.85714286,11.8809516 6.91368991,11.7470244 7.02678571,11.6339286 C7.13988152,11.5208328 7.27380875,11.4642857 7.42857143,11.4642857 Z" id="path-1"></path>
    </defs>
    <g id="Guidelines-Design-System" stroke="none" stroke-width="1" fill="none" fill-rule="evenodd">
        <g id="A.6-Accesibilidad---Navegación" transform="translate(-409.000000, -3559.000000)">
            <g id="Group-29" transform="translate(409.000000, 3559.000000)">
                <rect id="Rectangle-Copy-17" fill="#97C1E3" fill-rule="nonzero" opacity="0.1" x="0" y="0" width="925" height="208"></rect>
                <g id="Stacked-Group" transform="translate(24.000000, 24.000000)">
                    <g id="2.-Entrada-de-datos-/-2.5-Input-/---mediano-/-vacío" transform="translate(0.000000, 20.000000)">
                        <g id="0.-Colores-/-fondos-/-blanco-con-trazo---inputs-/-default" fill="#FFFFFF" fill-rule="evenodd" stroke="#DDDDDD" stroke-width="1">
                            <rect id="Rectangle-15-Copy-2" x="0.5" y="0.5" width="415" height="39" rx="2"></rect>
                        </g>
                        <g id="0.-Texto-/-Inputs-/-Activo-/-izquierda-/-16px-/-regular" transform="translate(12.000000, 8.000000)" fill="#6F6863" font-family="Helvetica" font-size="16" font-weight="normal" letter-spacing="0.5" line-spacing="24">
                            <text id="Regular">
                                <tspan x="0" y="15">Escribe</tspan>
                            </text>
                        </g>
                    </g>
                    <g id="texto-/-inputs-/-negro-/-16px-bold-/-izquierda" fill="#25282D">
                        <path d="M8.64550781,11 L6.64257812,11 L1.72753906,3.03613281 L1.67285156,3.03613281 L1.70703125,3.48046875 C1.77083365,4.32812924 1.80273438,5.10286107 1.80273438,5.8046875 L1.80273438,11 L0.319335938,11 L0.319335938,1.00585938 L2.30175781,1.00585938 L7.203125,8.92871094 L7.24414062,8.92871094 C7.235026,8.82389271 7.21679701,8.44222334 7.18945312,7.78369141 C7.16210924,7.12515947 7.1484375,6.61132997 7.1484375,6.2421875 L7.1484375,1.00585938 L8.64550781,1.00585938 L8.64550781,11 Z M18.2568359,7.20605469 C18.2568359,8.4410869 17.9401073,9.40494445 17.3066406,10.0976562 C16.6731739,10.790368 15.7913468,11.1367188 14.6611328,11.1367188 C13.9547491,11.1367188 13.3304064,10.9772151 12.7880859,10.6582031 C12.2457655,10.3391911 11.8287775,9.88118788 11.5371094,9.28417969 C11.2454412,8.68717149 11.0996094,7.99447009 11.0996094,7.20605469 C11.0996094,5.9801371 11.4140594,5.02311542 12.0429688,4.33496094 C12.6718781,3.64680646 13.5582625,3.30273438 14.7021484,3.30273438 C15.7959039,3.30273438 16.6617807,3.65478164 17.2998047,4.35888672 C17.9378287,5.0629918 18.2568359,6.0120383 18.2568359,7.20605469 Z M12.7539062,7.20605469 C12.7539062,8.95150612 13.3987566,9.82421875 14.6884766,9.82421875 C15.9645246,9.82421875 16.6025391,8.95150612 16.6025391,7.20605469 C16.6025391,5.47883251 15.9599674,4.61523438 14.6748047,4.61523438 C14.0003221,4.61523438 13.5115575,4.83853943 13.2084961,5.28515625 C12.9054347,5.73177307 12.7539062,6.37206614 12.7539062,7.20605469 Z M26.9111328,11 L25.2978516,11 L25.2978516,6.33789062 C25.2978516,5.75911169 25.1884777,5.32731262 24.9697266,5.04248047 C24.7509755,4.75764832 24.409182,4.61523438 23.9443359,4.61523438 C23.3245412,4.61523438 22.8699559,4.81689251 22.5805664,5.22021484 C22.2911769,5.62353717 22.1464844,6.29459166 22.1464844,7.23339844 L22.1464844,11 L20.5400391,11 L20.5400391,3.43945312 L21.7978516,3.43945312 L22.0234375,4.43066406 L22.1054688,4.43066406 C22.3151052,4.07063622 22.6193014,3.79264421 23.0180664,3.59667969 C23.4168314,3.40071517 23.8554664,3.30273438 24.3339844,3.30273438 C25.4960996,3.30273438 26.2662742,3.69921479 26.6445312,4.4921875 L26.7539062,4.4921875 C26.9772147,4.11848771 27.2916646,3.82682396 27.6972656,3.6171875 C28.1028666,3.40755104 28.5677057,3.30273438 29.0917969,3.30273438 C29.9941451,3.30273438 30.6515279,3.53059668 31.0639648,3.98632812 C31.4764018,4.44205957 31.6826172,5.1370396 31.6826172,6.07128906 L31.6826172,11 L30.0761719,11 L30.0761719,6.33789062 C30.0761719,5.75911169 29.9656587,5.32731262 29.7446289,5.04248047 C29.5235992,4.75764832 29.1806664,4.61523438 28.7158203,4.61523438 C28.0914682,4.61523438 27.6346043,4.81005665 27.3452148,5.19970703 C27.0558254,5.58935742 26.9111328,6.18749597 26.9111328,6.99414062 L26.9111328,11 Z M38.2246094,3.30273438 C39.1679735,3.30273438 39.9028294,3.64452783 40.4291992,4.328125 C40.955569,5.01172217 41.21875,5.97102247 41.21875,7.20605469 C41.21875,8.44564422 40.9521511,9.41064108 40.4189453,10.1010742 C39.8857395,10.7915074 39.145187,11.1367188 38.1972656,11.1367188 C37.2402296,11.1367188 36.4973985,10.7926467 35.96875,10.1044922 L35.859375,10.1044922 L35.5654297,11 L34.3623047,11 L34.3623047,0.36328125 L35.96875,0.36328125 L35.96875,2.89257812 C35.96875,3.07942802 35.9596355,3.35742003 35.9414062,3.7265625 C35.923177,4.09570497 35.9095053,4.33040314 35.9003906,4.43066406 L35.96875,4.43066406 C36.4791692,3.67870718 37.2311148,3.30273438 38.2246094,3.30273438 Z M37.8076172,4.61523438 C37.1604785,4.61523438 36.6945001,4.8054994 36.409668,5.18603516 C36.1248358,5.56657091 35.9778646,6.20344605 35.96875,7.09667969 L35.96875,7.20605469 C35.96875,8.12663221 36.1145819,8.79312945 36.40625,9.20556641 C36.6979181,9.61800336 37.1741503,9.82421875 37.8349609,9.82421875 C38.4046252,9.82421875 38.8364243,9.59863507 39.1303711,9.14746094 C39.4243179,8.69628681 39.5712891,8.04460062 39.5712891,7.19238281 C39.5712891,5.47427526 38.9834043,4.61523438 37.8076172,4.61523438 Z M47.3574219,3.30273438 C47.6809912,3.30273438 47.9475901,3.32552061 48.1572266,3.37109375 L48,4.86816406 C47.7721343,4.81347629 47.5351575,4.78613281 47.2890625,4.78613281 C46.6464812,4.78613281 46.1258158,4.99576613 45.7270508,5.41503906 C45.3282858,5.83431199 45.1289062,6.3789029 45.1289062,7.04882812 L45.1289062,11 L43.5224609,11 L43.5224609,3.43945312 L44.7802734,3.43945312 L44.9921875,4.77246094 L45.0742188,4.77246094 C45.324871,4.32128681 45.6518535,3.96354299 46.0551758,3.69921875 C46.4584981,3.43489451 46.8925758,3.30273438 47.3574219,3.30273438 Z M53.0175781,11.1367188 C51.841791,11.1367188 50.9223666,10.793786 50.2592773,10.1079102 C49.5961881,9.42203433 49.2646484,8.47754508 49.2646484,7.27441406 C49.2646484,6.03938185 49.5722625,5.06868843 50.1875,4.36230469 C50.8027375,3.65592095 51.6481066,3.30273438 52.7236328,3.30273438 C53.7216847,3.30273438 54.5100883,3.60579124 55.0888672,4.21191406 C55.6676461,4.81803688 55.9570312,5.65201292 55.9570312,6.71386719 L55.9570312,7.58203125 L50.9189453,7.58203125 C50.9417319,8.31575888 51.1399721,8.87971808 51.5136719,9.27392578 C51.8873717,9.66813348 52.4137336,9.86523438 53.0927734,9.86523438 C53.5393903,9.86523438 53.955239,9.82307985 54.340332,9.73876953 C54.7254251,9.65445921 55.1389952,9.5143239 55.5810547,9.31835938 L55.5810547,10.6240234 C55.1891256,10.8108733 54.7926452,10.9430335 54.3916016,11.0205078 C53.9905579,11.0979822 53.5325547,11.1367188 53.0175781,11.1367188 Z M52.7236328,4.51953125 C52.2132136,4.51953125 51.8042008,4.68131349 51.496582,5.00488281 C51.1889633,5.32845214 51.0055342,5.80012711 50.9462891,6.41992188 L54.3779297,6.41992188 C54.3688151,5.79556979 54.2184259,5.32275551 53.9267578,5.00146484 C53.6350897,4.68017417 53.234052,4.51953125 52.7236328,4.51953125 Z" id="Semibold"></path>
                    </g>
                </g>
                <g id="Stacked-Group" transform="translate(24.000000, 116.000000)">
                    <g id="2.-Entrada-de-datos-/-2.5-Input-/---mediano-/-vacío" transform="translate(0.000000, 20.000000)">
                        <g id="0.-Colores-/-fondos-/-blanco-con-trazo---inputs-/-default" fill="#FFFFFF" fill-rule="evenodd" stroke="#DDDDDD" stroke-width="1">
                            <rect id="Rectangle-15-Copy-2" x="0.5" y="0.5" width="415" height="39" rx="2"></rect>
                        </g>
                        <g id="0.-Texto-/-Inputs-/-Activo-/-izquierda-/-16px-/-regular" transform="translate(12.000000, 8.000000)" fill="#6F6863" font-family="Helvetica" font-size="16" font-weight="normal" letter-spacing="0.5" line-spacing="24">
                            <text id="Regular">
                                <tspan x="0" y="15">Escribe</tspan>
                            </text>
                        </g>
                    </g>
                    <g id="texto-/-inputs-/-negro-/-16px-bold-/-izquierda" fill="#25282D">
                        <path d="M10.1923828,5.98925781 C10.1923828,7.61621907 9.7856486,8.88085486 8.97216797,9.78320312 C8.15868734,10.6855514 7.00684339,11.1367188 5.51660156,11.1367188 C4.00813048,11.1367188 2.84945066,10.6889693 2.04052734,9.79345703 C1.23160403,8.89794474 0.827148438,7.62533377 0.827148438,5.97558594 C0.827148438,4.32583811 1.23388265,3.05892369 2.04736328,2.17480469 C2.86084391,1.29068568 4.02180235,0.848632812 5.53027344,0.848632812 C7.01595795,0.848632812 8.16438396,1.29752155 8.97558594,2.1953125 C9.78678791,3.09310345 10.1923828,4.35773924 10.1923828,5.98925781 Z M2.56347656,5.98925781 C2.56347656,7.21973271 2.81184647,8.15282885 3.30859375,8.78857422 C3.80534103,9.42431958 4.54133627,9.7421875 5.51660156,9.7421875 C6.48730954,9.7421875 7.21988685,9.42773752 7.71435547,8.79882812 C8.20882409,8.16991873 8.45605469,7.23340466 8.45605469,5.98925781 C8.45605469,4.76334022 8.21110271,3.83366202 7.72119141,3.20019531 C7.2312801,2.5667286 6.50098142,2.25 5.53027344,2.25 C4.55045083,2.25 3.81103765,2.5667286 3.31201172,3.20019531 C2.81298579,3.83366202 2.56347656,4.76334022 2.56347656,5.98925781 Z M16.3994141,4.65625 L14.5537109,4.65625 L14.5537109,11 L12.9404297,11 L12.9404297,4.65625 L11.6962891,4.65625 L11.6962891,3.90429688 L12.9404297,3.41210938 L12.9404297,2.91992188 C12.9404297,2.02668824 13.150063,1.36474825 13.5693359,0.934082031 C13.9886089,0.503415815 14.6289019,0.288085938 15.4902344,0.288085938 C16.0553414,0.288085938 16.6113254,0.381509482 17.1582031,0.568359375 L16.734375,1.78515625 C16.3378886,1.65755145 15.9596372,1.59375 15.5996094,1.59375 C15.2350242,1.59375 14.9695646,1.70654184 14.8032227,1.93212891 C14.6368807,2.15771597 14.5537109,2.49609149 14.5537109,2.94726562 L14.5537109,3.43945312 L16.3994141,3.43945312 L16.3994141,4.65625 Z M19.2910156,11 L17.6845703,11 L17.6845703,3.43945312 L19.2910156,3.43945312 L19.2910156,11 Z M17.5888672,1.43652344 C17.5888672,1.14941263 17.6674797,0.928386191 17.824707,0.7734375 C17.9819344,0.618488809 18.2063787,0.541015625 18.4980469,0.541015625 C18.7806004,0.541015625 19.0004875,0.618488809 19.1577148,0.7734375 C19.3149422,0.928386191 19.3935547,1.14941263 19.3935547,1.43652344 C19.3935547,1.7099623 19.3149422,1.92529218 19.1577148,2.08251953 C19.0004875,2.23974688 18.7806004,2.31835938 18.4980469,2.31835938 C18.2063787,2.31835938 17.9819344,2.23974688 17.824707,2.08251953 C17.6674797,1.92529218 17.5888672,1.7099623 17.5888672,1.43652344 Z M25.0810547,11.1367188 C23.9371688,11.1367188 23.0678741,10.8029005 22.4731445,10.1352539 C21.878415,9.46760734 21.5810547,8.50944635 21.5810547,7.26074219 C21.5810547,5.98925146 21.8920867,5.01172217 22.5141602,4.328125 C23.1362336,3.64452783 24.0351504,3.30273438 25.2109375,3.30273438 C26.0084675,3.30273438 26.7262338,3.45084487 27.3642578,3.74707031 L26.8789062,5.0390625 C26.1998664,4.77473826 25.6393251,4.64257812 25.1972656,4.64257812 C23.8893164,4.64257812 23.2353516,5.51073351 23.2353516,7.24707031 C23.2353516,8.0947308 23.3982731,8.73160594 23.7241211,9.15771484 C24.0499691,9.58382375 24.5273406,9.796875 25.15625,9.796875 C25.8717484,9.796875 26.5484994,9.6191424 27.1865234,9.26367188 L27.1865234,10.6650391 C26.8994126,10.8336597 26.5929378,10.9544267 26.2670898,11.0273438 C25.9412419,11.1002608 25.5459008,11.1367188 25.0810547,11.1367188 Z M31.0078125,11 L29.4013672,11 L29.4013672,3.43945312 L31.0078125,3.43945312 L31.0078125,11 Z M29.3056641,1.43652344 C29.3056641,1.14941263 29.3842766,0.928386191 29.5415039,0.7734375 C29.6987313,0.618488809 29.9231756,0.541015625 30.2148438,0.541015625 C30.4973972,0.541015625 30.7172844,0.618488809 30.8745117,0.7734375 C31.0317391,0.928386191 31.1103516,1.14941263 31.1103516,1.43652344 C31.1103516,1.7099623 31.0317391,1.92529218 30.8745117,2.08251953 C30.7172844,2.23974688 30.4973972,2.31835938 30.2148438,2.31835938 C29.9231756,2.31835938 29.6987313,2.23974688 29.5415039,2.08251953 C29.3842766,1.92529218 29.3056641,1.7099623 29.3056641,1.43652344 Z M40.4482422,7.20605469 C40.4482422,8.4410869 40.1315136,9.40494445 39.4980469,10.0976562 C38.8645802,10.790368 37.982753,11.1367188 36.8525391,11.1367188 C36.1461553,11.1367188 35.5218126,10.9772151 34.9794922,10.6582031 C34.4371718,10.3391911 34.0201838,9.88118788 33.7285156,9.28417969 C33.4368475,8.68717149 33.2910156,7.99447009 33.2910156,7.20605469 C33.2910156,5.9801371 33.6054656,5.02311542 34.234375,4.33496094 C34.8632844,3.64680646 35.7496688,3.30273438 36.8935547,3.30273438 C37.9873102,3.30273438 38.8531869,3.65478164 39.4912109,4.35888672 C40.129235,5.0629918 40.4482422,6.0120383 40.4482422,7.20605469 Z M34.9453125,7.20605469 C34.9453125,8.95150612 35.5901628,9.82421875 36.8798828,9.82421875 C38.1559309,9.82421875 38.7939453,8.95150612 38.7939453,7.20605469 C38.7939453,5.47883251 38.1513736,4.61523438 36.8662109,4.61523438 C36.1917284,4.61523438 35.7029638,4.83853943 35.3999023,5.28515625 C35.0968409,5.73177307 34.9453125,6.37206614 34.9453125,7.20605469 Z" id="Semibold"></path>
                    </g>
                </g>
                <g id="Stacked-Group" transform="translate(480.000000, 21.000000)">
                    <g id="2.-Entrada-de-datos-/-2.5-Input-/---mediano-/-vacío" transform="translate(0.000000, 23.000000)">
                        <g id="0.-Colores-/-fondos-/-blanco-con-trazo---inputs-/-default" fill="#FFFFFF" fill-rule="evenodd" stroke="#DDDDDD" stroke-width="1">
                            <rect id="Rectangle-15-Copy-2" x="0.5" y="0.5" width="415" height="39" rx="2"></rect>
                        </g>
                        <g id="0.-Texto-/-Inputs-/-Activo-/-izquierda-/-16px-/-regular" transform="translate(12.000000, 8.000000)" fill="#6F6863" font-family="Helvetica" font-size="16" font-weight="normal" letter-spacing="0.5" line-spacing="24">
                            <text id="Regular">
                                <tspan x="0" y="15">Escribe</tspan>
                            </text>
                        </g>
                    </g>
                    <g id="texto-/-inputs-/-negro-/-16px-bold-/-izquierda" fill="#25282D">
                        <path d="M7.51953125,11 L6.52148438,8.22460938 L2.70019531,8.22460938 L1.72265625,11 L0,11 L3.73925781,0.96484375 L5.51660156,0.96484375 L9.25585938,11 L7.51953125,11 Z M6.09082031,6.81640625 L5.15429688,4.09570312 C5.08593716,3.91341055 4.9913743,3.62630404 4.87060547,3.234375 C4.74983664,2.84244596 4.66666689,2.55533945 4.62109375,2.37304688 C4.49804626,2.93359655 4.31803504,3.54654615 4.08105469,4.21191406 L3.17871094,6.81640625 L6.09082031,6.81640625 Z M14.6767578,11.1367188 C13.7197218,11.1367188 12.9768907,10.7926467 12.4482422,10.1044922 L12.3525391,10.1044922 C12.4163415,10.7425162 12.4482422,11.1298821 12.4482422,11.2666016 L12.4482422,14.3632812 L10.8417969,14.3632812 L10.8417969,3.43945312 L12.140625,3.43945312 C12.1770835,3.58072987 12.2522781,3.91796608 12.3662109,4.45117188 L12.4482422,4.45117188 C12.9495468,3.68554305 13.7014924,3.30273438 14.7041016,3.30273438 C15.6474657,3.30273438 16.3823216,3.64452783 16.9086914,4.328125 C17.4350612,5.01172217 17.6982422,5.97102247 17.6982422,7.20605469 C17.6982422,8.4410869 17.430504,9.40494445 16.8950195,10.0976562 C16.3595351,10.790368 15.6201219,11.1367188 14.6767578,11.1367188 Z M14.2871094,4.61523438 C13.6490854,4.61523438 13.1831069,4.80208146 12.8891602,5.17578125 C12.5952134,5.54948104 12.4482422,6.14648027 12.4482422,6.96679688 L12.4482422,7.20605469 C12.4482422,8.12663221 12.5940741,8.79312945 12.8857422,9.20556641 C13.1774103,9.61800336 13.6536425,9.82421875 14.3144531,9.82421875 C14.8704455,9.82421875 15.2988266,9.59635645 15.5996094,9.140625 C15.9003921,8.68489355 16.0507812,8.03548599 16.0507812,7.19238281 C16.0507812,6.34472232 15.9015314,5.70328994 15.6030273,5.26806641 C15.3045232,4.83284288 14.8658883,4.61523438 14.2871094,4.61523438 Z M23.3037109,11.1367188 C22.1279238,11.1367188 21.2084994,10.793786 20.5454102,10.1079102 C19.8823209,9.42203433 19.5507812,8.47754508 19.5507812,7.27441406 C19.5507812,6.03938185 19.8583954,5.06868843 20.4736328,4.36230469 C21.0888703,3.65592095 21.9342394,3.30273438 23.0097656,3.30273438 C24.0078175,3.30273438 24.7962211,3.60579124 25.375,4.21191406 C25.9537789,4.81803688 26.2431641,5.65201292 26.2431641,6.71386719 L26.2431641,7.58203125 L21.2050781,7.58203125 C21.2278647,8.31575888 21.4261049,8.87971808 21.7998047,9.27392578 C22.1735045,9.66813348 22.6998664,9.86523438 23.3789062,9.86523438 C23.8255231,9.86523438 24.2413718,9.82307985 24.6264648,9.73876953 C25.0115579,9.65445921 25.425128,9.5143239 25.8671875,9.31835938 L25.8671875,10.6240234 C25.4752585,10.8108733 25.078778,10.9430335 24.6777344,11.0205078 C24.2766907,11.0979822 23.8186875,11.1367188 23.3037109,11.1367188 Z M23.0097656,4.51953125 C22.4993464,4.51953125 22.0903336,4.68131349 21.7827148,5.00488281 C21.4750961,5.32845214 21.291667,5.80012711 21.2324219,6.41992188 L24.6640625,6.41992188 C24.6549479,5.79556979 24.5045588,5.32275551 24.2128906,5.00146484 C23.9212225,4.68017417 23.5201848,4.51953125 23.0097656,4.51953125 Z M30.1123047,11 L28.5058594,11 L28.5058594,0.36328125 L30.1123047,0.36328125 L30.1123047,11 Z M34.453125,11 L32.8466797,11 L32.8466797,0.36328125 L34.453125,0.36328125 L34.453125,11 Z M38.7939453,11 L37.1875,11 L37.1875,3.43945312 L38.7939453,3.43945312 L38.7939453,11 Z M37.0917969,1.43652344 C37.0917969,1.14941263 37.1704094,0.928386191 37.3276367,0.7734375 C37.4848641,0.618488809 37.7093084,0.541015625 38.0009766,0.541015625 C38.2835301,0.541015625 38.5034172,0.618488809 38.6606445,0.7734375 C38.8178719,0.928386191 38.8964844,1.14941263 38.8964844,1.43652344 C38.8964844,1.7099623 38.8178719,1.92529218 38.6606445,2.08251953 C38.5034172,2.23974688 38.2835301,2.31835938 38.0009766,2.31835938 C37.7093084,2.31835938 37.4848641,2.23974688 37.3276367,2.08251953 C37.1704094,1.92529218 37.0917969,1.7099623 37.0917969,1.43652344 Z M44.078125,11.1367188 C43.1347609,11.1367188 42.3987657,10.7949253 41.8701172,10.1113281 C41.3414687,9.42773096 41.0771484,8.46843065 41.0771484,7.23339844 C41.0771484,5.99380891 41.3448866,5.02881205 41.8803711,4.33837891 C42.4158555,3.64794577 43.1575473,3.30273438 44.1054688,3.30273438 C45.0989633,3.30273438 45.8554662,3.66959269 46.375,4.40332031 L46.4570312,4.40332031 C46.3795569,3.86099989 46.3408203,3.43261876 46.3408203,3.11816406 L46.3408203,0.36328125 L47.9541016,0.36328125 L47.9541016,11 L46.6962891,11 L46.4160156,10.0087891 L46.3408203,10.0087891 C45.8258438,10.7607459 45.0716196,11.1367188 44.078125,11.1367188 Z M44.5087891,9.83789062 C45.1695997,9.83789062 45.6503891,9.65218285 45.9511719,9.28076172 C46.2519546,8.90934059 46.406901,8.30664479 46.4160156,7.47265625 L46.4160156,7.24707031 C46.4160156,6.29459159 46.2610693,5.61784055 45.9511719,5.21679688 C45.6412745,4.8157532 45.1559278,4.61523438 44.4951172,4.61523438 C43.9300102,4.61523438 43.4947932,4.84423599 43.1894531,5.30224609 C42.8841131,5.7602562 42.7314453,6.4130817 42.7314453,7.26074219 C42.7314453,8.09928805 42.8795558,8.73844181 43.1757812,9.17822266 C43.4720067,9.6180035 43.9163382,9.83789062 44.5087891,9.83789062 Z M57.3945312,7.20605469 C57.3945312,8.4410869 57.0778026,9.40494445 56.4443359,10.0976562 C55.8108692,10.790368 54.9290421,11.1367188 53.7988281,11.1367188 C53.0924444,11.1367188 52.4681017,10.9772151 51.9257812,10.6582031 C51.3834608,10.3391911 50.9664728,9.88118788 50.6748047,9.28417969 C50.3831366,8.68717149 50.2373047,7.99447009 50.2373047,7.20605469 C50.2373047,5.9801371 50.5517547,5.02311542 51.1806641,4.33496094 C51.8095735,3.64680646 52.6959578,3.30273438 53.8398438,3.30273438 C54.9335992,3.30273438 55.799476,3.65478164 56.4375,4.35888672 C57.075524,5.0629918 57.3945312,6.0120383 57.3945312,7.20605469 Z M51.8916016,7.20605469 C51.8916016,8.95150612 52.5364519,9.82421875 53.8261719,9.82421875 C55.1022199,9.82421875 55.7402344,8.95150612 55.7402344,7.20605469 C55.7402344,5.47883251 55.0976627,4.61523438 53.8125,4.61523438 C53.1380175,4.61523438 52.6492528,4.83853943 52.3461914,5.28515625 C52.04313,5.73177307 51.8916016,6.37206614 51.8916016,7.20605469 Z M64.7568359,8.84667969 C64.7568359,9.58496463 64.4879584,10.1512025 63.9501953,10.5454102 C63.4124322,10.9396179 62.6422576,11.1367188 61.6396484,11.1367188 C60.6324819,11.1367188 59.8235708,10.984051 59.2128906,10.6787109 L59.2128906,9.29101562 C60.1015669,9.70117393 60.9287071,9.90625 61.6943359,9.90625 C62.6832732,9.90625 63.1777344,9.60775038 63.1777344,9.01074219 C63.1777344,8.81933498 63.1230474,8.65983137 63.0136719,8.53222656 C62.9042963,8.40462176 62.7242851,8.27246162 62.4736328,8.13574219 C62.2229805,7.99902275 61.8743512,7.84407639 61.4277344,7.67089844 C60.5572873,7.33365717 59.9682633,6.99642096 59.6606445,6.65917969 C59.3530258,6.32193842 59.1992188,5.88444279 59.1992188,5.34667969 C59.1992188,4.69954104 59.4601211,4.19710465 59.9819336,3.83935547 C60.5037461,3.48160628 61.2135372,3.30273438 62.1113281,3.30273438 C63.0000044,3.30273438 63.8408163,3.4827456 64.6337891,3.84277344 L64.1142578,5.05273438 C63.2984985,4.71549311 62.612633,4.546875 62.0566406,4.546875 C61.2089801,4.546875 60.7851562,4.78840904 60.7851562,5.27148438 C60.7851562,5.50846473 60.8956695,5.70898355 61.1166992,5.87304688 C61.337729,6.0371102 61.8196577,6.26269388 62.5625,6.54980469 C63.1868521,6.79134235 63.6402981,7.01236879 63.9228516,7.21289062 C64.2054051,7.41341246 64.4150384,7.6446927 64.5517578,7.90673828 C64.6884772,8.16878386 64.7568359,8.48209453 64.7568359,8.84667969 Z" id="Semibold"></path>
                    </g>
                </g>
                <g id="desktop-/-formulario-/-texto-copy-3" transform="translate(480.000000, 108.000000)">
                    <g id="Stacked-Group" fill="#25282D">
                        <g id="texto-/-inputs-/-negro-/-16px-bold-/-izquierda">
                            <path d="M1.93945312,11 L0.319335938,11 L0.319335938,1.00585938 L5.95898438,1.00585938 L5.95898438,2.38671875 L1.93945312,2.38671875 L1.93945312,5.51074219 L5.70605469,5.51074219 L5.70605469,6.8984375 L1.93945312,6.8984375 L1.93945312,11 Z M11.3388672,11.1367188 C10.1630801,11.1367188 9.24365566,10.793786 8.58056641,10.1079102 C7.91747715,9.42203433 7.5859375,8.47754508 7.5859375,7.27441406 C7.5859375,6.03938185 7.89355161,5.06868843 8.50878906,4.36230469 C9.12402651,3.65592095 9.96939566,3.30273438 11.0449219,3.30273438 C12.0429737,3.30273438 12.8313773,3.60579124 13.4101562,4.21191406 C13.9889352,4.81803688 14.2783203,5.65201292 14.2783203,6.71386719 L14.2783203,7.58203125 L9.24023438,7.58203125 C9.26302095,8.31575888 9.46126115,8.87971808 9.83496094,9.27392578 C10.2086607,9.66813348 10.7350226,9.86523438 11.4140625,9.86523438 C11.8606793,9.86523438 12.276528,9.82307985 12.6616211,9.73876953 C13.0467142,9.65445921 13.4602842,9.5143239 13.9023438,9.31835938 L13.9023438,10.6240234 C13.5104147,10.8108733 13.1139343,10.9430335 12.7128906,11.0205078 C12.311847,11.0979822 11.8538437,11.1367188 11.3388672,11.1367188 Z M11.0449219,4.51953125 C10.5345027,4.51953125 10.1254898,4.68131349 9.81787109,5.00488281 C9.51025237,5.32845214 9.32682321,5.80012711 9.26757812,6.41992188 L12.6992188,6.41992188 C12.6901041,5.79556979 12.539715,5.32275551 12.2480469,5.00146484 C11.9563787,4.68017417 11.5553411,4.51953125 11.0449219,4.51953125 Z M19.5898438,11.1367188 C18.4459578,11.1367188 17.5766631,10.8029005 16.9819336,10.1352539 C16.3872041,9.46760734 16.0898438,8.50944635 16.0898438,7.26074219 C16.0898438,5.98925146 16.4008758,5.01172217 17.0229492,4.328125 C17.6450226,3.64452783 18.5439394,3.30273438 19.7197266,3.30273438 C20.5172566,3.30273438 21.2350229,3.45084487 21.8730469,3.74707031 L21.3876953,5.0390625 C20.7086555,4.77473826 20.1481142,4.64257812 19.7060547,4.64257812 C18.3981054,4.64257812 17.7441406,5.51073351 17.7441406,7.24707031 C17.7441406,8.0947308 17.9070622,8.73160594 18.2329102,9.15771484 C18.5587581,9.58382375 19.0361297,9.796875 19.6650391,9.796875 C20.3805374,9.796875 21.0572885,9.6191424 21.6953125,9.26367188 L21.6953125,10.6650391 C21.4082017,10.8336597 21.1017269,10.9544267 20.7758789,11.0273438 C20.4500309,11.1002608 20.0546898,11.1367188 19.5898438,11.1367188 Z M30.5615234,11 L28.9482422,11 L28.9482422,6.3515625 C28.9482422,5.76822625 28.8308931,5.33300925 28.5961914,5.04589844 C28.3614897,4.75878763 27.9889348,4.61523438 27.4785156,4.61523438 C26.8040331,4.61523438 26.3084326,4.81689251 25.9916992,5.22021484 C25.6749659,5.62353717 25.5166016,6.29914891 25.5166016,7.24707031 L25.5166016,11 L23.9101562,11 L23.9101562,0.36328125 L25.5166016,0.36328125 L25.5166016,3.06347656 C25.5166016,3.49642144 25.4892581,3.95898191 25.4345703,4.45117188 L25.5371094,4.45117188 C25.7558605,4.08658672 26.0600566,3.80403746 26.449707,3.60351562 C26.8393574,3.40299379 27.2939427,3.30273438 27.8134766,3.30273438 C29.645517,3.30273438 30.5615234,4.22557671 30.5615234,6.07128906 L30.5615234,11 Z M37.9648438,11 L37.6435547,9.94726562 L37.5888672,9.94726562 C37.224282,10.4075544 36.8574237,10.7208651 36.4882812,10.887207 C36.1191388,11.053549 35.6451852,11.1367188 35.0664062,11.1367188 C34.323564,11.1367188 33.7436544,10.9361999 33.3266602,10.5351562 C32.9096659,10.1341126 32.7011719,9.56673544 32.7011719,8.83300781 C32.7011719,8.05370704 32.990557,7.46582229 33.5693359,7.06933594 C34.1481149,6.67284958 35.029942,6.45638039 36.2148438,6.41992188 L37.5205078,6.37890625 L37.5205078,5.97558594 C37.5205078,5.49251061 37.407716,5.13134885 37.1821289,4.89208984 C36.9565418,4.65283083 36.6067732,4.53320312 36.1328125,4.53320312 C35.7454408,4.53320312 35.3740252,4.5901687 35.0185547,4.70410156 C34.6630842,4.81803442 34.3212907,4.95247318 33.9931641,5.10742188 L33.4736328,3.95898438 C33.8837911,3.7447906 34.3326799,3.58186905 34.8203125,3.47021484 C35.3079451,3.35856064 35.768227,3.30273438 36.2011719,3.30273438 C37.1627652,3.30273438 37.8885067,3.5123677 38.378418,3.93164062 C38.8683293,4.35091355 39.1132812,5.00943562 39.1132812,5.90722656 L39.1132812,11 L37.9648438,11 Z M35.5722656,9.90625 C36.1556019,9.90625 36.6238589,9.74332845 36.9770508,9.41748047 C37.3302427,9.09163249 37.5068359,8.63476856 37.5068359,8.046875 L37.5068359,7.390625 L36.5361328,7.43164062 C35.7796186,7.45898451 35.2293311,7.58544809 34.8852539,7.81103516 C34.5411767,8.03662222 34.3691406,8.38183361 34.3691406,8.84667969 C34.3691406,9.18392096 34.4694,9.4448233 34.6699219,9.62939453 C34.8704437,9.81396577 35.171222,9.90625 35.5722656,9.90625 Z M48.4169922,11.1367188 C47.4736281,11.1367188 46.7376329,10.7949253 46.2089844,10.1113281 C45.6803359,9.42773096 45.4160156,8.46843065 45.4160156,7.23339844 C45.4160156,5.99380891 45.6837538,5.02881205 46.2192383,4.33837891 C46.7547227,3.64794577 47.4964145,3.30273438 48.4443359,3.30273438 C49.4378305,3.30273438 50.1943333,3.66959269 50.7138672,4.40332031 L50.7958984,4.40332031 C50.7184241,3.86099989 50.6796875,3.43261876 50.6796875,3.11816406 L50.6796875,0.36328125 L52.2929688,0.36328125 L52.2929688,11 L51.0351562,11 L50.7548828,10.0087891 L50.6796875,10.0087891 C50.164711,10.7607459 49.4104867,11.1367188 48.4169922,11.1367188 Z M48.8476562,9.83789062 C49.5084668,9.83789062 49.9892563,9.65218285 50.2900391,9.28076172 C50.5908218,8.90934059 50.7457682,8.30664479 50.7548828,7.47265625 L50.7548828,7.24707031 C50.7548828,6.29459159 50.5999364,5.61784055 50.2900391,5.21679688 C49.9801417,4.8157532 49.494795,4.61523438 48.8339844,4.61523438 C48.2688774,4.61523438 47.8336604,4.84423599 47.5283203,5.30224609 C47.2229802,5.7602562 47.0703125,6.4130817 47.0703125,7.26074219 C47.0703125,8.09928805 47.218423,8.73844181 47.5146484,9.17822266 C47.8108739,9.6180035 48.2552054,9.83789062 48.8476562,9.83789062 Z M58.3291016,11.1367188 C57.1533144,11.1367188 56.23389,10.793786 55.5708008,10.1079102 C54.9077115,9.42203433 54.5761719,8.47754508 54.5761719,7.27441406 C54.5761719,6.03938185 54.883786,5.06868843 55.4990234,4.36230469 C56.1142609,3.65592095 56.95963,3.30273438 58.0351562,3.30273438 C59.0332081,3.30273438 59.8216117,3.60579124 60.4003906,4.21191406 C60.9791696,4.81803688 61.2685547,5.65201292 61.2685547,6.71386719 L61.2685547,7.58203125 L56.2304688,7.58203125 C56.2532553,8.31575888 56.4514955,8.87971808 56.8251953,9.27392578 C57.1988951,9.66813348 57.725257,9.86523438 58.4042969,9.86523438 C58.8509137,9.86523438 59.2667624,9.82307985 59.6518555,9.73876953 C60.0369485,9.65445921 60.4505186,9.5143239 60.8925781,9.31835938 L60.8925781,10.6240234 C60.5006491,10.8108733 60.1041687,10.9430335 59.703125,11.0205078 C59.3020813,11.0979822 58.8440781,11.1367188 58.3291016,11.1367188 Z M58.0351562,4.51953125 C57.524737,4.51953125 57.1157242,4.68131349 56.8081055,5.00488281 C56.5004867,5.32845214 56.3170576,5.80012711 56.2578125,6.41992188 L59.6894531,6.41992188 C59.6803385,5.79556979 59.5299494,5.32275551 59.2382812,5.00146484 C58.9466131,4.68017417 58.5455755,4.51953125 58.0351562,4.51953125 Z M74.2568359,11 L72.6435547,11 L72.6435547,6.3515625 C72.6435547,5.76822625 72.5262056,5.33300925 72.2915039,5.04589844 C72.0568022,4.75878763 71.6842473,4.61523438 71.1738281,4.61523438 C70.4947883,4.61523438 69.9980484,4.8157532 69.6835938,5.21679688 C69.3691391,5.61784055 69.2119141,6.29003435 69.2119141,7.23339844 L69.2119141,11 L67.6054688,11 L67.6054688,3.43945312 L68.8632812,3.43945312 L69.0888672,4.43066406 L69.1708984,4.43066406 C69.3987642,4.07063622 69.7223286,3.79264421 70.1416016,3.59667969 C70.5608745,3.40071517 71.0257136,3.30273438 71.5361328,3.30273438 C73.349944,3.30273438 74.2568359,4.22557671 74.2568359,6.07128906 L74.2568359,11 Z M81.6601562,11 L81.3388672,9.94726562 L81.2841797,9.94726562 C80.9195945,10.4075544 80.5527362,10.7208651 80.1835938,10.887207 C79.8144513,11.053549 79.3404977,11.1367188 78.7617188,11.1367188 C78.0188765,11.1367188 77.4389669,10.9361999 77.0219727,10.5351562 C76.6049784,10.1341126 76.3964844,9.56673544 76.3964844,8.83300781 C76.3964844,8.05370704 76.6858695,7.46582229 77.2646484,7.06933594 C77.8434274,6.67284958 78.7252545,6.45638039 79.9101562,6.41992188 L81.2158203,6.37890625 L81.2158203,5.97558594 C81.2158203,5.49251061 81.1030285,5.13134885 80.8774414,4.89208984 C80.6518543,4.65283083 80.3020857,4.53320312 79.828125,4.53320312 C79.4407533,4.53320312 79.0693377,4.5901687 78.7138672,4.70410156 C78.3583967,4.81803442 78.0166032,4.95247318 77.6884766,5.10742188 L77.1689453,3.95898438 C77.5791036,3.7447906 78.0279924,3.58186905 78.515625,3.47021484 C79.0032576,3.35856064 79.4635395,3.30273438 79.8964844,3.30273438 C80.8580777,3.30273438 81.5838192,3.5123677 82.0737305,3.93164062 C82.5636418,4.35091355 82.8085938,5.00943562 82.8085938,5.90722656 L82.8085938,11 L81.6601562,11 Z M79.2675781,9.90625 C79.8509144,9.90625 80.3191714,9.74332845 80.6723633,9.41748047 C81.0255552,9.09163249 81.2021484,8.63476856 81.2021484,8.046875 L81.2021484,7.390625 L80.2314453,7.43164062 C79.4749311,7.45898451 78.9246436,7.58544809 78.5805664,7.81103516 C78.2364892,8.03662222 78.0644531,8.38183361 78.0644531,8.84667969 C78.0644531,9.18392096 78.1647125,9.4448233 78.3652344,9.62939453 C78.5657562,9.81396577 78.8665345,9.90625 79.2675781,9.90625 Z M88.5371094,11.1367188 C87.3932234,11.1367188 86.5239288,10.8029005 85.9291992,10.1352539 C85.3344697,9.46760734 85.0371094,8.50944635 85.0371094,7.26074219 C85.0371094,5.98925146 85.3481414,5.01172217 85.9702148,4.328125 C86.5922883,3.64452783 87.4912051,3.30273438 88.6669922,3.30273438 C89.4645222,3.30273438 90.1822885,3.45084487 90.8203125,3.74707031 L90.3349609,5.0390625 C89.6559211,4.77473826 89.0953798,4.64257812 88.6533203,4.64257812 C87.3453711,4.64257812 86.6914062,5.51073351 86.6914062,7.24707031 C86.6914062,8.0947308 86.8543278,8.73160594 87.1801758,9.15771484 C87.5060238,9.58382375 87.9833953,9.796875 88.6123047,9.796875 C89.3278031,9.796875 90.0045541,9.6191424 90.6425781,9.26367188 L90.6425781,10.6650391 C90.3554673,10.8336597 90.0489925,10.9544267 89.7231445,11.0273438 C89.3972965,11.1002608 89.0019554,11.1367188 88.5371094,11.1367188 Z M94.4638672,11 L92.8574219,11 L92.8574219,3.43945312 L94.4638672,3.43945312 L94.4638672,11 Z M92.7617188,1.43652344 C92.7617188,1.14941263 92.8403312,0.928386191 92.9975586,0.7734375 C93.1547859,0.618488809 93.3792303,0.541015625 93.6708984,0.541015625 C93.9534519,0.541015625 94.1733391,0.618488809 94.3305664,0.7734375 C94.4877938,0.928386191 94.5664062,1.14941263 94.5664062,1.43652344 C94.5664062,1.7099623 94.4877938,1.92529218 94.3305664,2.08251953 C94.1733391,2.23974688 93.9534519,2.31835938 93.6708984,2.31835938 C93.3792303,2.31835938 93.1547859,2.23974688 92.9975586,2.08251953 C92.8403312,1.92529218 92.7617188,1.7099623 92.7617188,1.43652344 Z M103.569336,11 L101.956055,11 L101.956055,6.33789062 C101.956055,5.75911169 101.846681,5.32731262 101.62793,5.04248047 C101.409179,4.75764832 101.067385,4.61523438 100.602539,4.61523438 C99.9827443,4.61523438 99.528159,4.81689251 99.2387695,5.22021484 C98.9493801,5.62353717 98.8046875,6.29459166 98.8046875,7.23339844 L98.8046875,11 L97.1982422,11 L97.1982422,3.43945312 L98.4560547,3.43945312 L98.6816406,4.43066406 L98.7636719,4.43066406 C98.9733083,4.07063622 99.2775045,3.79264421 99.6762695,3.59667969 C100.075035,3.40071517 100.513669,3.30273438 100.992188,3.30273438 C102.154303,3.30273438 102.924477,3.69921479 103.302734,4.4921875 L103.412109,4.4921875 C103.635418,4.11848771 103.949868,3.82682396 104.355469,3.6171875 C104.76107,3.40755104 105.225909,3.30273438 105.75,3.30273438 C106.652348,3.30273438 107.309731,3.53059668 107.722168,3.98632812 C108.134605,4.44205957 108.34082,5.1370396 108.34082,6.07128906 L108.34082,11 L106.734375,11 L106.734375,6.33789062 C106.734375,5.75911169 106.623862,5.32731262 106.402832,5.04248047 C106.181802,4.75764832 105.83887,4.61523438 105.374023,4.61523438 C104.749671,4.61523438 104.292807,4.81005665 104.003418,5.19970703 C103.714029,5.58935742 103.569336,6.18749597 103.569336,6.99414062 L103.569336,11 Z M112.626953,11 L111.020508,11 L111.020508,3.43945312 L112.626953,3.43945312 L112.626953,11 Z M110.924805,1.43652344 C110.924805,1.14941263 111.003417,0.928386191 111.160645,0.7734375 C111.317872,0.618488809 111.542316,0.541015625 111.833984,0.541015625 C112.116538,0.541015625 112.336425,0.618488809 112.493652,0.7734375 C112.65088,0.928386191 112.729492,1.14941263 112.729492,1.43652344 C112.729492,1.7099623 112.65088,1.92529218 112.493652,2.08251953 C112.336425,2.23974688 112.116538,2.31835938 111.833984,2.31835938 C111.542316,2.31835938 111.317872,2.23974688 111.160645,2.08251953 C111.003417,1.92529218 110.924805,1.7099623 110.924805,1.43652344 Z M118.663086,11.1367188 C117.487299,11.1367188 116.567874,10.793786 115.904785,10.1079102 C115.241696,9.42203433 114.910156,8.47754508 114.910156,7.27441406 C114.910156,6.03938185 115.21777,5.06868843 115.833008,4.36230469 C116.448245,3.65592095 117.293614,3.30273438 118.369141,3.30273438 C119.367192,3.30273438 120.155596,3.60579124 120.734375,4.21191406 C121.313154,4.81803688 121.602539,5.65201292 121.602539,6.71386719 L121.602539,7.58203125 L116.564453,7.58203125 C116.58724,8.31575888 116.78548,8.87971808 117.15918,9.27392578 C117.532879,9.66813348 118.059241,9.86523438 118.738281,9.86523438 C119.184898,9.86523438 119.600747,9.82307985 119.98584,9.73876953 C120.370933,9.65445921 120.784503,9.5143239 121.226562,9.31835938 L121.226562,10.6240234 C120.834633,10.8108733 120.438153,10.9430335 120.037109,11.0205078 C119.636066,11.0979822 119.178062,11.1367188 118.663086,11.1367188 Z M118.369141,4.51953125 C117.858721,4.51953125 117.449709,4.68131349 117.14209,5.00488281 C116.834471,5.32845214 116.651042,5.80012711 116.591797,6.41992188 L120.023438,6.41992188 C120.014323,5.79556979 119.863934,5.32275551 119.572266,5.00146484 C119.280597,4.68017417 118.87956,4.51953125 118.369141,4.51953125 Z M130.516602,11 L128.90332,11 L128.90332,6.3515625 C128.90332,5.76822625 128.785971,5.33300925 128.55127,5.04589844 C128.316568,4.75878763 127.944013,4.61523438 127.433594,4.61523438 C126.754554,4.61523438 126.257814,4.8157532 125.943359,5.21679688 C125.628905,5.61784055 125.47168,6.29003435 125.47168,7.23339844 L125.47168,11 L123.865234,11 L123.865234,3.43945312 L125.123047,3.43945312 L125.348633,4.43066406 L125.430664,4.43066406 C125.65853,4.07063622 125.982094,3.79264421 126.401367,3.59667969 C126.82064,3.40071517 127.285479,3.30273438 127.795898,3.30273438 C129.60971,3.30273438 130.516602,4.22557671 130.516602,6.07128906 L130.516602,11 Z M136.005859,9.83789062 C136.397788,9.83789062 136.789712,9.7763678 137.181641,9.65332031 L137.181641,10.8632812 C137.003905,10.9407556 136.774904,11.0056964 136.494629,11.0581055 C136.214354,11.1105146 135.92383,11.1367188 135.623047,11.1367188 C134.100904,11.1367188 133.339844,10.3346434 133.339844,8.73046875 L133.339844,4.65625 L132.307617,4.65625 L132.307617,3.9453125 L133.415039,3.35742188 L133.961914,1.7578125 L134.953125,1.7578125 L134.953125,3.43945312 L137.106445,3.43945312 L137.106445,4.65625 L134.953125,4.65625 L134.953125,8.703125 C134.953125,9.09049673 135.049966,9.37646392 135.243652,9.56103516 C135.437338,9.74560639 135.691405,9.83789062 136.005859,9.83789062 Z M145.835938,7.20605469 C145.835938,8.4410869 145.519209,9.40494445 144.885742,10.0976562 C144.252275,10.790368 143.370448,11.1367188 142.240234,11.1367188 C141.533851,11.1367188 140.909508,10.9772151 140.367188,10.6582031 C139.824867,10.3391911 139.407879,9.88118788 139.116211,9.28417969 C138.824543,8.68717149 138.678711,7.99447009 138.678711,7.20605469 C138.678711,5.9801371 138.993161,5.02311542 139.62207,4.33496094 C140.25098,3.64680646 141.137364,3.30273438 142.28125,3.30273438 C143.375005,3.30273438 144.240882,3.65478164 144.878906,4.35888672 C145.51693,5.0629918 145.835938,6.0120383 145.835938,7.20605469 Z M140.333008,7.20605469 C140.333008,8.95150612 140.977858,9.82421875 142.267578,9.82421875 C143.543626,9.82421875 144.181641,8.95150612 144.181641,7.20605469 C144.181641,5.47883251 143.539069,4.61523438 142.253906,4.61523438 C141.579424,4.61523438 141.090659,4.83853943 140.787598,5.28515625 C140.484536,5.73177307 140.333008,6.37206614 140.333008,7.20605469 Z" id="Semibold"></path>
                        </g>
                    </g>
                    <g id="2.-Entrada-de-datos-/-2.11-Time---Date-picker-/--icono-/-fecha-/-mediano-/-vacío" transform="translate(0.000000, 28.000000)">
                        <g id="0.-Colores-/-fondos-/-blanco-con-trazo---inputs-/-default" fill="#FFFFFF" fill-rule="evenodd" stroke="#DDDDDD" stroke-width="1">
                            <rect id="Rectangle-15-Copy-2" x="0.5" y="0.5" width="215" height="39" rx="2"></rect>
                        </g>
                        <g id="0.-Texto-/-Inputs-/-Activo-/-izquierda-/-16px-/-regular" transform="translate(12.000000, 8.000000)" fill="#6F6863" font-family="Helvetica" font-size="16" font-weight="normal" letter-spacing="0.5" line-spacing="24">
                            <text id="Regular">
                                <tspan x="0" y="15">DD/MM/AAAA</tspan>
                            </text>
                        </g>
                        <g id="0.-iconos-/-calendario" transform="translate(188.000000, 12.000000)">
                            <mask id="mask-2" fill="white">
                                <use xlink:href="#path-1"></use>
                            </mask>
                            <use id="calendar---anticon" fill="#4C433D" fill-rule="evenodd" xlink:href="#path-1"></use>
                            <g id="0.-Colores-/-primarios-/-Azul-Zurich-/-1" mask="url(#mask-2)" fill="#003399" fill-rule="evenodd">
                                <g transform="translate(-0.666667, -0.666667)" id="Rectangle-3">
                                    <rect x="0" y="0" width="17" height="17" rx="2"></rect>
                                </g>
                            </g>
                        </g>
                    </g>
                </g>
                <path d="M529.483215,66.0251839 C531.234783,65.8490596 533.027163,66.6010537 534.103285,68.1453602 C534.727597,69.0412885 535.017374,70.0697637 534.999196,71.0833059 C534.977322,72.9222299 533.959904,74.5222671 532.459612,75.371951 L409.027143,160.979613 L529.990173,160.979613 C532.756779,160.979613 534.999556,163.217115 534.999556,165.977215 C534.999556,168.737314 532.756779,170.974816 529.990173,170.974816 L393.516785,170.974816 C391.765217,171.15094 389.972837,170.398946 388.896715,168.85464 C388.272403,167.958711 387.982626,166.930236 388.000804,165.916694 C388.022678,164.07777 389.040096,162.477733 390.540388,161.628049 L513.972857,76.0203869 L393.009827,76.0203869 C390.243221,76.0203869 388.000444,73.7828845 388.000444,71.0227854 C388.000444,68.2626863 390.243221,66.0251839 393.009827,66.0251839 L529.483215,66.0251839 Z" id="Combined-Shape" fill="#4C70B7" fill-rule="nonzero" opacity="0.5"></path>
                <path d="M372.039062,72 L367.339844,72 L367.339844,62.9296875 C367.339844,61.8281195 367.363281,60.8203171 367.410156,59.90625 C367.121092,60.2578143 366.761721,60.6249981 366.332031,61.0078125 L364.386719,62.6132812 L361.984375,59.6601562 L367.867188,54.8671875 L372.039062,54.8671875 L372.039062,72 Z" id="1" fill="#4C70B7"></path>
                <path d="M573.699219,161.683594 L571.8125,161.683594 L571.8125,165 L567.242188,165 L567.242188,161.683594 L560.410156,161.683594 L560.410156,158.285156 L567.535156,147.867188 L571.8125,147.867188 L571.8125,158.226562 L573.699219,158.226562 L573.699219,161.683594 Z M567.242188,158.226562 L567.242188,156.234375 C567.242188,155.859373 567.255859,155.353519 567.283203,154.716797 C567.310547,154.080075 567.332031,153.746094 567.347656,153.714844 L567.21875,153.714844 C566.953124,154.316409 566.652345,154.878904 566.316406,155.402344 L564.417969,158.226562 L567.242188,158.226562 Z" id="4" fill="#4C70B7"></path>
                <path d="M573.148438,72 L560.714844,72 L560.714844,68.953125 L564.898438,64.7226562 C566.093756,63.47265 566.874998,62.6191429 567.242188,62.1621094 C567.609377,61.7050758 567.865234,61.3125016 568.009766,60.984375 C568.154298,60.6562484 568.226562,60.3125018 568.226562,59.953125 C568.226562,59.5078103 568.082033,59.1562513 567.792969,58.8984375 C567.503905,58.6406237 567.097659,58.5117188 566.574219,58.5117188 C566.035154,58.5117188 565.490237,58.6660141 564.939453,58.9746094 C564.388669,59.2832047 563.765628,59.7382782 563.070312,60.3398438 L560.527344,57.3632812 C561.410161,56.5742148 562.152341,56.0097673 562.753906,55.6699219 C563.355472,55.3300764 564.009762,55.0703134 564.716797,54.890625 C565.423832,54.7109366 566.218746,54.6210938 567.101562,54.6210938 C568.210943,54.6210938 569.201168,54.8164043 570.072266,55.2070312 C570.943364,55.5976582 571.619138,56.1542933 572.099609,56.8769531 C572.580081,57.599613 572.820312,58.4101518 572.820312,59.3085938 C572.820312,59.9804721 572.736329,60.6015596 572.568359,61.171875 C572.40039,61.7421904 572.140627,62.3027316 571.789062,62.8535156 C571.437498,63.4042996 570.970706,63.984372 570.388672,64.59375 C569.806638,65.203128 568.566416,66.3593665 566.667969,68.0625 L566.667969,68.1796875 L573.148438,68.1796875 L573.148438,72 Z" id="2" fill="#4C70B7"></path>
                <path d="M373.574219,152.582031 C373.574219,153.644537 373.250003,154.556637 372.601562,155.318359 C371.953122,156.080082 371.015631,156.632811 369.789062,156.976562 L369.789062,157.046875 C372.648452,157.406252 374.078125,158.757801 374.078125,161.101562 C374.078125,162.69532 373.447272,163.949214 372.185547,164.863281 C370.923822,165.777348 369.171886,166.234375 366.929688,166.234375 C366.007808,166.234375 365.154301,166.167969 364.369141,166.035156 C363.58398,165.902343 362.73438,165.660158 361.820312,165.308594 L361.820312,161.464844 C362.570316,161.847658 363.33398,162.130858 364.111328,162.314453 C364.888676,162.498048 365.605465,162.589844 366.261719,162.589844 C367.277349,162.589844 368.017576,162.447267 368.482422,162.162109 C368.947268,161.876952 369.179688,161.429691 369.179688,160.820312 C369.179688,160.35156 369.058595,159.990236 368.816406,159.736328 C368.574218,159.482421 368.183596,159.291016 367.644531,159.162109 C367.105466,159.033202 366.402348,158.96875 365.535156,158.96875 L364.480469,158.96875 L364.480469,155.488281 L365.558594,155.488281 C367.910168,155.488281 369.085938,154.886725 369.085938,153.683594 C369.085938,153.230466 368.912111,152.894532 368.564453,152.675781 C368.216795,152.45703 367.750003,152.347656 367.164062,152.347656 C366.070307,152.347656 364.937506,152.71484 363.765625,153.449219 L361.84375,150.355469 C362.750005,149.730466 363.67773,149.285158 364.626953,149.019531 C365.576177,148.753905 366.664056,148.621094 367.890625,148.621094 C369.664071,148.621094 371.054682,148.972653 372.0625,149.675781 C373.070318,150.37891 373.574219,151.34765 373.574219,152.582031 Z" id="3" fill="#4C70B7"></path>
            </g>
        </g>
    </g>
</svg>