<svg viewBox="0 0 16 17" fill="none" xmlns="http://www.w3.org/2000/svg">
<path fill-rule="evenodd" clip-rule="evenodd" d="M8.74606 1.99179C8.70608 1.97878 8.66338 1.97175 8.619 1.97175L8.62 1.96875H7.389C7.31635 1.96875 7.24803 1.98766 7.18878 2.02087C7.06126 2.08959 6.976 2.2239 6.976 2.38175V7.91875H5.953V7.90275L5.948 7.71075C5.904 6.83075 5.553 6.19775 4.95 5.83375L4.926 5.82075V3.61075C4.926 3.38475 4.743 3.20075 4.516 3.20075H3.49L3.45752 3.20382C3.45077 3.2043 3.44406 3.20494 3.4374 3.20573L3.416 3.20775C3.38777 3.2129 3.36055 3.22092 3.33466 3.2315C3.1832 3.29112 3.078 3.43741 3.078 3.61275V5.82875C2.462 6.22275 2.052 7.03575 2.052 7.90575V7.92075H0.617C0.344179 7.92075 0.112566 8.09846 0.0316899 8.34434C0.011152 8.40532 0 8.47037 0 8.53775L0.00127856 8.55544C0.00180624 8.57311 0.00308007 8.5906 0.00506959 8.60788L0.006 8.62075C0.0145047 8.68256 0.0324754 8.74167 0.0583681 8.79653C0.118055 8.92455 0.220467 9.0287 0.347229 9.09061C0.428784 9.13097 0.520114 9.15375 0.616 9.15375H1.303L1.852 13.5398C1.854 13.5478 1.85575 13.5555 1.8575 13.5632C1.85925 13.571 1.861 13.5788 1.863 13.5868L1.864 13.5948C1.882 13.6778 1.903 13.7557 1.928 13.8298C1.932 13.8418 1.936 13.8538 1.939 13.8668C1.949 13.8968 1.959 13.9257 1.97 13.9548C2.243 14.7188 2.743 15.0927 3.46 15.2358C3.799 15.3097 4.112 15.3098 4.31 15.3098H11.771L11.891 15.3088L12.107 15.3028C13.164 15.2498 13.867 14.7757 14.141 13.6027L14.7 9.15375H15.389C15.4347 9.15375 15.4793 9.14862 15.5223 9.13892C15.7998 9.07907 16.008 8.83205 16.008 8.53675C16.008 8.19675 15.732 7.92075 15.392 7.92075H13.7235L14.938 5.63975C15.0195 5.51421 15.0813 5.37967 15.1233 5.2403C15.18 5.05506 15.2 4.86496 15.1874 4.67885C15.1723 4.44413 15.1055 4.21114 14.987 3.99775C14.716 3.49775 14.215 3.20175 13.665 3.20175L13.662 3.20175L13.659 3.20175C13.143 3.20175 12.661 3.46775 12.383 3.91175L9.761 7.92175L9.766 7.92175L12.393 3.90775C12.6715 3.4656 13.1462 3.20276 13.662 3.20175C14.5248 3.2034 15.1355 3.90672 15.1874 4.67885C15.1997 4.86799 15.1783 5.05826 15.1233 5.2403C15.0837 5.36984 15.0261 5.497 14.949 5.61875L13.722 7.92075H13.7235L13.723 7.92175H15.389C15.726 7.92175 16.005 8.20075 16.005 8.53775C16.005 8.82907 15.7965 9.07705 15.5223 9.13892C15.4803 9.14798 15.4367 9.15275 15.392 9.15275H11.662L8.295 12.5208C8.135 12.6807 7.875 12.6807 7.715 12.5208L5.261 10.0717L5.243 10.0577L5.23 10.0407L4.339 9.15275H0.617C0.520269 9.15275 0.428717 9.13041 0.347229 9.09061C0.220467 9.0287 0.118055 8.92455 0.0583681 8.79653C0.0311012 8.73804 0.012751 8.67457 0.00506959 8.60788L0.00127856 8.55544L0.001 8.53675C0.001 8.46957 0.0117751 8.40489 0.0316899 8.34434C0.113878 8.10034 0.346376 7.92175 0.616 7.92175H1.864L2.052 7.92075L2.053 7.90475C2.053 7.17575 2.35 6.46175 2.837 6.01775L2.953 5.91975L3.078 5.82875L3.079 3.61175C3.079 3.44031 3.18449 3.29287 3.33466 3.2315C3.36699 3.21877 3.40143 3.21 3.4374 3.20573L3.45752 3.20382C3.46758 3.20311 3.47774 3.20275 3.488 3.20275H4.514C4.744 3.20275 4.924 3.38375 4.924 3.61275V5.82075C5.441 6.12475 5.95 6.71575 5.95 7.90575V7.92175H6.976V7.91875H6.979V2.37875C6.979 2.22473 7.06371 2.09096 7.18878 2.02087C7.24706 1.98946 7.31417 1.97175 7.386 1.97175H8.617C8.66229 1.97175 8.70564 1.97877 8.74606 1.99179ZM8.934 2.11925C8.99335 2.19043 9.029 2.282 9.029 2.38175V7.92175L9.027 7.92175V2.38175C9.027 2.28126 8.99234 2.19002 8.934 2.11925ZM4.335 9.16175H2.546L3.065 13.3298C3.199 13.9368 3.493 14.0787 4.311 14.0787L11.937 14.0767C11.977 14.0757 12.012 14.0747 12.049 14.0728C12.6 14.0457 12.81 13.9047 12.934 13.3867L12.94 13.3317L13.455 9.16175H11.657L8.292 12.5267C8.218 12.6087 8.103 12.6497 8.005 12.6497C7.907 12.6497 7.8 12.6087 7.718 12.5267L4.335 9.16175ZM8.004 10.3597V10.3548L8.37496 10.7269L8.64952 11.0052L8.004 11.6517L7.35701 11.0067L8.004 10.3597ZM7.35701 11.0067L7.356 11.0077L8.004 11.6558L8.652 11.0077L8.64952 11.0052L8.651 11.0037L8.37496 10.7269L8.004 10.3507V10.3548L8 10.3507L7.999 10.3497L7.351 11.0007L7.35701 11.0067ZM9.275 9.15375H9.265L9.885 9.76975L9.231 10.4228L9.14241 10.3339L8.586 9.76975L9.202 9.15375H9.191L8.579 9.76875L9.14241 10.3339L9.234 10.4268L9.891 9.76975L9.275 9.15375ZM6.807 9.15375H6.813L7.429 9.76975L6.781 10.4178L6.77696 10.4138L7.42 9.76875L6.807 9.15375ZM6.124 9.76975L6.77696 10.4138L6.769 10.4218L6.115 9.76875L6.733 9.15375H6.74L6.124 9.76975ZM8.217 2.80075H8.209V2.79275H7.799V7.92275H7.807V7.93075H8.217V2.80075ZM7.807 7.92275H8.209V2.80075H7.807V7.92275ZM4.106 4.03175H4.113V6.08375C4.113 6.19099 4.15439 6.29062 4.224 6.36535C4.1497 6.28999 4.106 6.18693 4.106 6.07675V4.03175ZM4.94211 6.98072C4.81286 6.74356 4.61921 6.57157 4.359 6.46175C4.30719 6.43864 4.2615 6.40561 4.224 6.36535C4.26097 6.40285 4.3055 6.43349 4.356 6.45475L4.454 6.50075L4.545 6.55275C4.71197 6.65765 4.84512 6.79828 4.94211 6.98072ZM4.94211 6.98072C5.07415 7.22298 5.139 7.53325 5.139 7.91475V7.93075H2.882V7.92275H5.132V7.90675C5.132 7.52003 5.06704 7.21569 4.94211 6.98072ZM4.106 4.03175H3.908V6.08375C3.908 6.24775 3.809 6.39575 3.662 6.46175C3.219 6.64275 2.882 7.27475 2.882 7.91475V7.92275H2.875V7.90675C2.875 7.29275 3.178 6.70375 3.575 6.48975L3.666 6.44675L3.724 6.41275C3.833 6.33675 3.9 6.21175 3.9 6.07575V4.02375H4.105L4.106 4.02475V4.03175ZM13.1831 4.22027C13.1402 4.26104 13.1015 4.30776 13.068 4.35975L12.879 4.64675L13.396 4.85175C13.609 4.93375 13.708 5.17175 13.626 5.38575C13.6069 5.44063 13.5768 5.48822 13.5389 5.52727C13.4265 5.63433 13.2581 5.67235 13.104 5.61175L12.428 5.34175L12.114 5.82275L12.1179 5.8243L12.115 5.82875L12.575 6.00975C12.788 6.09175 12.887 6.32975 12.805 6.54375L12.8017 6.55292C12.7134 6.75364 12.4809 6.84974 12.276 6.76875L11.655 6.52375L10.741 7.92175H10.7425L10.736 7.93175H12.78L12.7853 7.92175H12.789L14.238 5.20775C14.5608 4.69706 14.2154 4.02456 13.658 4.02375C13.4809 4.02401 13.3119 4.09421 13.1831 4.22027ZM13.1831 4.22027C13.3096 4.10027 13.4734 4.03175 13.651 4.03175L13.65 4.03375C14.011 4.03375 14.191 4.29575 14.257 4.40275C14.397 4.66475 14.388 4.96075 14.216 5.23975L12.7853 7.92175H10.7425L11.655 6.52775H11.663L12.279 6.77375C12.329 6.79075 12.378 6.80675 12.427 6.80675C12.5889 6.80675 12.7421 6.71143 12.8017 6.55292C12.8039 6.54793 12.806 6.54287 12.808 6.53775C12.891 6.32675 12.788 6.08875 12.577 6.00575L12.1179 5.8243L12.427 5.35275L13.1 5.61575C13.15 5.63275 13.199 5.64875 13.248 5.64875C13.3578 5.64875 13.4636 5.60492 13.5389 5.52727C13.5804 5.4877 13.6143 5.43869 13.637 5.38175C13.721 5.17075 13.619 4.93275 13.408 4.84875L12.887 4.64075L13.075 4.35475C13.1064 4.30473 13.1428 4.25976 13.1831 4.22027Z" fill="currentColor"/>
</svg>
