<svg viewBox="0 0 16 17" fill="none" xmlns="http://www.w3.org/2000/svg">
<path fill-rule="evenodd" clip-rule="evenodd" d="M11.5236 0.853844C10.0956 0.147844 8.48957 -0.113156 6.88457 0.111844L6.88557 0.110844C4.76957 0.405844 2.90057 1.51284 1.61257 3.21884C0.324569 4.92484 -0.216431 7.03184 0.0785685 9.13984C0.291569 10.6658 0.927569 12.0648 1.90657 13.2088C1.93957 13.2478 1.97357 13.2868 2.00757 13.3258C2.01304 13.3318 2.01852 13.338 2.02399 13.3443C2.02949 13.3505 2.03507 13.3568 2.04057 13.3628C3.50457 14.9988 5.63257 16.0278 8.00057 16.0278C11.4766 16.0278 14.4346 13.8088 15.5366 10.7108C15.5439 10.6922 15.5503 10.6736 15.5568 10.6549L15.5666 10.6268L15.5748 10.6021C15.5831 10.577 15.5915 10.5514 15.6006 10.5258C15.9816 9.37384 16.0956 8.14184 15.9186 6.91284C15.7966 6.03984 15.5326 5.21184 15.1516 4.45284L15.1066 4.36384L15.0876 4.32761C15.0749 4.30339 15.0622 4.27917 15.0496 4.25584C15.0391 4.23734 15.0288 4.21859 15.0186 4.19984C15.0083 4.18114 14.998 4.1623 14.9876 4.14384C14.9146 4.01284 14.8386 3.88484 14.7586 3.75884L14.7526 3.74884L14.7336 3.71934C14.7233 3.70328 14.7131 3.68737 14.7026 3.67184C14.6876 3.64849 14.6719 3.62514 14.6564 3.60201C14.646 3.58662 14.6355 3.57098 14.6256 3.55584C14.6006 3.51784 14.5746 3.47984 14.5476 3.44284C14.5329 3.42283 14.5189 3.40282 14.5046 3.38235L14.4916 3.36384C14.4746 3.33987 14.4566 3.31589 14.4386 3.29191C13.7626 2.37491 12.8946 1.60684 11.8946 1.04884L11.8816 1.04184L11.7306 0.959844L11.6746 0.929844C11.6571 0.921344 11.6398 0.912594 11.6226 0.903844C11.6053 0.895094 11.5881 0.886344 11.5706 0.877844C11.5546 0.869844 11.5386 0.861844 11.5236 0.853844ZM7.90857 1.26884H8.05457C8.12857 1.26984 8.20057 1.27184 8.27357 1.27484C11.4696 1.40984 14.2266 3.81384 14.6926 7.09184C14.9466 8.87984 14.4866 10.6598 13.3966 12.1028C12.3066 13.5458 10.7236 14.4808 8.93557 14.7268C6.10957 15.1288 3.43757 13.7038 2.10557 11.3568L2.14357 11.4228L2.09395 11.3349L2.10557 11.3558C2.09064 11.3295 2.0757 11.3024 2.06077 11.2752L2.05457 11.2638C1.53257 10.3038 1.23557 9.20384 1.23557 8.03484C1.23557 4.50084 3.94557 1.59984 7.40057 1.29584L7.36457 1.29884C7.40279 1.29482 7.44147 1.2917 7.47999 1.28887C7.52579 1.28529 7.57148 1.28237 7.61757 1.27984L7.53657 1.28384C7.60357 1.27884 7.67057 1.27484 7.73757 1.27284L7.70995 1.27422L7.75539 1.27243L7.90857 1.26884ZM7.77442 1.27168L7.90857 1.26884C7.86386 1.26963 7.81913 1.27041 7.77442 1.27168ZM7.75539 1.27243L7.77442 1.27168L7.73757 1.27284L7.75539 1.27243ZM8.26057 1.27384L8.27357 1.27484C8.26957 1.27384 8.26557 1.27384 8.26057 1.27384ZM7.87107 1.26934C7.85857 1.26959 7.84607 1.26984 7.83357 1.26984L7.87107 1.26934ZM10.8756 3.33484C10.9766 3.33384 11.0706 3.36784 11.1496 3.43284C11.2476 3.51484 11.2976 3.62984 11.2976 3.75284C11.2816 4.61384 11.2896 5.53284 11.2976 6.45084V8.83684C11.4126 8.92684 11.4866 9.04984 11.4866 9.20584V12.4448C11.4866 12.5448 11.4686 12.6408 11.4366 12.7298C11.4016 12.8228 11.3556 12.9028 11.2976 12.9748C11.2936 12.9788 11.2906 12.9828 11.2866 12.9868C11.1022 13.2105 10.8039 13.3589 10.459 13.377L10.4276 13.3848L10.3586 13.3868L10.2446 13.3808C9.71657 13.3248 9.28157 12.9488 9.28157 12.4528V9.20484C9.28157 9.06884 9.33057 8.95984 9.40757 8.87984L9.37657 8.87384L9.33157 8.86284C9.27957 8.85284 9.23057 8.84184 9.18457 8.82484C9.17957 8.82185 9.17557 8.82085 9.17158 8.81985L9.15857 8.81484C9.09957 8.79184 9.06057 8.76684 8.99957 8.72084C8.91657 8.64984 8.86057 8.55784 8.83457 8.45584C8.81457 8.37784 8.81457 8.31084 8.82557 8.24484L8.83957 8.18084L8.86557 7.94784L8.93157 7.42684C9.10157 6.14984 9.31157 5.08284 9.49557 4.53484L9.53157 4.43184C9.66657 4.07984 9.86457 3.81984 10.1036 3.63384C10.2566 3.51384 10.6456 3.36384 10.7976 3.33884C10.8246 3.33384 10.8516 3.33284 10.8776 3.33284L10.8756 3.33484ZM7.81157 3.72884C7.81157 3.50284 7.62757 3.31884 7.40157 3.31884H7.38257C7.15257 3.31884 6.97257 3.49884 6.97257 3.72884V6.04984C6.97257 6.09884 6.97257 6.19684 6.95657 6.22184C6.90757 6.28784 6.77657 6.39384 6.66957 6.46784C6.55857 6.54784 6.44257 6.63384 6.34757 6.73584C6.22157 6.85284 6.17857 6.93384 6.16557 7.06184C6.15857 7.09184 6.15457 7.12384 6.15257 7.15684L6.15157 7.14584C6.14457 6.91084 6.08957 6.82384 5.79557 6.59084L5.78157 6.57984C5.74557 6.54984 5.70757 6.52084 5.67057 6.49284L5.53057 6.38384C5.49257 6.35384 5.46157 6.32784 5.43557 6.30484L5.37357 6.24484L5.35557 6.22184L5.35157 6.21084L5.33957 6.14284L5.33457 6.08984V6.08084C5.33357 6.06484 5.33357 6.04884 5.33357 6.03284V3.72884C5.33357 3.49884 5.15357 3.31884 4.92357 3.31884C4.71957 3.31884 4.55457 3.46084 4.52057 3.65484L4.51357 3.72884V6.03084C4.51257 6.07184 4.51357 6.11484 4.51757 6.16084C4.52357 6.24784 4.53757 6.35784 4.57357 6.46884L4.57538 6.47421C4.57774 6.48113 4.57997 6.48767 4.58157 6.49484C4.60557 6.56184 4.63657 6.62884 4.67857 6.68984C4.71357 6.73984 4.75457 6.78684 4.79857 6.83084C4.81455 6.84783 4.83154 6.86481 4.84852 6.8818C4.94252 6.9708 5.04757 7.05084 5.14557 7.12484L5.15757 7.13284L5.21457 7.17584C5.25657 7.20884 5.30057 7.24584 5.32657 7.27184L5.03157 12.2658C5.03157 12.5358 5.13757 12.8148 5.33457 13.0198C5.53957 13.2328 5.81857 13.3558 6.11357 13.3638H6.17957C6.22757 13.3628 6.27557 13.3588 6.32257 13.3518C6.87257 13.2708 7.29957 12.7978 7.28657 12.2638L6.98857 7.27184L7.00957 7.25384L7.33957 6.99784C7.47857 6.88584 7.56857 6.79884 7.64657 6.68784C7.71357 6.59384 7.75357 6.48684 7.77957 6.36784C7.80557 6.24484 7.81357 6.12884 7.81157 6.03084V3.72884ZM6.17957 13.3638L6.19557 13.3618L6.22621 13.3605L6.17957 13.3638ZM10.6656 9.54284H10.1076V12.4458C10.1076 12.4708 10.2056 12.5608 10.3866 12.5608C10.5676 12.5608 10.6656 12.4458 10.6656 12.4458V9.54284ZM5.85957 12.2838L6.15057 7.28884L6.45157 12.2908L6.44357 12.3438C6.43757 12.3628 6.42957 12.3818 6.41857 12.4008L6.37857 12.4508L6.38557 12.4458C6.38557 12.4458 6.31157 12.5138 6.21557 12.5368L6.16357 12.5428L6.10857 12.5378C5.96557 12.5098 5.85657 12.3888 5.85957 12.2838ZM10.4476 4.45984C10.3956 4.53084 10.3506 4.61584 10.3046 4.72984L10.2966 4.73784C10.1328 5.16319 9.87935 6.38208 9.67452 8.09193L9.95357 8.11784C10.1666 8.13584 10.3296 8.31284 10.3296 8.52684V8.72384H10.4686L10.4716 8.35284L10.4646 6.91884L10.4486 4.69484L10.4476 4.45984ZM6.56457 3.72884C6.56457 3.49884 6.38457 3.31884 6.15457 3.31884C5.92457 3.31884 5.74457 3.49884 5.74457 3.72884V6.03284C5.74457 6.26284 5.92457 6.44284 6.15457 6.44284C6.38457 6.44284 6.56457 6.26284 6.56457 6.03284V3.72884Z" fill="currentColor"/>
</svg>
