<svg viewBox="0 0 16 17" fill="none" xmlns="http://www.w3.org/2000/svg">
<path fill-rule="evenodd" clip-rule="evenodd" d="M11.0469 0.101562C11.1706 0.101618 11.2923 0.112615 11.412 0.133563C11.464 0.142563 11.516 0.154562 11.567 0.167562C11.682 0.196562 11.793 0.236563 11.901 0.285563C11.922 0.29456 11.942 0.304556 11.962 0.314553C11.9746 0.320475 11.9866 0.326955 11.9989 0.333567L12.012 0.340562C12.042 0.356562 12.071 0.372562 12.1 0.389562L12.1066 0.393776C12.112 0.397306 12.1173 0.400692 12.123 0.403562C12.291 0.505562 12.443 0.630562 12.575 0.777562L15.518 4.34256H15.527C15.625 4.46656 15.678 4.61856 15.678 4.76956V14.1936C15.678 14.5586 15.569 14.8996 15.381 15.1896L15.371 15.2056C15.017 15.7486 14.383 16.1056 13.669 16.1056H3.036C1.955 16.1056 1.056 15.2876 1 14.2026V4.76956C1 4.63778 1.03903 4.50962 1.11157 4.40043C1.12657 4.377 1.14292 4.35491 1.16 4.33356L4.094 0.786563C4.414 0.421562 4.85 0.190563 5.321 0.119562H5.417L11.0469 0.101562ZM11.048 1.43456L5.482 1.45156L5.416 1.46556C5.32942 1.49003 5.24903 1.53133 5.18485 1.58029L5.196 1.57156L5.18268 1.58195L5.173 1.58956L5.18117 1.58317C5.15398 1.60516 5.12905 1.62942 5.107 1.65656L2.333 5.00856V14.1796C2.352 14.4326 2.539 14.6506 2.801 14.7346C2.831 14.7436 2.863 14.7516 2.895 14.7576L2.938 14.7636L2.974 14.7666L3.036 14.7706H13.669C13.706 14.7706 13.742 14.7686 13.778 14.7636C14.056 14.7236 14.28 14.5336 14.327 14.2956C14.333 14.2646 14.336 14.2336 14.336 14.2016V5.00856L11.576 1.66056C11.475 1.54556 11.32 1.46556 11.15 1.44156L11.048 1.43456ZM6.085 6.07556C6.085 5.46356 5.591 4.96456 4.974 4.96456L4.975 4.96256C4.356 4.96256 3.864 5.45556 3.864 6.08056V13.4266C3.864 13.5416 3.908 13.6576 3.988 13.7376C4.03 13.7806 4.083 13.8156 4.14 13.8396C4.196 13.8656 4.259 13.8796 4.325 13.8796H11.678C12.29 13.8796 12.789 13.3856 12.789 12.7686C12.789 12.3006 12.507 11.9046 12.101 11.7396C11.965 11.6806 11.817 11.6486 11.66 11.6486H11.438C11.32 11.6486 11.237 11.6416 11.177 11.6246C11.148 11.6126 11.126 11.5966 11.106 11.5756C11.103 11.5716 11.102 11.5656 11.102 11.5536L11.119 11.3136C11.132 11.0106 11.077 10.8086 10.855 10.5866C10.612 10.3356 10.388 10.2986 10.011 10.3336L9.878 10.3376C9.876 10.3336 9.875 10.3286 9.875 10.3166L9.892 10.0776C9.905 9.77456 9.85 9.57256 9.628 9.35056C9.383 9.09756 9.157 9.06256 8.781 9.10256L8.659 9.11456C8.65382 9.11456 8.65311 9.11382 8.65108 9.11168L8.65 9.11056L8.638 9.09956V9.08456L8.654 8.84556C8.669 8.54056 8.615 8.33956 8.388 8.11956C8.139 7.87856 7.92 7.84256 7.547 7.87456L7.454 7.88256C7.427 7.88356 7.418 7.88356 7.411 7.87956L7.402 7.87256V7.80956L7.418 7.62156C7.433 7.31556 7.379 7.11356 7.152 6.89356C6.903 6.65256 6.684 6.61656 6.311 6.64856L6.218 6.65656C6.178 6.65856 6.176 6.65656 6.169 6.64956L6.142 6.61656C6.102 6.55556 6.085 6.45756 6.085 6.28856V6.07556ZM5.189 6.01356C5.095 5.86756 4.77 5.89756 4.77 6.10256L4.778 6.06956C4.779 6.08056 4.779 6.09156 4.779 6.10256L4.77 11.9746V12.9906L11.72 12.9856C11.819 12.9626 11.891 12.8756 11.891 12.7696C11.891 12.6456 11.793 12.5476 11.669 12.5476L11.678 12.5566L11.4512 12.5566C11.2564 12.5568 10.8167 12.5573 10.478 12.2186C10.426 12.1646 10.383 12.1096 10.349 12.0536C10.235 11.8846 10.206 11.7136 10.217 11.4796L10.229 11.2936V11.2316C10.2215 11.2316 10.2052 11.2331 10.1852 11.235C10.1731 11.2361 10.1595 11.2374 10.146 11.2386L10.096 11.2406C9.892 11.2676 9.554 11.2936 9.251 10.9916C9.169 10.9076 9.112 10.8206 9.073 10.7346C9 10.5916 8.981 10.4396 8.99 10.2446L9.002 10.0576V10.0056C8.995 10.0126 8.954 10.0186 8.915 10.0216L8.878 10.0236L8.87378 10.0239C8.67694 10.042 8.32485 10.0744 8.025 9.77456C7.873 9.62256 7.804 9.46456 7.775 9.31956C7.758 9.24756 7.75 9.17256 7.749 9.09256L7.757 8.92056L7.767 8.80456V8.77956L7.734 8.78156C7.704 8.78456 7.663 8.78856 7.633 8.78856L7.62365 8.78939C7.41879 8.80754 7.08642 8.837 6.788 8.53956C6.725 8.47656 6.677 8.41156 6.64 8.34756C6.531 8.18356 6.503 8.01356 6.515 7.78356L6.534 7.55356C6.52495 7.55392 6.50986 7.5552 6.49235 7.55669C6.46151 7.55931 6.42315 7.56256 6.397 7.56256L6.38765 7.56339C6.18279 7.58154 5.85042 7.611 5.552 7.31356C5.486 7.24656 5.433 7.17456 5.391 7.10156C5.242 6.87556 5.197 6.61856 5.197 6.29056V6.07756L5.191 6.02656L5.189 6.01556V6.01356ZM8.645 11.7566C8.724 11.6776 8.768 11.5786 8.777 11.4786V11.3996C8.768 11.2986 8.725 11.2006 8.648 11.1226C8.571 11.0446 8.473 11.0026 8.372 10.9936H8.292C8.192 11.0026 8.093 11.0466 8.017 11.1246L7.353 11.7886C7.275 11.8666 7.233 11.9646 7.224 12.0656V12.1456C7.233 12.2466 7.277 12.3446 7.356 12.4236C7.445 12.5126 7.56 12.5566 7.667 12.5566C7.774 12.5566 7.889 12.5126 7.978 12.4236L8.645 11.7566ZM7.063 10.0586C7.241 9.88056 7.525 9.88956 7.694 10.0586C7.87 10.2366 7.871 10.5176 7.698 10.6916L6.293 12.1056C6.207 12.1926 6.093 12.2366 5.98 12.2366H5.959C5.945 12.2356 5.931 12.2346 5.917 12.2326C5.821 12.2226 5.733 12.1786 5.658 12.1036C5.627 12.0706 5.601 12.0346 5.582 11.9966C5.58 11.9906 5.57711 11.9846 5.57423 11.9786L5.57 11.9696C5.562 11.9546 5.557 11.9396 5.552 11.9236C5.5513 11.9173 5.54964 11.9115 5.54802 11.9059L5.546 11.8986C5.54 11.8796 5.536 11.8596 5.534 11.8396C5.535 11.8346 5.535 11.8306 5.535 11.8256C5.523 11.7006 5.564 11.5716 5.658 11.4726L7.063 10.0586ZM6.645 9.11556C6.467 8.93756 6.192 8.93756 6.014 9.11556L5.347 9.78356C5.169 9.96156 5.169 10.2366 5.347 10.4146C5.383 10.4506 5.423 10.4796 5.466 10.5006L5.484 10.5096C5.503 10.5176 5.522 10.5246 5.541 10.5296L5.559 10.5356C5.575 10.5396 5.59 10.5416 5.605 10.5436C5.62 10.5456 5.634 10.5466 5.649 10.5476H5.668C5.781 10.5476 5.895 10.5036 5.981 10.4176L6.648 9.75056C6.726 9.67256 6.768 9.57456 6.777 9.47356V9.39356C6.768 9.29256 6.724 9.19456 6.645 9.11556ZM10.219 2.32356C10.277 2.32356 10.333 2.32756 10.389 2.33456C10.977 2.40856 11.446 2.86056 11.446 3.43556C11.446 3.68556 11.356 3.91256 11.205 4.09556C11.051 4.28456 10.833 4.42656 10.58 4.49756C10.561 4.50256 10.542 4.50756 10.523 4.51156L10.5019 4.51615C10.489 4.51901 10.4755 4.52199 10.462 4.52456L10.426 4.53056C10.359 4.54156 10.289 4.54656 10.219 4.54656H6.423C6.365 4.54656 6.309 4.54256 6.253 4.53556C5.665 4.46156 5.196 4.00956 5.196 3.43456C5.196 3.18456 5.287 2.95656 5.437 2.77356C5.591 2.58556 5.809 2.44256 6.061 2.37256C6.08 2.36756 6.099 2.36256 6.118 2.35856L6.13908 2.35397C6.15203 2.35111 6.16552 2.34813 6.179 2.34556L6.215 2.33956C6.282 2.32856 6.352 2.32356 6.422 2.32356H10.219ZM6.423 3.21256H10.219V3.21356C10.367 3.21356 10.484 3.27956 10.533 3.35756C10.549 3.38256 10.557 3.40956 10.557 3.43556C10.557 3.53656 10.415 3.65756 10.219 3.65756H6.423C6.227 3.65756 6.085 3.54256 6.085 3.43556L6.092 3.39556C6.122 3.30456 6.252 3.21256 6.423 3.21256Z" fill="currentColor"/>
</svg>
