<svg viewBox="0 0 16 17" fill="none" xmlns="http://www.w3.org/2000/svg">
<path fill-rule="evenodd" clip-rule="evenodd" d="M11.045 0.234375C11.169 0.234375 11.291 0.245375 11.411 0.266375C11.463 0.275375 11.515 0.287375 11.566 0.300375C11.68 0.329375 11.792 0.369375 11.9 0.418375C11.921 0.427375 11.941 0.437375 11.961 0.447375C11.9736 0.453301 11.9856 0.459776 11.9979 0.466393L12.011 0.473375C12.041 0.489375 12.07 0.505375 12.099 0.522375C12.106 0.527375 12.114 0.532375 12.122 0.536375C12.29 0.638375 12.442 0.763375 12.574 0.910375L15.516 4.47437H15.525C15.623 4.59837 15.676 4.75037 15.676 4.90137V14.3234C15.676 14.6884 15.567 15.0294 15.379 15.3194L15.369 15.3354C15.015 15.8784 14.382 16.2354 13.667 16.2354H3.036C1.955 16.2354 1.056 15.4174 1 14.3334V4.90238C1 4.77056 1.03905 4.64236 1.11162 4.53316C1.12661 4.50978 1.14294 4.48785 1.16 4.46737L4.093 0.920375C4.413 0.556375 4.849 0.324375 5.32 0.253375H5.416L11.045 0.235375V0.234375ZM11.047 1.56738L5.482 1.58438L5.416 1.59837C5.32942 1.62284 5.24903 1.66414 5.18485 1.7131L5.196 1.70438L5.18268 1.71476L5.173 1.72238L5.18118 1.71598C5.15398 1.73797 5.12905 1.76223 5.107 1.78938L2.334 5.14038V14.3094C2.353 14.5624 2.54 14.7804 2.801 14.8644C2.831 14.8734 2.863 14.8814 2.895 14.8874L2.938 14.8934L2.974 14.8964L3.036 14.9004H13.667C13.704 14.9004 13.74 14.8984 13.776 14.8934C14.054 14.8534 14.278 14.6634 14.325 14.4254C14.331 14.3944 14.334 14.3634 14.334 14.3314V5.14038L11.575 1.79237C11.474 1.67737 11.319 1.59738 11.149 1.57337L11.047 1.56638V1.56738ZM11.623 5.86938C11.534 5.78137 11.409 5.73637 11.285 5.74538L11.284 5.74638C11.035 5.76338 10.706 5.85238 10.395 6.03038L10.377 6.07438C10.315 5.90637 10.155 5.79038 9.968 5.79038C9.72 5.79038 9.524 5.98537 9.524 6.23438L9.526 7.55137C9.32899 7.50305 9.10607 7.4815 8.84681 7.47869C8.82666 7.47837 8.80683 7.47837 8.787 7.47837C8.735 7.47837 8.681 7.48238 8.625 7.49038C8.455 7.51137 8.283 7.55737 8.12 7.62537V6.90137C8.12 6.65338 7.925 6.45738 7.676 6.45738H6.343C6.318 6.45738 6.295 6.45837 6.272 6.46138C6.24 6.46637 6.21 6.47438 6.179 6.48537L6.111 6.51737C6.059 6.54738 6.014 6.58738 5.979 6.63438C5.923 6.70837 5.89 6.79938 5.889 6.90238C5.889 6.92938 5.876 6.96037 5.853 6.99538C5.712 7.18837 5.268 7.47137 5.009 7.47137C4.956 7.47137 4.911 7.48038 4.867 7.49837H4.84C4.82994 7.49837 4.81953 7.50783 4.80898 7.51742C4.8017 7.52403 4.79435 7.5307 4.787 7.53438C4.77969 7.53898 4.7718 7.54365 4.76381 7.54838C4.7423 7.56112 4.72013 7.57425 4.707 7.58738L4.675 7.62238C4.601 7.70138 4.556 7.80737 4.556 7.92438C4.556 7.93638 4.553 7.94938 4.547 7.96438L4.535 7.98438C4.405 8.16337 3.978 8.43038 3.685 8.43038C3.514 8.43038 3.368 8.52238 3.293 8.66138C3.249 8.73038 3.223 8.81338 3.223 8.90137V13.5684C3.223 13.8134 3.422 14.0124 3.667 14.0124H7.667C7.842 14.0124 7.993 13.9114 8.065 13.7634C8.071 13.7534 8.076 13.7434 8.08 13.7344C8.316 13.9094 8.558 14.0124 8.787 14.0124C9.14 14.0124 9.395 13.9434 9.686 13.8044C9.67894 13.8076 9.70482 13.7951 9.73906 13.7787L9.8 13.7494L9.906 13.7014C9.953 13.6904 9.999 13.6864 10.045 13.6894C10.068 13.6954 10.094 13.7044 10.128 13.7184L10.316 13.8064C10.611 13.9444 10.864 14.0124 11.213 14.0124C11.813 14.0124 12.412 13.4494 12.841 12.6224C13.119 12.0944 13.327 11.4514 13.418 10.7684C13.56 9.71037 13.338 8.79437 12.796 8.17237C12.396 7.71938 11.836 7.45237 11.258 7.44338C11.605 7.06038 11.747 6.55438 11.756 6.20738C11.756 6.08238 11.712 5.95738 11.623 5.86938ZM8.797 8.36738C8.58 8.37237 8.318 8.48738 8.163 8.63237L8.111 8.68637V12.4804L8.184 12.5784C8.328 12.7654 8.479 12.9184 8.597 13.0154C8.684 13.0814 8.752 13.1174 8.787 13.1244C9.04644 13.1244 9.18785 13.0573 9.3507 12.9802L9.365 12.9734C9.399 12.9564 9.436 12.9384 9.475 12.9204C9.49 12.9144 9.501 12.9094 9.509 12.9054L9.52014 12.8998L9.58334 12.8739C9.60194 12.8667 9.62047 12.8598 9.639 12.8534C9.654 12.8484 9.67 12.8434 9.686 12.8384C9.766 12.8144 9.845 12.8004 9.928 12.7954L9.996 12.7934L10.07 12.7964C10.046 12.7944 10.021 12.7934 9.996 12.7934C10.082 12.7934 10.162 12.8024 10.241 12.8204C10.251 12.8234 10.26 12.8254 10.269 12.8274C10.337 12.8434 10.405 12.8674 10.476 12.8974L10.532 12.9244C10.5643 12.939 10.5956 12.9547 10.625 12.9694L10.559 12.9364L10.693 12.9984L10.799 13.0444C10.864 13.0704 10.924 13.0884 10.988 13.1014C11.053 13.1134 11.126 13.1214 11.213 13.1214C11.506 13.1214 12.324 12.1704 12.52 10.6774L12.511 10.6864C12.618 9.88637 12.475 9.21037 12.102 8.79338C11.8638 8.51944 11.5468 8.36865 11.2116 8.3664L11.213 8.36637H11.204L11.2116 8.3664L11.103 8.36837C11.0985 8.36837 11.0942 8.36863 11.09 8.36888C11.0858 8.36913 11.0815 8.36938 11.077 8.36938C10.771 8.38937 10.464 8.47137 10.301 8.57038L10.24 8.61337C10.128 8.70938 9.981 8.74137 9.846 8.70938C9.762 8.69137 9.683 8.65137 9.621 8.58838C9.553 8.51637 9.471 8.46437 9.365 8.42838C9.226 8.38437 9.046 8.36637 8.795 8.36637L8.797 8.36738ZM9.56991 12.8791L9.587 12.8724L9.58334 12.8739L9.56991 12.8791ZM9.56991 12.8791C9.54976 12.8871 9.52949 12.8965 9.509 12.9054L9.52014 12.8998C9.53588 12.8931 9.55305 12.8859 9.56991 12.8791ZM4.111 13.1234V10.8524L7.222 11.8964V13.1234H4.111ZM7.222 9.53238L5.082 10.2394L7.222 10.9584V9.53238ZM4.111 9.27938C4.62567 9.13347 5.14234 8.76285 5.3496 8.32222C5.86843 8.19308 6.42509 7.8072 6.661 7.34837L7.222 7.35137V8.58838L4.111 9.61837V9.27938ZM6.44 4.67837C5.764 4.67837 5.213 4.18037 5.213 3.56737C5.213 2.95437 5.764 2.45637 6.44 2.45637H10.227C10.885 2.45637 11.445 2.94137 11.445 3.56737C11.445 4.19337 10.885 4.67837 10.227 4.67837H6.44ZM6.449 3.34538H10.218C10.414 3.34538 10.547 3.46137 10.547 3.56737C10.547 3.67337 10.414 3.78937 10.218 3.78937H6.449C6.256 3.78937 6.12 3.67138 6.12 3.56737C6.12 3.46337 6.256 3.34538 6.449 3.34538Z" fill="currentColor"/>
</svg>
