<svg viewBox="0 0 16 17" fill="none" xmlns="http://www.w3.org/2000/svg">
<path fill-rule="evenodd" clip-rule="evenodd" d="M12.379 1.30166C12.341 1.29766 12.302 1.29566 12.264 1.29766V1.29966C11.849 1.32466 11.29 1.46166 10.765 1.75266L10.785 1.74066C10.5984 1.84044 10.4248 1.95416 10.272 2.08578C10.1614 1.97858 10.0105 1.91266 9.844 1.91266L9.843 1.91166C9.503 1.91166 9.228 2.18666 9.228 2.52666V4.96266C8.848 4.70866 8.488 4.53166 8.119 4.43866C7.946 4.39566 7.774 4.37266 7.604 4.37266L7.422 4.37866C6.99504 4.40853 6.56842 4.54336 6.153 4.76367V4.37466L6.147 4.29166C6.106 3.99066 5.848 3.75966 5.537 3.75966H3.076C2.736 3.75966 2.461 4.03466 2.461 4.37466L2.457 4.49066V4.50166C2.454 4.54066 2.45 4.58066 2.445 4.61966C2.34 5.40766 1.735 6.04066 0.961 6.18766L0.893085 6.19898C0.876433 6.20148 0.859713 6.20377 0.842976 6.2058L0.87 6.20266C0.856 6.20466 0.841 6.20666 0.827 6.20766L0.819576 6.20843C0.793201 6.21117 0.767519 6.21383 0.741 6.21566L0.615 6.21966C0.275 6.21966 0 6.49466 0 6.83466V15.4487C0 15.7887 0.275 16.0637 0.615 16.0637H5.537C5.877 16.0637 6.152 15.7887 6.152 15.4487V15.0022C6.58403 15.2681 7.04679 15.4224 7.48556 15.4448C7.52609 15.4474 7.56561 15.4487 7.604 15.4487C8.432 15.4487 8.933 15.2187 9.302 15.0467C9.794 14.8167 9.893 14.8247 10.385 15.0467C10.6279 15.1599 10.931 15.2982 11.3462 15.3796C11.5735 15.426 11.8111 15.4487 12.083 15.4487L12.085 15.4487L12.091 15.4487C13.723 15.4487 15.52 12.8967 15.922 9.98466C16.2134 7.9011 15.6247 6.58246 15.0243 5.82264C14.3483 4.939 13.3623 4.41331 12.2152 4.37581C12.1739 4.37438 12.1325 4.37366 12.091 4.37366L12.088 4.37366L12.083 4.37366C11.9566 4.37366 11.8291 4.38638 11.7008 4.41059C11.8954 4.26121 12.0681 4.08631 12.219 3.88866C12.708 3.25266 12.9 2.47766 12.919 1.93766L12.9183 1.92732C12.9222 1.78452 12.8765 1.6526 12.798 1.54666C12.791 1.53666 12.784 1.52766 12.776 1.51866C12.766 1.50666 12.756 1.49466 12.745 1.48366C12.7424 1.48036 12.7393 1.4775 12.7361 1.47451L12.731 1.46966C12.704 1.44266 12.675 1.41866 12.643 1.39866L12.6405 1.39715C12.6384 1.39594 12.6364 1.39482 12.635 1.39266C12.617 1.38066 12.597 1.36966 12.577 1.36066C12.5755 1.35966 12.574 1.35891 12.5725 1.35816L12.5725 1.35816C12.571 1.35741 12.5695 1.35666 12.568 1.35566C12.548 1.34666 12.526 1.33766 12.505 1.33066C12.492 1.32666 12.479 1.32266 12.465 1.31866C12.454 1.31566 12.443 1.31266 12.432 1.31066C12.415 1.30666 12.397 1.30366 12.379 1.30166ZM11.7008 4.41059L11.685 4.42266C11.821 4.39089 11.9511 4.3739 12.088 4.37366C12.1306 4.37372 12.173 4.37443 12.2152 4.37581C13.2363 4.41121 14.2108 4.88156 14.897 5.66966C14.9393 5.71791 14.9818 5.76888 15.0243 5.82264C15.7862 6.81849 16.1544 8.26897 15.916 9.98766C15.5152 12.8695 13.7414 15.4466 12.085 15.4487C11.8042 15.4483 11.5603 15.4215 11.3462 15.3796C11.1364 15.3367 10.9353 15.2737 10.724 15.1897L10.174 14.9517C10.035 14.8967 9.937 14.8737 9.835 14.8737C9.758 14.8737 9.687 14.8867 9.598 14.9167L9.503 14.9527C9.436 14.9807 9.131 15.1207 9.162 15.1067C8.652 15.3367 8.212 15.4477 7.596 15.4477C7.55938 15.4477 7.52256 15.4467 7.48556 15.4448C7.10172 15.4205 6.62686 15.2791 6.152 14.9897V15.0022C5.72822 14.7413 5.334 14.3731 5.021 13.9167C4.97153 13.8446 4.93804 13.7625 4.92266 13.6768L4.92196 11.0062L4.913 11.004V9.72983L4.92202 9.73209L4.92102 8.85409L4.913 8.85609V7.57561L4.92296 7.57314L4.92229 5.84871C4.94934 5.69469 5.03369 5.56004 5.152 5.46866L5.183 5.44766L5.292 5.35266C5.57084 5.11815 5.85912 4.91953 6.153 4.76367V4.76866C6.588 4.53866 7.08 4.37466 7.605 4.37466C8.187 4.37466 8.754 4.64566 9.229 4.96566V2.52966C9.229 2.19366 9.508 1.91466 9.844 1.91466C10.008 1.91466 10.164 1.98066 10.271 2.08666L10.272 2.08578C10.3874 2.19753 10.459 2.35413 10.459 2.52766L10.46 4.96266C10.84 4.70866 11.2 4.53266 11.568 4.43966C11.6124 4.42864 11.6566 4.41893 11.7008 4.41059ZM4.92229 5.84871L4.92196 4.98814L4.92096 4.98914H3.62996C3.38596 6.19614 2.43796 7.14514 1.23096 7.38914V8.49114L4.913 7.57561V5.95566C4.913 5.91921 4.91619 5.88347 4.92229 5.84871ZM4.913 8.85609V9.72983L3.16602 9.29209L4.913 8.85609ZM4.913 11.004V13.5687C4.913 13.605 4.91627 13.6412 4.92266 13.6768L4.92296 14.8252L1.23096 14.8242V10.0832L4.913 11.004ZM0.893085 6.19898L0.871 6.20266C0.911 6.19766 0.95 6.19066 0.989 6.18266L0.961 6.18766C0.938577 6.19174 0.915895 6.19555 0.893085 6.19898ZM12.084 5.59617C11.5643 5.59617 10.841 6.1886 10.4326 6.52312L10.402 6.54817L10.222 6.69617C10.1967 6.71538 10.1766 6.72456 10.1537 6.73504C10.1468 6.73819 10.1397 6.74147 10.132 6.74517L10.1211 6.75221C10.1 6.76594 10.0794 6.77934 10.058 6.78617C9.99202 6.81117 9.92702 6.82717 9.85302 6.82717H9.82802C9.75402 6.82717 9.68002 6.81117 9.61502 6.78617C9.59367 6.77934 9.57305 6.76594 9.55191 6.75221L9.54102 6.74517C9.52219 6.73604 9.49554 6.72137 9.47613 6.71046C9.46336 6.7008 9.45097 6.69065 9.43897 6.68006L8.82997 6.18806C8.43997 5.89306 8.10497 5.70406 7.82197 5.63306C7.74297 5.61306 7.67097 5.60406 7.60697 5.60406C7.24659 5.60406 6.83494 5.76091 6.41754 6.04517C6.32989 6.10427 6.24159 6.16891 6.15302 6.23884V6.23817L6.14502 6.24517L6.15302 6.23884L6.15302 6.24228L6.14697 6.24706V13.3681L6.25397 13.4951C6.63197 13.9171 7.09997 14.1691 7.48597 14.2111L7.59897 14.2171C7.96297 14.2171 8.21597 14.1661 8.50897 14.0491L9.03597 13.8151C9.31097 13.7021 9.55597 13.6431 9.83797 13.6431C10.1044 13.6431 10.3426 13.6956 10.6045 13.7971C10.6211 13.8037 10.6375 13.8104 10.6537 13.8172L10.7214 13.8463C10.772 13.8684 10.821 13.8908 10.8688 13.9127L10.894 13.9242L10.9011 13.9274C11.0526 13.9957 11.1994 14.062 11.3691 14.1133C11.5952 14.1854 11.8088 14.2171 12.084 14.2171C12.6171 14.2171 13.3476 13.4598 13.9119 12.3378C14.266 11.6498 14.5626 10.7937 14.701 9.80617H14.7005C14.7429 9.49597 14.7624 9.19974 14.7607 8.91859C14.7643 7.96217 14.5212 7.2892 14.2309 6.82723C13.849 6.20215 13.2846 5.79691 12.6175 5.6573C12.4436 5.6177 12.2649 5.59717 12.084 5.59717V5.59617ZM10.1507 6.75268C10.1868 6.73185 10.2207 6.70765 10.252 6.68006L10.861 6.18806C11.251 5.89306 11.586 5.70406 11.869 5.63306C11.948 5.61406 12.019 5.60406 12.084 5.60406V5.60306C12.2677 5.60306 12.446 5.6214 12.6175 5.6573C13.1304 5.77403 13.6016 6.05648 13.963 6.46717C14.053 6.56958 14.144 6.68896 14.2309 6.82723C14.562 7.36908 14.7559 8.07614 14.7607 8.91859C14.7597 9.19091 14.7387 9.48621 14.693 9.80617H14.7005C14.7 9.8098 14.6995 9.81343 14.699 9.81706C14.5708 10.7389 14.2759 11.6142 13.9119 12.3378C13.3015 13.5242 12.5201 14.2112 12.084 14.2112C11.7881 14.2112 11.5636 14.1721 11.3691 14.1133C11.2615 14.079 11.1511 14.0356 11.03 13.9821L10.84 13.8971L10.7214 13.8463C10.6992 13.8365 10.6766 13.8268 10.6537 13.8172L10.63 13.8071C10.6215 13.8037 10.613 13.8004 10.6045 13.7971C10.3861 13.7095 10.1377 13.6372 9.83602 13.6372C9.39302 13.6372 9.07302 13.7852 8.77802 13.9242C8.45802 14.0722 8.15502 14.2112 7.59702 14.2112L7.50302 14.2062C7.11502 14.1682 6.57702 13.8992 6.15402 13.3692L6.15302 6.24228L6.23797 6.17506C6.29786 6.12921 6.35776 6.08588 6.41754 6.04517C6.83883 5.76115 7.24539 5.60517 7.59702 5.60517C8.11646 5.60517 8.82894 6.1871 9.23741 6.52073L9.27102 6.54817L9.45102 6.69617C9.45102 6.69617 9.46152 6.70225 9.47613 6.71046C9.5176 6.74187 9.56303 6.76818 9.61197 6.78806C9.61797 6.79006 9.62372 6.79231 9.62947 6.79456C9.63522 6.79681 9.64097 6.79906 9.64697 6.80106C9.66397 6.80706 9.68197 6.81306 9.69997 6.81706C9.70897 6.81906 9.71797 6.82106 9.72597 6.82306C9.76497 6.83106 9.80497 6.83506 9.84597 6.83506C9.85035 6.83506 9.85474 6.83483 9.85923 6.83458C9.86397 6.83433 9.86884 6.83406 9.87397 6.83406C9.88397 6.83406 9.89397 6.83306 9.90397 6.83206C9.92497 6.83006 9.94497 6.82706 9.96497 6.82306L9.99197 6.81706C10.01 6.81206 10.028 6.80706 10.045 6.80106C10.0588 6.79619 10.0727 6.79075 10.0865 6.7848L10.08 6.78806C10.0979 6.7804 10.1153 6.77201 10.1324 6.7629C10.1396 6.75909 10.1468 6.75514 10.154 6.75106L10.1507 6.75268ZM10.1507 6.75268C10.1447 6.75618 10.1385 6.75959 10.1324 6.7629C10.1173 6.7708 10.102 6.77812 10.0865 6.7848L10.1507 6.75268ZM9.84597 6.83506L9.78797 6.83206C9.79797 6.83306 9.80797 6.83406 9.81797 6.83406L9.84597 6.83506ZM11.4526 2.78061L11.4539 2.77997H11.4529L11.4526 2.78061ZM11.3649 2.82397L11.4526 2.78061L11.4169 2.85897L11.4069 2.87797C11.2459 3.17197 10.9959 3.45197 10.5989 3.61797C10.6619 3.47297 10.7429 3.34697 10.8339 3.23797L10.9139 3.15097C11.0399 3.02497 11.1909 2.91697 11.3649 2.82397Z" fill="currentColor"/>
</svg>
